G04 #@! TF.GenerationSoftware,KiCad,Pcbnew,5.1.5*
G04 #@! TF.CreationDate,2020-04-20T14:34:13-06:00*
G04 #@! TF.ProjectId,growbot,67726f77-626f-4742-9e6b-696361645f70,rev?*
G04 #@! TF.SameCoordinates,Original*
G04 #@! TF.FileFunction,Copper,L1,Top*
G04 #@! TF.FilePolarity,Positive*
%FSLAX46Y46*%
G04 Gerber Fmt 4.6, Leading zero omitted, Abs format (unit mm)*
G04 Created by KiCad (PCBNEW 5.1.5) date 2020-04-20 14:34:13*
%MOMM*%
%LPD*%
G04 APERTURE LIST*
%ADD10O,1.600000X2.400000*%
%ADD11R,1.600000X2.400000*%
%ADD12O,1.350000X1.350000*%
%ADD13R,1.350000X1.350000*%
%ADD14C,0.100000*%
%ADD15O,1.700000X1.700000*%
%ADD16R,1.700000X1.700000*%
%ADD17C,1.800000*%
%ADD18R,1.800000X1.800000*%
%ADD19C,0.800000*%
%ADD20C,0.250000*%
%ADD21C,0.254000*%
G04 APERTURE END LIST*
D10*
X151130000Y-92710000D03*
X168910000Y-100330000D03*
X153670000Y-92710000D03*
X166370000Y-100330000D03*
X156210000Y-92710000D03*
X163830000Y-100330000D03*
X158750000Y-92710000D03*
X161290000Y-100330000D03*
X161290000Y-92710000D03*
X158750000Y-100330000D03*
X163830000Y-92710000D03*
X156210000Y-100330000D03*
X166370000Y-92710000D03*
X153670000Y-100330000D03*
X168910000Y-92710000D03*
D11*
X151130000Y-100330000D03*
D12*
X146050000Y-93505000D03*
X146050000Y-95505000D03*
X146050000Y-97505000D03*
D13*
X146050000Y-99505000D03*
G04 #@! TA.AperFunction,SMDPad,CuDef*
D14*
G36*
X120910779Y-108301144D02*
G01*
X120933834Y-108304563D01*
X120956443Y-108310227D01*
X120978387Y-108318079D01*
X120999457Y-108328044D01*
X121019448Y-108340026D01*
X121038168Y-108353910D01*
X121055438Y-108369562D01*
X121071090Y-108386832D01*
X121084974Y-108405552D01*
X121096956Y-108425543D01*
X121106921Y-108446613D01*
X121114773Y-108468557D01*
X121120437Y-108491166D01*
X121123856Y-108514221D01*
X121125000Y-108537500D01*
X121125000Y-109112500D01*
X121123856Y-109135779D01*
X121120437Y-109158834D01*
X121114773Y-109181443D01*
X121106921Y-109203387D01*
X121096956Y-109224457D01*
X121084974Y-109244448D01*
X121071090Y-109263168D01*
X121055438Y-109280438D01*
X121038168Y-109296090D01*
X121019448Y-109309974D01*
X120999457Y-109321956D01*
X120978387Y-109331921D01*
X120956443Y-109339773D01*
X120933834Y-109345437D01*
X120910779Y-109348856D01*
X120887500Y-109350000D01*
X120412500Y-109350000D01*
X120389221Y-109348856D01*
X120366166Y-109345437D01*
X120343557Y-109339773D01*
X120321613Y-109331921D01*
X120300543Y-109321956D01*
X120280552Y-109309974D01*
X120261832Y-109296090D01*
X120244562Y-109280438D01*
X120228910Y-109263168D01*
X120215026Y-109244448D01*
X120203044Y-109224457D01*
X120193079Y-109203387D01*
X120185227Y-109181443D01*
X120179563Y-109158834D01*
X120176144Y-109135779D01*
X120175000Y-109112500D01*
X120175000Y-108537500D01*
X120176144Y-108514221D01*
X120179563Y-108491166D01*
X120185227Y-108468557D01*
X120193079Y-108446613D01*
X120203044Y-108425543D01*
X120215026Y-108405552D01*
X120228910Y-108386832D01*
X120244562Y-108369562D01*
X120261832Y-108353910D01*
X120280552Y-108340026D01*
X120300543Y-108328044D01*
X120321613Y-108318079D01*
X120343557Y-108310227D01*
X120366166Y-108304563D01*
X120389221Y-108301144D01*
X120412500Y-108300000D01*
X120887500Y-108300000D01*
X120910779Y-108301144D01*
G37*
G04 #@! TD.AperFunction*
G04 #@! TA.AperFunction,SMDPad,CuDef*
G36*
X120910779Y-106551144D02*
G01*
X120933834Y-106554563D01*
X120956443Y-106560227D01*
X120978387Y-106568079D01*
X120999457Y-106578044D01*
X121019448Y-106590026D01*
X121038168Y-106603910D01*
X121055438Y-106619562D01*
X121071090Y-106636832D01*
X121084974Y-106655552D01*
X121096956Y-106675543D01*
X121106921Y-106696613D01*
X121114773Y-106718557D01*
X121120437Y-106741166D01*
X121123856Y-106764221D01*
X121125000Y-106787500D01*
X121125000Y-107362500D01*
X121123856Y-107385779D01*
X121120437Y-107408834D01*
X121114773Y-107431443D01*
X121106921Y-107453387D01*
X121096956Y-107474457D01*
X121084974Y-107494448D01*
X121071090Y-107513168D01*
X121055438Y-107530438D01*
X121038168Y-107546090D01*
X121019448Y-107559974D01*
X120999457Y-107571956D01*
X120978387Y-107581921D01*
X120956443Y-107589773D01*
X120933834Y-107595437D01*
X120910779Y-107598856D01*
X120887500Y-107600000D01*
X120412500Y-107600000D01*
X120389221Y-107598856D01*
X120366166Y-107595437D01*
X120343557Y-107589773D01*
X120321613Y-107581921D01*
X120300543Y-107571956D01*
X120280552Y-107559974D01*
X120261832Y-107546090D01*
X120244562Y-107530438D01*
X120228910Y-107513168D01*
X120215026Y-107494448D01*
X120203044Y-107474457D01*
X120193079Y-107453387D01*
X120185227Y-107431443D01*
X120179563Y-107408834D01*
X120176144Y-107385779D01*
X120175000Y-107362500D01*
X120175000Y-106787500D01*
X120176144Y-106764221D01*
X120179563Y-106741166D01*
X120185227Y-106718557D01*
X120193079Y-106696613D01*
X120203044Y-106675543D01*
X120215026Y-106655552D01*
X120228910Y-106636832D01*
X120244562Y-106619562D01*
X120261832Y-106603910D01*
X120280552Y-106590026D01*
X120300543Y-106578044D01*
X120321613Y-106568079D01*
X120343557Y-106560227D01*
X120366166Y-106554563D01*
X120389221Y-106551144D01*
X120412500Y-106550000D01*
X120887500Y-106550000D01*
X120910779Y-106551144D01*
G37*
G04 #@! TD.AperFunction*
G04 #@! TA.AperFunction,SMDPad,CuDef*
G36*
X145485779Y-88426144D02*
G01*
X145508834Y-88429563D01*
X145531443Y-88435227D01*
X145553387Y-88443079D01*
X145574457Y-88453044D01*
X145594448Y-88465026D01*
X145613168Y-88478910D01*
X145630438Y-88494562D01*
X145646090Y-88511832D01*
X145659974Y-88530552D01*
X145671956Y-88550543D01*
X145681921Y-88571613D01*
X145689773Y-88593557D01*
X145695437Y-88616166D01*
X145698856Y-88639221D01*
X145700000Y-88662500D01*
X145700000Y-89137500D01*
X145698856Y-89160779D01*
X145695437Y-89183834D01*
X145689773Y-89206443D01*
X145681921Y-89228387D01*
X145671956Y-89249457D01*
X145659974Y-89269448D01*
X145646090Y-89288168D01*
X145630438Y-89305438D01*
X145613168Y-89321090D01*
X145594448Y-89334974D01*
X145574457Y-89346956D01*
X145553387Y-89356921D01*
X145531443Y-89364773D01*
X145508834Y-89370437D01*
X145485779Y-89373856D01*
X145462500Y-89375000D01*
X144887500Y-89375000D01*
X144864221Y-89373856D01*
X144841166Y-89370437D01*
X144818557Y-89364773D01*
X144796613Y-89356921D01*
X144775543Y-89346956D01*
X144755552Y-89334974D01*
X144736832Y-89321090D01*
X144719562Y-89305438D01*
X144703910Y-89288168D01*
X144690026Y-89269448D01*
X144678044Y-89249457D01*
X144668079Y-89228387D01*
X144660227Y-89206443D01*
X144654563Y-89183834D01*
X144651144Y-89160779D01*
X144650000Y-89137500D01*
X144650000Y-88662500D01*
X144651144Y-88639221D01*
X144654563Y-88616166D01*
X144660227Y-88593557D01*
X144668079Y-88571613D01*
X144678044Y-88550543D01*
X144690026Y-88530552D01*
X144703910Y-88511832D01*
X144719562Y-88494562D01*
X144736832Y-88478910D01*
X144755552Y-88465026D01*
X144775543Y-88453044D01*
X144796613Y-88443079D01*
X144818557Y-88435227D01*
X144841166Y-88429563D01*
X144864221Y-88426144D01*
X144887500Y-88425000D01*
X145462500Y-88425000D01*
X145485779Y-88426144D01*
G37*
G04 #@! TD.AperFunction*
G04 #@! TA.AperFunction,SMDPad,CuDef*
G36*
X147235779Y-88426144D02*
G01*
X147258834Y-88429563D01*
X147281443Y-88435227D01*
X147303387Y-88443079D01*
X147324457Y-88453044D01*
X147344448Y-88465026D01*
X147363168Y-88478910D01*
X147380438Y-88494562D01*
X147396090Y-88511832D01*
X147409974Y-88530552D01*
X147421956Y-88550543D01*
X147431921Y-88571613D01*
X147439773Y-88593557D01*
X147445437Y-88616166D01*
X147448856Y-88639221D01*
X147450000Y-88662500D01*
X147450000Y-89137500D01*
X147448856Y-89160779D01*
X147445437Y-89183834D01*
X147439773Y-89206443D01*
X147431921Y-89228387D01*
X147421956Y-89249457D01*
X147409974Y-89269448D01*
X147396090Y-89288168D01*
X147380438Y-89305438D01*
X147363168Y-89321090D01*
X147344448Y-89334974D01*
X147324457Y-89346956D01*
X147303387Y-89356921D01*
X147281443Y-89364773D01*
X147258834Y-89370437D01*
X147235779Y-89373856D01*
X147212500Y-89375000D01*
X146637500Y-89375000D01*
X146614221Y-89373856D01*
X146591166Y-89370437D01*
X146568557Y-89364773D01*
X146546613Y-89356921D01*
X146525543Y-89346956D01*
X146505552Y-89334974D01*
X146486832Y-89321090D01*
X146469562Y-89305438D01*
X146453910Y-89288168D01*
X146440026Y-89269448D01*
X146428044Y-89249457D01*
X146418079Y-89228387D01*
X146410227Y-89206443D01*
X146404563Y-89183834D01*
X146401144Y-89160779D01*
X146400000Y-89137500D01*
X146400000Y-88662500D01*
X146401144Y-88639221D01*
X146404563Y-88616166D01*
X146410227Y-88593557D01*
X146418079Y-88571613D01*
X146428044Y-88550543D01*
X146440026Y-88530552D01*
X146453910Y-88511832D01*
X146469562Y-88494562D01*
X146486832Y-88478910D01*
X146505552Y-88465026D01*
X146525543Y-88453044D01*
X146546613Y-88443079D01*
X146568557Y-88435227D01*
X146591166Y-88429563D01*
X146614221Y-88426144D01*
X146637500Y-88425000D01*
X147212500Y-88425000D01*
X147235779Y-88426144D01*
G37*
G04 #@! TD.AperFunction*
D15*
X168910000Y-81280000D03*
X168910000Y-83820000D03*
X166370000Y-81280000D03*
X166370000Y-83820000D03*
X163830000Y-81280000D03*
X163830000Y-83820000D03*
X161290000Y-81280000D03*
X161290000Y-83820000D03*
X158750000Y-81280000D03*
X158750000Y-83820000D03*
X156210000Y-81280000D03*
X156210000Y-83820000D03*
X153670000Y-81280000D03*
X153670000Y-83820000D03*
X151130000Y-81280000D03*
X151130000Y-83820000D03*
X148590000Y-81280000D03*
X148590000Y-83820000D03*
X146050000Y-81280000D03*
X146050000Y-83820000D03*
X143510000Y-81280000D03*
X143510000Y-83820000D03*
X140970000Y-81280000D03*
X140970000Y-83820000D03*
X138430000Y-81280000D03*
X138430000Y-83820000D03*
X135890000Y-81280000D03*
X135890000Y-83820000D03*
X133350000Y-81280000D03*
X133350000Y-83820000D03*
X130810000Y-81280000D03*
X130810000Y-83820000D03*
X128270000Y-81280000D03*
X128270000Y-83820000D03*
X125730000Y-81280000D03*
X125730000Y-83820000D03*
X123190000Y-81280000D03*
X123190000Y-83820000D03*
X120650000Y-81280000D03*
D16*
X120650000Y-83820000D03*
G04 #@! TA.AperFunction,SMDPad,CuDef*
D14*
G36*
X124290779Y-106206144D02*
G01*
X124313834Y-106209563D01*
X124336443Y-106215227D01*
X124358387Y-106223079D01*
X124379457Y-106233044D01*
X124399448Y-106245026D01*
X124418168Y-106258910D01*
X124435438Y-106274562D01*
X124451090Y-106291832D01*
X124464974Y-106310552D01*
X124476956Y-106330543D01*
X124486921Y-106351613D01*
X124494773Y-106373557D01*
X124500437Y-106396166D01*
X124503856Y-106419221D01*
X124505000Y-106442500D01*
X124505000Y-106917500D01*
X124503856Y-106940779D01*
X124500437Y-106963834D01*
X124494773Y-106986443D01*
X124486921Y-107008387D01*
X124476956Y-107029457D01*
X124464974Y-107049448D01*
X124451090Y-107068168D01*
X124435438Y-107085438D01*
X124418168Y-107101090D01*
X124399448Y-107114974D01*
X124379457Y-107126956D01*
X124358387Y-107136921D01*
X124336443Y-107144773D01*
X124313834Y-107150437D01*
X124290779Y-107153856D01*
X124267500Y-107155000D01*
X123692500Y-107155000D01*
X123669221Y-107153856D01*
X123646166Y-107150437D01*
X123623557Y-107144773D01*
X123601613Y-107136921D01*
X123580543Y-107126956D01*
X123560552Y-107114974D01*
X123541832Y-107101090D01*
X123524562Y-107085438D01*
X123508910Y-107068168D01*
X123495026Y-107049448D01*
X123483044Y-107029457D01*
X123473079Y-107008387D01*
X123465227Y-106986443D01*
X123459563Y-106963834D01*
X123456144Y-106940779D01*
X123455000Y-106917500D01*
X123455000Y-106442500D01*
X123456144Y-106419221D01*
X123459563Y-106396166D01*
X123465227Y-106373557D01*
X123473079Y-106351613D01*
X123483044Y-106330543D01*
X123495026Y-106310552D01*
X123508910Y-106291832D01*
X123524562Y-106274562D01*
X123541832Y-106258910D01*
X123560552Y-106245026D01*
X123580543Y-106233044D01*
X123601613Y-106223079D01*
X123623557Y-106215227D01*
X123646166Y-106209563D01*
X123669221Y-106206144D01*
X123692500Y-106205000D01*
X124267500Y-106205000D01*
X124290779Y-106206144D01*
G37*
G04 #@! TD.AperFunction*
G04 #@! TA.AperFunction,SMDPad,CuDef*
G36*
X126040779Y-106206144D02*
G01*
X126063834Y-106209563D01*
X126086443Y-106215227D01*
X126108387Y-106223079D01*
X126129457Y-106233044D01*
X126149448Y-106245026D01*
X126168168Y-106258910D01*
X126185438Y-106274562D01*
X126201090Y-106291832D01*
X126214974Y-106310552D01*
X126226956Y-106330543D01*
X126236921Y-106351613D01*
X126244773Y-106373557D01*
X126250437Y-106396166D01*
X126253856Y-106419221D01*
X126255000Y-106442500D01*
X126255000Y-106917500D01*
X126253856Y-106940779D01*
X126250437Y-106963834D01*
X126244773Y-106986443D01*
X126236921Y-107008387D01*
X126226956Y-107029457D01*
X126214974Y-107049448D01*
X126201090Y-107068168D01*
X126185438Y-107085438D01*
X126168168Y-107101090D01*
X126149448Y-107114974D01*
X126129457Y-107126956D01*
X126108387Y-107136921D01*
X126086443Y-107144773D01*
X126063834Y-107150437D01*
X126040779Y-107153856D01*
X126017500Y-107155000D01*
X125442500Y-107155000D01*
X125419221Y-107153856D01*
X125396166Y-107150437D01*
X125373557Y-107144773D01*
X125351613Y-107136921D01*
X125330543Y-107126956D01*
X125310552Y-107114974D01*
X125291832Y-107101090D01*
X125274562Y-107085438D01*
X125258910Y-107068168D01*
X125245026Y-107049448D01*
X125233044Y-107029457D01*
X125223079Y-107008387D01*
X125215227Y-106986443D01*
X125209563Y-106963834D01*
X125206144Y-106940779D01*
X125205000Y-106917500D01*
X125205000Y-106442500D01*
X125206144Y-106419221D01*
X125209563Y-106396166D01*
X125215227Y-106373557D01*
X125223079Y-106351613D01*
X125233044Y-106330543D01*
X125245026Y-106310552D01*
X125258910Y-106291832D01*
X125274562Y-106274562D01*
X125291832Y-106258910D01*
X125310552Y-106245026D01*
X125330543Y-106233044D01*
X125351613Y-106223079D01*
X125373557Y-106215227D01*
X125396166Y-106209563D01*
X125419221Y-106206144D01*
X125442500Y-106205000D01*
X126017500Y-106205000D01*
X126040779Y-106206144D01*
G37*
G04 #@! TD.AperFunction*
D17*
X124460000Y-113030000D03*
D18*
X124460000Y-110490000D03*
D15*
X168910000Y-108664999D03*
X168910000Y-111204999D03*
D16*
X168910000Y-113744999D03*
D15*
X165100000Y-108664999D03*
X165100000Y-111204999D03*
D16*
X165100000Y-113744999D03*
D15*
X161290000Y-108664999D03*
X161290000Y-111204999D03*
D16*
X161290000Y-113744999D03*
D15*
X157480000Y-108664999D03*
X157480000Y-111204999D03*
D16*
X157480000Y-113744999D03*
D15*
X153670000Y-108664999D03*
X153670000Y-111204999D03*
D16*
X153670000Y-113744999D03*
D15*
X149860000Y-108664999D03*
X149860000Y-111204999D03*
D16*
X149860000Y-113744999D03*
D15*
X146050000Y-108664999D03*
X146050000Y-111204999D03*
D16*
X146050000Y-113744999D03*
X142240000Y-113744999D03*
D15*
X142240000Y-111204999D03*
X142240000Y-108664999D03*
D19*
X142240000Y-93980000D03*
X142240000Y-99060000D03*
X157660000Y-87630000D03*
D20*
X151130000Y-101780000D02*
X146230000Y-106680000D01*
X151130000Y-100330000D02*
X151130000Y-101780000D01*
X146230000Y-106680000D02*
X144224999Y-106680000D01*
X144224999Y-106680000D02*
X142240000Y-108664999D01*
X151130000Y-92710000D02*
X153670000Y-92710000D01*
X144712081Y-111204999D02*
X142240000Y-111204999D01*
X145175000Y-89375000D02*
X145175000Y-88900000D01*
X148510000Y-92710000D02*
X145175000Y-89375000D01*
X151130000Y-92710000D02*
X148510000Y-92710000D01*
X120650000Y-84920000D02*
X120650000Y-83820000D01*
X124630000Y-88900000D02*
X120650000Y-84920000D01*
X145175000Y-88900000D02*
X124630000Y-88900000D01*
X126285001Y-111204999D02*
X124460000Y-113030000D01*
X120650000Y-109350000D02*
X124330000Y-113030000D01*
X124330000Y-113030000D02*
X124460000Y-113030000D01*
X120650000Y-108825000D02*
X120650000Y-109350000D01*
X144712081Y-111204999D02*
X168910000Y-111204999D01*
X146975000Y-99505000D02*
X146050000Y-99505000D01*
X148510000Y-97970000D02*
X146975000Y-99505000D01*
X148510000Y-92710000D02*
X148510000Y-97970000D01*
X133425001Y-111204999D02*
X126285001Y-111204999D01*
X145125000Y-99505000D02*
X133425001Y-111204999D01*
X146050000Y-99505000D02*
X145125000Y-99505000D01*
X141037919Y-111204999D02*
X133425001Y-111204999D01*
X142240000Y-111204999D02*
X141037919Y-111204999D01*
X146785001Y-108664999D02*
X146050000Y-108664999D01*
X153670000Y-101780000D02*
X146785001Y-108664999D01*
X153670000Y-100330000D02*
X153670000Y-101780000D01*
X156210000Y-102314999D02*
X149860000Y-108664999D01*
X156210000Y-100330000D02*
X156210000Y-102314999D01*
X158750000Y-103584999D02*
X153670000Y-108664999D01*
X158750000Y-100330000D02*
X158750000Y-103584999D01*
X161290000Y-104854999D02*
X157480000Y-108664999D01*
X161290000Y-100330000D02*
X161290000Y-104854999D01*
X163830000Y-106124999D02*
X161290000Y-108664999D01*
X163830000Y-100330000D02*
X163830000Y-106124999D01*
X166370000Y-107394999D02*
X165100000Y-108664999D01*
X166370000Y-100330000D02*
X166370000Y-107394999D01*
X168910000Y-100330000D02*
X168910000Y-108664999D01*
X149439999Y-84669999D02*
X148590000Y-83820000D01*
X150310010Y-85540010D02*
X149439999Y-84669999D01*
X153030010Y-85540010D02*
X150310010Y-85540010D01*
X158750000Y-91260000D02*
X153030010Y-85540010D01*
X158750000Y-92710000D02*
X158750000Y-91260000D01*
X161290000Y-91260000D02*
X157660000Y-87630000D01*
X161290000Y-92710000D02*
X161290000Y-91260000D01*
X157660000Y-87630000D02*
X157660000Y-87630000D01*
X144359999Y-82970001D02*
X143510000Y-83820000D01*
X149154001Y-82644999D02*
X144685001Y-82644999D01*
X149765001Y-83255999D02*
X149154001Y-82644999D01*
X144685001Y-82644999D02*
X144359999Y-82970001D01*
X149765001Y-84358591D02*
X149765001Y-83255999D01*
X157660000Y-85090000D02*
X150496410Y-85090000D01*
X163830000Y-91260000D02*
X157660000Y-85090000D01*
X150496410Y-85090000D02*
X149765001Y-84358591D01*
X163830000Y-92710000D02*
X163830000Y-91260000D01*
X149439999Y-80430001D02*
X148590000Y-81280000D01*
X149765001Y-80104999D02*
X149439999Y-80430001D01*
X156774001Y-80104999D02*
X149765001Y-80104999D01*
X157385001Y-81654003D02*
X157385001Y-80715999D01*
X158185999Y-82455001D02*
X157385001Y-81654003D01*
X157385001Y-80715999D02*
X156774001Y-80104999D01*
X159124003Y-82455001D02*
X158185999Y-82455001D01*
X159925001Y-83255999D02*
X159124003Y-82455001D01*
X159925001Y-84815001D02*
X159925001Y-83255999D01*
X166370000Y-91260000D02*
X159925001Y-84815001D01*
X166370000Y-92710000D02*
X166370000Y-91260000D01*
X123980000Y-110010000D02*
X124460000Y-110490000D01*
X123980000Y-106680000D02*
X123980000Y-110010000D01*
X122014999Y-82644999D02*
X119539999Y-82644999D01*
X123190000Y-83820000D02*
X122014999Y-82644999D01*
X119474999Y-82709999D02*
X119474999Y-84930001D01*
X119539999Y-82644999D02*
X119474999Y-82709999D01*
X120650000Y-106550000D02*
X120650000Y-107075000D01*
X129695000Y-97505000D02*
X120650000Y-106550000D01*
X146050000Y-97505000D02*
X129695000Y-97505000D01*
X129695000Y-95150002D02*
X119474999Y-84930001D01*
X129695000Y-97505000D02*
X129695000Y-95150002D01*
D21*
G36*
X170765001Y-117425000D02*
G01*
X118795000Y-117425000D01*
X118795000Y-114594999D01*
X140751928Y-114594999D01*
X140764188Y-114719481D01*
X140800498Y-114839179D01*
X140859463Y-114949493D01*
X140938815Y-115046184D01*
X141035506Y-115125536D01*
X141145820Y-115184501D01*
X141265518Y-115220811D01*
X141390000Y-115233071D01*
X141954250Y-115229999D01*
X142113000Y-115071249D01*
X142113000Y-113871999D01*
X142367000Y-113871999D01*
X142367000Y-115071249D01*
X142525750Y-115229999D01*
X143090000Y-115233071D01*
X143214482Y-115220811D01*
X143334180Y-115184501D01*
X143444494Y-115125536D01*
X143541185Y-115046184D01*
X143620537Y-114949493D01*
X143679502Y-114839179D01*
X143715812Y-114719481D01*
X143728072Y-114594999D01*
X144561928Y-114594999D01*
X144574188Y-114719481D01*
X144610498Y-114839179D01*
X144669463Y-114949493D01*
X144748815Y-115046184D01*
X144845506Y-115125536D01*
X144955820Y-115184501D01*
X145075518Y-115220811D01*
X145200000Y-115233071D01*
X145764250Y-115229999D01*
X145923000Y-115071249D01*
X145923000Y-113871999D01*
X146177000Y-113871999D01*
X146177000Y-115071249D01*
X146335750Y-115229999D01*
X146900000Y-115233071D01*
X147024482Y-115220811D01*
X147144180Y-115184501D01*
X147254494Y-115125536D01*
X147351185Y-115046184D01*
X147430537Y-114949493D01*
X147489502Y-114839179D01*
X147525812Y-114719481D01*
X147538072Y-114594999D01*
X148371928Y-114594999D01*
X148384188Y-114719481D01*
X148420498Y-114839179D01*
X148479463Y-114949493D01*
X148558815Y-115046184D01*
X148655506Y-115125536D01*
X148765820Y-115184501D01*
X148885518Y-115220811D01*
X149010000Y-115233071D01*
X149574250Y-115229999D01*
X149733000Y-115071249D01*
X149733000Y-113871999D01*
X149987000Y-113871999D01*
X149987000Y-115071249D01*
X150145750Y-115229999D01*
X150710000Y-115233071D01*
X150834482Y-115220811D01*
X150954180Y-115184501D01*
X151064494Y-115125536D01*
X151161185Y-115046184D01*
X151240537Y-114949493D01*
X151299502Y-114839179D01*
X151335812Y-114719481D01*
X151348072Y-114594999D01*
X152181928Y-114594999D01*
X152194188Y-114719481D01*
X152230498Y-114839179D01*
X152289463Y-114949493D01*
X152368815Y-115046184D01*
X152465506Y-115125536D01*
X152575820Y-115184501D01*
X152695518Y-115220811D01*
X152820000Y-115233071D01*
X153384250Y-115229999D01*
X153543000Y-115071249D01*
X153543000Y-113871999D01*
X153797000Y-113871999D01*
X153797000Y-115071249D01*
X153955750Y-115229999D01*
X154520000Y-115233071D01*
X154644482Y-115220811D01*
X154764180Y-115184501D01*
X154874494Y-115125536D01*
X154971185Y-115046184D01*
X155050537Y-114949493D01*
X155109502Y-114839179D01*
X155145812Y-114719481D01*
X155158072Y-114594999D01*
X155991928Y-114594999D01*
X156004188Y-114719481D01*
X156040498Y-114839179D01*
X156099463Y-114949493D01*
X156178815Y-115046184D01*
X156275506Y-115125536D01*
X156385820Y-115184501D01*
X156505518Y-115220811D01*
X156630000Y-115233071D01*
X157194250Y-115229999D01*
X157353000Y-115071249D01*
X157353000Y-113871999D01*
X157607000Y-113871999D01*
X157607000Y-115071249D01*
X157765750Y-115229999D01*
X158330000Y-115233071D01*
X158454482Y-115220811D01*
X158574180Y-115184501D01*
X158684494Y-115125536D01*
X158781185Y-115046184D01*
X158860537Y-114949493D01*
X158919502Y-114839179D01*
X158955812Y-114719481D01*
X158968072Y-114594999D01*
X159801928Y-114594999D01*
X159814188Y-114719481D01*
X159850498Y-114839179D01*
X159909463Y-114949493D01*
X159988815Y-115046184D01*
X160085506Y-115125536D01*
X160195820Y-115184501D01*
X160315518Y-115220811D01*
X160440000Y-115233071D01*
X161004250Y-115229999D01*
X161163000Y-115071249D01*
X161163000Y-113871999D01*
X161417000Y-113871999D01*
X161417000Y-115071249D01*
X161575750Y-115229999D01*
X162140000Y-115233071D01*
X162264482Y-115220811D01*
X162384180Y-115184501D01*
X162494494Y-115125536D01*
X162591185Y-115046184D01*
X162670537Y-114949493D01*
X162729502Y-114839179D01*
X162765812Y-114719481D01*
X162778072Y-114594999D01*
X163611928Y-114594999D01*
X163624188Y-114719481D01*
X163660498Y-114839179D01*
X163719463Y-114949493D01*
X163798815Y-115046184D01*
X163895506Y-115125536D01*
X164005820Y-115184501D01*
X164125518Y-115220811D01*
X164250000Y-115233071D01*
X164814250Y-115229999D01*
X164973000Y-115071249D01*
X164973000Y-113871999D01*
X165227000Y-113871999D01*
X165227000Y-115071249D01*
X165385750Y-115229999D01*
X165950000Y-115233071D01*
X166074482Y-115220811D01*
X166194180Y-115184501D01*
X166304494Y-115125536D01*
X166401185Y-115046184D01*
X166480537Y-114949493D01*
X166539502Y-114839179D01*
X166575812Y-114719481D01*
X166588072Y-114594999D01*
X167421928Y-114594999D01*
X167434188Y-114719481D01*
X167470498Y-114839179D01*
X167529463Y-114949493D01*
X167608815Y-115046184D01*
X167705506Y-115125536D01*
X167815820Y-115184501D01*
X167935518Y-115220811D01*
X168060000Y-115233071D01*
X168624250Y-115229999D01*
X168783000Y-115071249D01*
X168783000Y-113871999D01*
X169037000Y-113871999D01*
X169037000Y-115071249D01*
X169195750Y-115229999D01*
X169760000Y-115233071D01*
X169884482Y-115220811D01*
X170004180Y-115184501D01*
X170114494Y-115125536D01*
X170211185Y-115046184D01*
X170290537Y-114949493D01*
X170349502Y-114839179D01*
X170385812Y-114719481D01*
X170398072Y-114594999D01*
X170395000Y-114030749D01*
X170236250Y-113871999D01*
X169037000Y-113871999D01*
X168783000Y-113871999D01*
X167583750Y-113871999D01*
X167425000Y-114030749D01*
X167421928Y-114594999D01*
X166588072Y-114594999D01*
X166585000Y-114030749D01*
X166426250Y-113871999D01*
X165227000Y-113871999D01*
X164973000Y-113871999D01*
X163773750Y-113871999D01*
X163615000Y-114030749D01*
X163611928Y-114594999D01*
X162778072Y-114594999D01*
X162775000Y-114030749D01*
X162616250Y-113871999D01*
X161417000Y-113871999D01*
X161163000Y-113871999D01*
X159963750Y-113871999D01*
X159805000Y-114030749D01*
X159801928Y-114594999D01*
X158968072Y-114594999D01*
X158965000Y-114030749D01*
X158806250Y-113871999D01*
X157607000Y-113871999D01*
X157353000Y-113871999D01*
X156153750Y-113871999D01*
X155995000Y-114030749D01*
X155991928Y-114594999D01*
X155158072Y-114594999D01*
X155155000Y-114030749D01*
X154996250Y-113871999D01*
X153797000Y-113871999D01*
X153543000Y-113871999D01*
X152343750Y-113871999D01*
X152185000Y-114030749D01*
X152181928Y-114594999D01*
X151348072Y-114594999D01*
X151345000Y-114030749D01*
X151186250Y-113871999D01*
X149987000Y-113871999D01*
X149733000Y-113871999D01*
X148533750Y-113871999D01*
X148375000Y-114030749D01*
X148371928Y-114594999D01*
X147538072Y-114594999D01*
X147535000Y-114030749D01*
X147376250Y-113871999D01*
X146177000Y-113871999D01*
X145923000Y-113871999D01*
X144723750Y-113871999D01*
X144565000Y-114030749D01*
X144561928Y-114594999D01*
X143728072Y-114594999D01*
X143725000Y-114030749D01*
X143566250Y-113871999D01*
X142367000Y-113871999D01*
X142113000Y-113871999D01*
X140913750Y-113871999D01*
X140755000Y-114030749D01*
X140751928Y-114594999D01*
X118795000Y-114594999D01*
X118795000Y-96309721D01*
X119915000Y-96309721D01*
X119915000Y-96730279D01*
X119997047Y-97142756D01*
X120157988Y-97531302D01*
X120391637Y-97880983D01*
X120689017Y-98178363D01*
X121038698Y-98412012D01*
X121427244Y-98572953D01*
X121839721Y-98655000D01*
X122260279Y-98655000D01*
X122672756Y-98572953D01*
X123061302Y-98412012D01*
X123410983Y-98178363D01*
X123708363Y-97880983D01*
X123942012Y-97531302D01*
X124102953Y-97142756D01*
X124185000Y-96730279D01*
X124185000Y-96309721D01*
X124102953Y-95897244D01*
X123942012Y-95508698D01*
X123708363Y-95159017D01*
X123410983Y-94861637D01*
X123061302Y-94627988D01*
X122672756Y-94467047D01*
X122260279Y-94385000D01*
X121839721Y-94385000D01*
X121427244Y-94467047D01*
X121038698Y-94627988D01*
X120689017Y-94861637D01*
X120391637Y-95159017D01*
X120157988Y-95508698D01*
X119997047Y-95897244D01*
X119915000Y-96309721D01*
X118795000Y-96309721D01*
X118795000Y-85270042D01*
X118840025Y-85354277D01*
X118905186Y-85433675D01*
X118934999Y-85470002D01*
X118963997Y-85493800D01*
X128935001Y-95464805D01*
X128935000Y-97190198D01*
X120176749Y-105948450D01*
X120077433Y-105978577D01*
X119926058Y-106059488D01*
X119793377Y-106168377D01*
X119684488Y-106301058D01*
X119603577Y-106452433D01*
X119553752Y-106616684D01*
X119536928Y-106787500D01*
X119536928Y-107362500D01*
X119553752Y-107533316D01*
X119603577Y-107697567D01*
X119684488Y-107848942D01*
X119767425Y-107950000D01*
X119684488Y-108051058D01*
X119603577Y-108202433D01*
X119553752Y-108366684D01*
X119536928Y-108537500D01*
X119536928Y-109112500D01*
X119553752Y-109283316D01*
X119603577Y-109447567D01*
X119684488Y-109598942D01*
X119793377Y-109731623D01*
X119926058Y-109840512D01*
X120077433Y-109921423D01*
X120176749Y-109951550D01*
X122954700Y-112729502D01*
X122925000Y-112878816D01*
X122925000Y-113181184D01*
X122983989Y-113477743D01*
X123099701Y-113757095D01*
X123267688Y-114008505D01*
X123481495Y-114222312D01*
X123732905Y-114390299D01*
X124012257Y-114506011D01*
X124308816Y-114565000D01*
X124611184Y-114565000D01*
X124907743Y-114506011D01*
X125187095Y-114390299D01*
X125438505Y-114222312D01*
X125652312Y-114008505D01*
X125820299Y-113757095D01*
X125936011Y-113477743D01*
X125995000Y-113181184D01*
X125995000Y-112878816D01*
X125943731Y-112621070D01*
X126599803Y-111964999D01*
X133387679Y-111964999D01*
X133425001Y-111968675D01*
X133462323Y-111964999D01*
X140961822Y-111964999D01*
X141086525Y-112151631D01*
X141218380Y-112283486D01*
X141145820Y-112305497D01*
X141035506Y-112364462D01*
X140938815Y-112443814D01*
X140859463Y-112540505D01*
X140800498Y-112650819D01*
X140764188Y-112770517D01*
X140751928Y-112894999D01*
X140755000Y-113459249D01*
X140913750Y-113617999D01*
X142113000Y-113617999D01*
X142113000Y-113597999D01*
X142367000Y-113597999D01*
X142367000Y-113617999D01*
X143566250Y-113617999D01*
X143725000Y-113459249D01*
X143728072Y-112894999D01*
X143715812Y-112770517D01*
X143679502Y-112650819D01*
X143620537Y-112540505D01*
X143541185Y-112443814D01*
X143444494Y-112364462D01*
X143334180Y-112305497D01*
X143261620Y-112283486D01*
X143393475Y-112151631D01*
X143518178Y-111964999D01*
X144771822Y-111964999D01*
X144896525Y-112151631D01*
X145028380Y-112283486D01*
X144955820Y-112305497D01*
X144845506Y-112364462D01*
X144748815Y-112443814D01*
X144669463Y-112540505D01*
X144610498Y-112650819D01*
X144574188Y-112770517D01*
X144561928Y-112894999D01*
X144565000Y-113459249D01*
X144723750Y-113617999D01*
X145923000Y-113617999D01*
X145923000Y-113597999D01*
X146177000Y-113597999D01*
X146177000Y-113617999D01*
X147376250Y-113617999D01*
X147535000Y-113459249D01*
X147538072Y-112894999D01*
X147525812Y-112770517D01*
X147489502Y-112650819D01*
X147430537Y-112540505D01*
X147351185Y-112443814D01*
X147254494Y-112364462D01*
X147144180Y-112305497D01*
X147071620Y-112283486D01*
X147203475Y-112151631D01*
X147328178Y-111964999D01*
X148581822Y-111964999D01*
X148706525Y-112151631D01*
X148838380Y-112283486D01*
X148765820Y-112305497D01*
X148655506Y-112364462D01*
X148558815Y-112443814D01*
X148479463Y-112540505D01*
X148420498Y-112650819D01*
X148384188Y-112770517D01*
X148371928Y-112894999D01*
X148375000Y-113459249D01*
X148533750Y-113617999D01*
X149733000Y-113617999D01*
X149733000Y-113597999D01*
X149987000Y-113597999D01*
X149987000Y-113617999D01*
X151186250Y-113617999D01*
X151345000Y-113459249D01*
X151348072Y-112894999D01*
X151335812Y-112770517D01*
X151299502Y-112650819D01*
X151240537Y-112540505D01*
X151161185Y-112443814D01*
X151064494Y-112364462D01*
X150954180Y-112305497D01*
X150881620Y-112283486D01*
X151013475Y-112151631D01*
X151138178Y-111964999D01*
X152391822Y-111964999D01*
X152516525Y-112151631D01*
X152648380Y-112283486D01*
X152575820Y-112305497D01*
X152465506Y-112364462D01*
X152368815Y-112443814D01*
X152289463Y-112540505D01*
X152230498Y-112650819D01*
X152194188Y-112770517D01*
X152181928Y-112894999D01*
X152185000Y-113459249D01*
X152343750Y-113617999D01*
X153543000Y-113617999D01*
X153543000Y-113597999D01*
X153797000Y-113597999D01*
X153797000Y-113617999D01*
X154996250Y-113617999D01*
X155155000Y-113459249D01*
X155158072Y-112894999D01*
X155145812Y-112770517D01*
X155109502Y-112650819D01*
X155050537Y-112540505D01*
X154971185Y-112443814D01*
X154874494Y-112364462D01*
X154764180Y-112305497D01*
X154691620Y-112283486D01*
X154823475Y-112151631D01*
X154948178Y-111964999D01*
X156201822Y-111964999D01*
X156326525Y-112151631D01*
X156458380Y-112283486D01*
X156385820Y-112305497D01*
X156275506Y-112364462D01*
X156178815Y-112443814D01*
X156099463Y-112540505D01*
X156040498Y-112650819D01*
X156004188Y-112770517D01*
X155991928Y-112894999D01*
X155995000Y-113459249D01*
X156153750Y-113617999D01*
X157353000Y-113617999D01*
X157353000Y-113597999D01*
X157607000Y-113597999D01*
X157607000Y-113617999D01*
X158806250Y-113617999D01*
X158965000Y-113459249D01*
X158968072Y-112894999D01*
X158955812Y-112770517D01*
X158919502Y-112650819D01*
X158860537Y-112540505D01*
X158781185Y-112443814D01*
X158684494Y-112364462D01*
X158574180Y-112305497D01*
X158501620Y-112283486D01*
X158633475Y-112151631D01*
X158758178Y-111964999D01*
X160011822Y-111964999D01*
X160136525Y-112151631D01*
X160268380Y-112283486D01*
X160195820Y-112305497D01*
X160085506Y-112364462D01*
X159988815Y-112443814D01*
X159909463Y-112540505D01*
X159850498Y-112650819D01*
X159814188Y-112770517D01*
X159801928Y-112894999D01*
X159805000Y-113459249D01*
X159963750Y-113617999D01*
X161163000Y-113617999D01*
X161163000Y-113597999D01*
X161417000Y-113597999D01*
X161417000Y-113617999D01*
X162616250Y-113617999D01*
X162775000Y-113459249D01*
X162778072Y-112894999D01*
X162765812Y-112770517D01*
X162729502Y-112650819D01*
X162670537Y-112540505D01*
X162591185Y-112443814D01*
X162494494Y-112364462D01*
X162384180Y-112305497D01*
X162311620Y-112283486D01*
X162443475Y-112151631D01*
X162568178Y-111964999D01*
X163821822Y-111964999D01*
X163946525Y-112151631D01*
X164078380Y-112283486D01*
X164005820Y-112305497D01*
X163895506Y-112364462D01*
X163798815Y-112443814D01*
X163719463Y-112540505D01*
X163660498Y-112650819D01*
X163624188Y-112770517D01*
X163611928Y-112894999D01*
X163615000Y-113459249D01*
X163773750Y-113617999D01*
X164973000Y-113617999D01*
X164973000Y-113597999D01*
X165227000Y-113597999D01*
X165227000Y-113617999D01*
X166426250Y-113617999D01*
X166585000Y-113459249D01*
X166588072Y-112894999D01*
X166575812Y-112770517D01*
X166539502Y-112650819D01*
X166480537Y-112540505D01*
X166401185Y-112443814D01*
X166304494Y-112364462D01*
X166194180Y-112305497D01*
X166121620Y-112283486D01*
X166253475Y-112151631D01*
X166378178Y-111964999D01*
X167631822Y-111964999D01*
X167756525Y-112151631D01*
X167888380Y-112283486D01*
X167815820Y-112305497D01*
X167705506Y-112364462D01*
X167608815Y-112443814D01*
X167529463Y-112540505D01*
X167470498Y-112650819D01*
X167434188Y-112770517D01*
X167421928Y-112894999D01*
X167425000Y-113459249D01*
X167583750Y-113617999D01*
X168783000Y-113617999D01*
X168783000Y-113597999D01*
X169037000Y-113597999D01*
X169037000Y-113617999D01*
X170236250Y-113617999D01*
X170395000Y-113459249D01*
X170398072Y-112894999D01*
X170385812Y-112770517D01*
X170349502Y-112650819D01*
X170290537Y-112540505D01*
X170211185Y-112443814D01*
X170114494Y-112364462D01*
X170004180Y-112305497D01*
X169931620Y-112283486D01*
X170063475Y-112151631D01*
X170225990Y-111908410D01*
X170337932Y-111638157D01*
X170395000Y-111351259D01*
X170395000Y-111058739D01*
X170337932Y-110771841D01*
X170225990Y-110501588D01*
X170063475Y-110258367D01*
X169856632Y-110051524D01*
X169682240Y-109934999D01*
X169856632Y-109818474D01*
X170063475Y-109611631D01*
X170225990Y-109368410D01*
X170337932Y-109098157D01*
X170395000Y-108811259D01*
X170395000Y-108518739D01*
X170337932Y-108231841D01*
X170225990Y-107961588D01*
X170063475Y-107718367D01*
X169856632Y-107511524D01*
X169670000Y-107386821D01*
X169670000Y-101950901D01*
X169711101Y-101928932D01*
X169929608Y-101749608D01*
X170108932Y-101531101D01*
X170242182Y-101281808D01*
X170324236Y-101011309D01*
X170345000Y-100800491D01*
X170345000Y-99859508D01*
X170324236Y-99648691D01*
X170242182Y-99378192D01*
X170139988Y-99187000D01*
X170180000Y-99187000D01*
X170204776Y-99184560D01*
X170228601Y-99177333D01*
X170250557Y-99165597D01*
X170269803Y-99149803D01*
X170285597Y-99130557D01*
X170297333Y-99108601D01*
X170304560Y-99084776D01*
X170307000Y-99060000D01*
X170307000Y-93980000D01*
X170304560Y-93955224D01*
X170297333Y-93931399D01*
X170285597Y-93909443D01*
X170269803Y-93890197D01*
X170250557Y-93874403D01*
X170228601Y-93862667D01*
X170204776Y-93855440D01*
X170180000Y-93853000D01*
X170137128Y-93853000D01*
X170187166Y-93776483D01*
X170292650Y-93514514D01*
X170345000Y-93237000D01*
X170345000Y-92837000D01*
X169037000Y-92837000D01*
X169037000Y-92857000D01*
X168783000Y-92857000D01*
X168783000Y-92837000D01*
X168763000Y-92837000D01*
X168763000Y-92583000D01*
X168783000Y-92583000D01*
X168783000Y-91040085D01*
X169037000Y-91040085D01*
X169037000Y-92583000D01*
X170345000Y-92583000D01*
X170345000Y-92183000D01*
X170292650Y-91905486D01*
X170187166Y-91643517D01*
X170032601Y-91407161D01*
X169834895Y-91205500D01*
X169601646Y-91046285D01*
X169341818Y-90935633D01*
X169259039Y-90918096D01*
X169037000Y-91040085D01*
X168783000Y-91040085D01*
X168560961Y-90918096D01*
X168478182Y-90935633D01*
X168218354Y-91046285D01*
X167985105Y-91205500D01*
X167787399Y-91407161D01*
X167637265Y-91636741D01*
X167568932Y-91508899D01*
X167389607Y-91290392D01*
X167171100Y-91111068D01*
X167108941Y-91077843D01*
X167075546Y-90967753D01*
X167058377Y-90935633D01*
X167004974Y-90835723D01*
X166933799Y-90748997D01*
X166933798Y-90748996D01*
X166910001Y-90719999D01*
X166881003Y-90696201D01*
X161480918Y-85296117D01*
X161723158Y-85247932D01*
X161993411Y-85135990D01*
X162236632Y-84973475D01*
X162443475Y-84766632D01*
X162560000Y-84592240D01*
X162676525Y-84766632D01*
X162883368Y-84973475D01*
X163126589Y-85135990D01*
X163396842Y-85247932D01*
X163683740Y-85305000D01*
X163976260Y-85305000D01*
X164263158Y-85247932D01*
X164533411Y-85135990D01*
X164776632Y-84973475D01*
X164983475Y-84766632D01*
X165100000Y-84592240D01*
X165216525Y-84766632D01*
X165423368Y-84973475D01*
X165666589Y-85135990D01*
X165936842Y-85247932D01*
X166223740Y-85305000D01*
X166516260Y-85305000D01*
X166803158Y-85247932D01*
X167073411Y-85135990D01*
X167316632Y-84973475D01*
X167523475Y-84766632D01*
X167640000Y-84592240D01*
X167756525Y-84766632D01*
X167963368Y-84973475D01*
X168206589Y-85135990D01*
X168476842Y-85247932D01*
X168763740Y-85305000D01*
X169056260Y-85305000D01*
X169343158Y-85247932D01*
X169613411Y-85135990D01*
X169856632Y-84973475D01*
X170063475Y-84766632D01*
X170225990Y-84523411D01*
X170337932Y-84253158D01*
X170395000Y-83966260D01*
X170395000Y-83673740D01*
X170337932Y-83386842D01*
X170225990Y-83116589D01*
X170063475Y-82873368D01*
X169856632Y-82666525D01*
X169682240Y-82550000D01*
X169856632Y-82433475D01*
X170063475Y-82226632D01*
X170225990Y-81983411D01*
X170337932Y-81713158D01*
X170395000Y-81426260D01*
X170395000Y-81133740D01*
X170337932Y-80846842D01*
X170225990Y-80576589D01*
X170063475Y-80333368D01*
X169856632Y-80126525D01*
X169613411Y-79964010D01*
X169343158Y-79852068D01*
X169056260Y-79795000D01*
X168763740Y-79795000D01*
X168476842Y-79852068D01*
X168206589Y-79964010D01*
X167963368Y-80126525D01*
X167756525Y-80333368D01*
X167640000Y-80507760D01*
X167523475Y-80333368D01*
X167316632Y-80126525D01*
X167073411Y-79964010D01*
X166803158Y-79852068D01*
X166516260Y-79795000D01*
X166223740Y-79795000D01*
X165936842Y-79852068D01*
X165666589Y-79964010D01*
X165423368Y-80126525D01*
X165216525Y-80333368D01*
X165100000Y-80507760D01*
X164983475Y-80333368D01*
X164776632Y-80126525D01*
X164533411Y-79964010D01*
X164263158Y-79852068D01*
X163976260Y-79795000D01*
X163683740Y-79795000D01*
X163396842Y-79852068D01*
X163126589Y-79964010D01*
X162883368Y-80126525D01*
X162676525Y-80333368D01*
X162560000Y-80507760D01*
X162443475Y-80333368D01*
X162236632Y-80126525D01*
X161993411Y-79964010D01*
X161723158Y-79852068D01*
X161436260Y-79795000D01*
X161143740Y-79795000D01*
X160856842Y-79852068D01*
X160586589Y-79964010D01*
X160343368Y-80126525D01*
X160136525Y-80333368D01*
X160020000Y-80507760D01*
X159903475Y-80333368D01*
X159696632Y-80126525D01*
X159453411Y-79964010D01*
X159183158Y-79852068D01*
X158896260Y-79795000D01*
X158603740Y-79795000D01*
X158316842Y-79852068D01*
X158046589Y-79964010D01*
X157843509Y-80099704D01*
X157337804Y-79594001D01*
X157314002Y-79564998D01*
X157198277Y-79470025D01*
X157114042Y-79425000D01*
X170765000Y-79425000D01*
X170765001Y-117425000D01*
G37*
X170765001Y-117425000D02*
X118795000Y-117425000D01*
X118795000Y-114594999D01*
X140751928Y-114594999D01*
X140764188Y-114719481D01*
X140800498Y-114839179D01*
X140859463Y-114949493D01*
X140938815Y-115046184D01*
X141035506Y-115125536D01*
X141145820Y-115184501D01*
X141265518Y-115220811D01*
X141390000Y-115233071D01*
X141954250Y-115229999D01*
X142113000Y-115071249D01*
X142113000Y-113871999D01*
X142367000Y-113871999D01*
X142367000Y-115071249D01*
X142525750Y-115229999D01*
X143090000Y-115233071D01*
X143214482Y-115220811D01*
X143334180Y-115184501D01*
X143444494Y-115125536D01*
X143541185Y-115046184D01*
X143620537Y-114949493D01*
X143679502Y-114839179D01*
X143715812Y-114719481D01*
X143728072Y-114594999D01*
X144561928Y-114594999D01*
X144574188Y-114719481D01*
X144610498Y-114839179D01*
X144669463Y-114949493D01*
X144748815Y-115046184D01*
X144845506Y-115125536D01*
X144955820Y-115184501D01*
X145075518Y-115220811D01*
X145200000Y-115233071D01*
X145764250Y-115229999D01*
X145923000Y-115071249D01*
X145923000Y-113871999D01*
X146177000Y-113871999D01*
X146177000Y-115071249D01*
X146335750Y-115229999D01*
X146900000Y-115233071D01*
X147024482Y-115220811D01*
X147144180Y-115184501D01*
X147254494Y-115125536D01*
X147351185Y-115046184D01*
X147430537Y-114949493D01*
X147489502Y-114839179D01*
X147525812Y-114719481D01*
X147538072Y-114594999D01*
X148371928Y-114594999D01*
X148384188Y-114719481D01*
X148420498Y-114839179D01*
X148479463Y-114949493D01*
X148558815Y-115046184D01*
X148655506Y-115125536D01*
X148765820Y-115184501D01*
X148885518Y-115220811D01*
X149010000Y-115233071D01*
X149574250Y-115229999D01*
X149733000Y-115071249D01*
X149733000Y-113871999D01*
X149987000Y-113871999D01*
X149987000Y-115071249D01*
X150145750Y-115229999D01*
X150710000Y-115233071D01*
X150834482Y-115220811D01*
X150954180Y-115184501D01*
X151064494Y-115125536D01*
X151161185Y-115046184D01*
X151240537Y-114949493D01*
X151299502Y-114839179D01*
X151335812Y-114719481D01*
X151348072Y-114594999D01*
X152181928Y-114594999D01*
X152194188Y-114719481D01*
X152230498Y-114839179D01*
X152289463Y-114949493D01*
X152368815Y-115046184D01*
X152465506Y-115125536D01*
X152575820Y-115184501D01*
X152695518Y-115220811D01*
X152820000Y-115233071D01*
X153384250Y-115229999D01*
X153543000Y-115071249D01*
X153543000Y-113871999D01*
X153797000Y-113871999D01*
X153797000Y-115071249D01*
X153955750Y-115229999D01*
X154520000Y-115233071D01*
X154644482Y-115220811D01*
X154764180Y-115184501D01*
X154874494Y-115125536D01*
X154971185Y-115046184D01*
X155050537Y-114949493D01*
X155109502Y-114839179D01*
X155145812Y-114719481D01*
X155158072Y-114594999D01*
X155991928Y-114594999D01*
X156004188Y-114719481D01*
X156040498Y-114839179D01*
X156099463Y-114949493D01*
X156178815Y-115046184D01*
X156275506Y-115125536D01*
X156385820Y-115184501D01*
X156505518Y-115220811D01*
X156630000Y-115233071D01*
X157194250Y-115229999D01*
X157353000Y-115071249D01*
X157353000Y-113871999D01*
X157607000Y-113871999D01*
X157607000Y-115071249D01*
X157765750Y-115229999D01*
X158330000Y-115233071D01*
X158454482Y-115220811D01*
X158574180Y-115184501D01*
X158684494Y-115125536D01*
X158781185Y-115046184D01*
X158860537Y-114949493D01*
X158919502Y-114839179D01*
X158955812Y-114719481D01*
X158968072Y-114594999D01*
X159801928Y-114594999D01*
X159814188Y-114719481D01*
X159850498Y-114839179D01*
X159909463Y-114949493D01*
X159988815Y-115046184D01*
X160085506Y-115125536D01*
X160195820Y-115184501D01*
X160315518Y-115220811D01*
X160440000Y-115233071D01*
X161004250Y-115229999D01*
X161163000Y-115071249D01*
X161163000Y-113871999D01*
X161417000Y-113871999D01*
X161417000Y-115071249D01*
X161575750Y-115229999D01*
X162140000Y-115233071D01*
X162264482Y-115220811D01*
X162384180Y-115184501D01*
X162494494Y-115125536D01*
X162591185Y-115046184D01*
X162670537Y-114949493D01*
X162729502Y-114839179D01*
X162765812Y-114719481D01*
X162778072Y-114594999D01*
X163611928Y-114594999D01*
X163624188Y-114719481D01*
X163660498Y-114839179D01*
X163719463Y-114949493D01*
X163798815Y-115046184D01*
X163895506Y-115125536D01*
X164005820Y-115184501D01*
X164125518Y-115220811D01*
X164250000Y-115233071D01*
X164814250Y-115229999D01*
X164973000Y-115071249D01*
X164973000Y-113871999D01*
X165227000Y-113871999D01*
X165227000Y-115071249D01*
X165385750Y-115229999D01*
X165950000Y-115233071D01*
X166074482Y-115220811D01*
X166194180Y-115184501D01*
X166304494Y-115125536D01*
X166401185Y-115046184D01*
X166480537Y-114949493D01*
X166539502Y-114839179D01*
X166575812Y-114719481D01*
X166588072Y-114594999D01*
X167421928Y-114594999D01*
X167434188Y-114719481D01*
X167470498Y-114839179D01*
X167529463Y-114949493D01*
X167608815Y-115046184D01*
X167705506Y-115125536D01*
X167815820Y-115184501D01*
X167935518Y-115220811D01*
X168060000Y-115233071D01*
X168624250Y-115229999D01*
X168783000Y-115071249D01*
X168783000Y-113871999D01*
X169037000Y-113871999D01*
X169037000Y-115071249D01*
X169195750Y-115229999D01*
X169760000Y-115233071D01*
X169884482Y-115220811D01*
X170004180Y-115184501D01*
X170114494Y-115125536D01*
X170211185Y-115046184D01*
X170290537Y-114949493D01*
X170349502Y-114839179D01*
X170385812Y-114719481D01*
X170398072Y-114594999D01*
X170395000Y-114030749D01*
X170236250Y-113871999D01*
X169037000Y-113871999D01*
X168783000Y-113871999D01*
X167583750Y-113871999D01*
X167425000Y-114030749D01*
X167421928Y-114594999D01*
X166588072Y-114594999D01*
X166585000Y-114030749D01*
X166426250Y-113871999D01*
X165227000Y-113871999D01*
X164973000Y-113871999D01*
X163773750Y-113871999D01*
X163615000Y-114030749D01*
X163611928Y-114594999D01*
X162778072Y-114594999D01*
X162775000Y-114030749D01*
X162616250Y-113871999D01*
X161417000Y-113871999D01*
X161163000Y-113871999D01*
X159963750Y-113871999D01*
X159805000Y-114030749D01*
X159801928Y-114594999D01*
X158968072Y-114594999D01*
X158965000Y-114030749D01*
X158806250Y-113871999D01*
X157607000Y-113871999D01*
X157353000Y-113871999D01*
X156153750Y-113871999D01*
X155995000Y-114030749D01*
X155991928Y-114594999D01*
X155158072Y-114594999D01*
X155155000Y-114030749D01*
X154996250Y-113871999D01*
X153797000Y-113871999D01*
X153543000Y-113871999D01*
X152343750Y-113871999D01*
X152185000Y-114030749D01*
X152181928Y-114594999D01*
X151348072Y-114594999D01*
X151345000Y-114030749D01*
X151186250Y-113871999D01*
X149987000Y-113871999D01*
X149733000Y-113871999D01*
X148533750Y-113871999D01*
X148375000Y-114030749D01*
X148371928Y-114594999D01*
X147538072Y-114594999D01*
X147535000Y-114030749D01*
X147376250Y-113871999D01*
X146177000Y-113871999D01*
X145923000Y-113871999D01*
X144723750Y-113871999D01*
X144565000Y-114030749D01*
X144561928Y-114594999D01*
X143728072Y-114594999D01*
X143725000Y-114030749D01*
X143566250Y-113871999D01*
X142367000Y-113871999D01*
X142113000Y-113871999D01*
X140913750Y-113871999D01*
X140755000Y-114030749D01*
X140751928Y-114594999D01*
X118795000Y-114594999D01*
X118795000Y-96309721D01*
X119915000Y-96309721D01*
X119915000Y-96730279D01*
X119997047Y-97142756D01*
X120157988Y-97531302D01*
X120391637Y-97880983D01*
X120689017Y-98178363D01*
X121038698Y-98412012D01*
X121427244Y-98572953D01*
X121839721Y-98655000D01*
X122260279Y-98655000D01*
X122672756Y-98572953D01*
X123061302Y-98412012D01*
X123410983Y-98178363D01*
X123708363Y-97880983D01*
X123942012Y-97531302D01*
X124102953Y-97142756D01*
X124185000Y-96730279D01*
X124185000Y-96309721D01*
X124102953Y-95897244D01*
X123942012Y-95508698D01*
X123708363Y-95159017D01*
X123410983Y-94861637D01*
X123061302Y-94627988D01*
X122672756Y-94467047D01*
X122260279Y-94385000D01*
X121839721Y-94385000D01*
X121427244Y-94467047D01*
X121038698Y-94627988D01*
X120689017Y-94861637D01*
X120391637Y-95159017D01*
X120157988Y-95508698D01*
X119997047Y-95897244D01*
X119915000Y-96309721D01*
X118795000Y-96309721D01*
X118795000Y-85270042D01*
X118840025Y-85354277D01*
X118905186Y-85433675D01*
X118934999Y-85470002D01*
X118963997Y-85493800D01*
X128935001Y-95464805D01*
X128935000Y-97190198D01*
X120176749Y-105948450D01*
X120077433Y-105978577D01*
X119926058Y-106059488D01*
X119793377Y-106168377D01*
X119684488Y-106301058D01*
X119603577Y-106452433D01*
X119553752Y-106616684D01*
X119536928Y-106787500D01*
X119536928Y-107362500D01*
X119553752Y-107533316D01*
X119603577Y-107697567D01*
X119684488Y-107848942D01*
X119767425Y-107950000D01*
X119684488Y-108051058D01*
X119603577Y-108202433D01*
X119553752Y-108366684D01*
X119536928Y-108537500D01*
X119536928Y-109112500D01*
X119553752Y-109283316D01*
X119603577Y-109447567D01*
X119684488Y-109598942D01*
X119793377Y-109731623D01*
X119926058Y-109840512D01*
X120077433Y-109921423D01*
X120176749Y-109951550D01*
X122954700Y-112729502D01*
X122925000Y-112878816D01*
X122925000Y-113181184D01*
X122983989Y-113477743D01*
X123099701Y-113757095D01*
X123267688Y-114008505D01*
X123481495Y-114222312D01*
X123732905Y-114390299D01*
X124012257Y-114506011D01*
X124308816Y-114565000D01*
X124611184Y-114565000D01*
X124907743Y-114506011D01*
X125187095Y-114390299D01*
X125438505Y-114222312D01*
X125652312Y-114008505D01*
X125820299Y-113757095D01*
X125936011Y-113477743D01*
X125995000Y-113181184D01*
X125995000Y-112878816D01*
X125943731Y-112621070D01*
X126599803Y-111964999D01*
X133387679Y-111964999D01*
X133425001Y-111968675D01*
X133462323Y-111964999D01*
X140961822Y-111964999D01*
X141086525Y-112151631D01*
X141218380Y-112283486D01*
X141145820Y-112305497D01*
X141035506Y-112364462D01*
X140938815Y-112443814D01*
X140859463Y-112540505D01*
X140800498Y-112650819D01*
X140764188Y-112770517D01*
X140751928Y-112894999D01*
X140755000Y-113459249D01*
X140913750Y-113617999D01*
X142113000Y-113617999D01*
X142113000Y-113597999D01*
X142367000Y-113597999D01*
X142367000Y-113617999D01*
X143566250Y-113617999D01*
X143725000Y-113459249D01*
X143728072Y-112894999D01*
X143715812Y-112770517D01*
X143679502Y-112650819D01*
X143620537Y-112540505D01*
X143541185Y-112443814D01*
X143444494Y-112364462D01*
X143334180Y-112305497D01*
X143261620Y-112283486D01*
X143393475Y-112151631D01*
X143518178Y-111964999D01*
X144771822Y-111964999D01*
X144896525Y-112151631D01*
X145028380Y-112283486D01*
X144955820Y-112305497D01*
X144845506Y-112364462D01*
X144748815Y-112443814D01*
X144669463Y-112540505D01*
X144610498Y-112650819D01*
X144574188Y-112770517D01*
X144561928Y-112894999D01*
X144565000Y-113459249D01*
X144723750Y-113617999D01*
X145923000Y-113617999D01*
X145923000Y-113597999D01*
X146177000Y-113597999D01*
X146177000Y-113617999D01*
X147376250Y-113617999D01*
X147535000Y-113459249D01*
X147538072Y-112894999D01*
X147525812Y-112770517D01*
X147489502Y-112650819D01*
X147430537Y-112540505D01*
X147351185Y-112443814D01*
X147254494Y-112364462D01*
X147144180Y-112305497D01*
X147071620Y-112283486D01*
X147203475Y-112151631D01*
X147328178Y-111964999D01*
X148581822Y-111964999D01*
X148706525Y-112151631D01*
X148838380Y-112283486D01*
X148765820Y-112305497D01*
X148655506Y-112364462D01*
X148558815Y-112443814D01*
X148479463Y-112540505D01*
X148420498Y-112650819D01*
X148384188Y-112770517D01*
X148371928Y-112894999D01*
X148375000Y-113459249D01*
X148533750Y-113617999D01*
X149733000Y-113617999D01*
X149733000Y-113597999D01*
X149987000Y-113597999D01*
X149987000Y-113617999D01*
X151186250Y-113617999D01*
X151345000Y-113459249D01*
X151348072Y-112894999D01*
X151335812Y-112770517D01*
X151299502Y-112650819D01*
X151240537Y-112540505D01*
X151161185Y-112443814D01*
X151064494Y-112364462D01*
X150954180Y-112305497D01*
X150881620Y-112283486D01*
X151013475Y-112151631D01*
X151138178Y-111964999D01*
X152391822Y-111964999D01*
X152516525Y-112151631D01*
X152648380Y-112283486D01*
X152575820Y-112305497D01*
X152465506Y-112364462D01*
X152368815Y-112443814D01*
X152289463Y-112540505D01*
X152230498Y-112650819D01*
X152194188Y-112770517D01*
X152181928Y-112894999D01*
X152185000Y-113459249D01*
X152343750Y-113617999D01*
X153543000Y-113617999D01*
X153543000Y-113597999D01*
X153797000Y-113597999D01*
X153797000Y-113617999D01*
X154996250Y-113617999D01*
X155155000Y-113459249D01*
X155158072Y-112894999D01*
X155145812Y-112770517D01*
X155109502Y-112650819D01*
X155050537Y-112540505D01*
X154971185Y-112443814D01*
X154874494Y-112364462D01*
X154764180Y-112305497D01*
X154691620Y-112283486D01*
X154823475Y-112151631D01*
X154948178Y-111964999D01*
X156201822Y-111964999D01*
X156326525Y-112151631D01*
X156458380Y-112283486D01*
X156385820Y-112305497D01*
X156275506Y-112364462D01*
X156178815Y-112443814D01*
X156099463Y-112540505D01*
X156040498Y-112650819D01*
X156004188Y-112770517D01*
X155991928Y-112894999D01*
X155995000Y-113459249D01*
X156153750Y-113617999D01*
X157353000Y-113617999D01*
X157353000Y-113597999D01*
X157607000Y-113597999D01*
X157607000Y-113617999D01*
X158806250Y-113617999D01*
X158965000Y-113459249D01*
X158968072Y-112894999D01*
X158955812Y-112770517D01*
X158919502Y-112650819D01*
X158860537Y-112540505D01*
X158781185Y-112443814D01*
X158684494Y-112364462D01*
X158574180Y-112305497D01*
X158501620Y-112283486D01*
X158633475Y-112151631D01*
X158758178Y-111964999D01*
X160011822Y-111964999D01*
X160136525Y-112151631D01*
X160268380Y-112283486D01*
X160195820Y-112305497D01*
X160085506Y-112364462D01*
X159988815Y-112443814D01*
X159909463Y-112540505D01*
X159850498Y-112650819D01*
X159814188Y-112770517D01*
X159801928Y-112894999D01*
X159805000Y-113459249D01*
X159963750Y-113617999D01*
X161163000Y-113617999D01*
X161163000Y-113597999D01*
X161417000Y-113597999D01*
X161417000Y-113617999D01*
X162616250Y-113617999D01*
X162775000Y-113459249D01*
X162778072Y-112894999D01*
X162765812Y-112770517D01*
X162729502Y-112650819D01*
X162670537Y-112540505D01*
X162591185Y-112443814D01*
X162494494Y-112364462D01*
X162384180Y-112305497D01*
X162311620Y-112283486D01*
X162443475Y-112151631D01*
X162568178Y-111964999D01*
X163821822Y-111964999D01*
X163946525Y-112151631D01*
X164078380Y-112283486D01*
X164005820Y-112305497D01*
X163895506Y-112364462D01*
X163798815Y-112443814D01*
X163719463Y-112540505D01*
X163660498Y-112650819D01*
X163624188Y-112770517D01*
X163611928Y-112894999D01*
X163615000Y-113459249D01*
X163773750Y-113617999D01*
X164973000Y-113617999D01*
X164973000Y-113597999D01*
X165227000Y-113597999D01*
X165227000Y-113617999D01*
X166426250Y-113617999D01*
X166585000Y-113459249D01*
X166588072Y-112894999D01*
X166575812Y-112770517D01*
X166539502Y-112650819D01*
X166480537Y-112540505D01*
X166401185Y-112443814D01*
X166304494Y-112364462D01*
X166194180Y-112305497D01*
X166121620Y-112283486D01*
X166253475Y-112151631D01*
X166378178Y-111964999D01*
X167631822Y-111964999D01*
X167756525Y-112151631D01*
X167888380Y-112283486D01*
X167815820Y-112305497D01*
X167705506Y-112364462D01*
X167608815Y-112443814D01*
X167529463Y-112540505D01*
X167470498Y-112650819D01*
X167434188Y-112770517D01*
X167421928Y-112894999D01*
X167425000Y-113459249D01*
X167583750Y-113617999D01*
X168783000Y-113617999D01*
X168783000Y-113597999D01*
X169037000Y-113597999D01*
X169037000Y-113617999D01*
X170236250Y-113617999D01*
X170395000Y-113459249D01*
X170398072Y-112894999D01*
X170385812Y-112770517D01*
X170349502Y-112650819D01*
X170290537Y-112540505D01*
X170211185Y-112443814D01*
X170114494Y-112364462D01*
X170004180Y-112305497D01*
X169931620Y-112283486D01*
X170063475Y-112151631D01*
X170225990Y-111908410D01*
X170337932Y-111638157D01*
X170395000Y-111351259D01*
X170395000Y-111058739D01*
X170337932Y-110771841D01*
X170225990Y-110501588D01*
X170063475Y-110258367D01*
X169856632Y-110051524D01*
X169682240Y-109934999D01*
X169856632Y-109818474D01*
X170063475Y-109611631D01*
X170225990Y-109368410D01*
X170337932Y-109098157D01*
X170395000Y-108811259D01*
X170395000Y-108518739D01*
X170337932Y-108231841D01*
X170225990Y-107961588D01*
X170063475Y-107718367D01*
X169856632Y-107511524D01*
X169670000Y-107386821D01*
X169670000Y-101950901D01*
X169711101Y-101928932D01*
X169929608Y-101749608D01*
X170108932Y-101531101D01*
X170242182Y-101281808D01*
X170324236Y-101011309D01*
X170345000Y-100800491D01*
X170345000Y-99859508D01*
X170324236Y-99648691D01*
X170242182Y-99378192D01*
X170139988Y-99187000D01*
X170180000Y-99187000D01*
X170204776Y-99184560D01*
X170228601Y-99177333D01*
X170250557Y-99165597D01*
X170269803Y-99149803D01*
X170285597Y-99130557D01*
X170297333Y-99108601D01*
X170304560Y-99084776D01*
X170307000Y-99060000D01*
X170307000Y-93980000D01*
X170304560Y-93955224D01*
X170297333Y-93931399D01*
X170285597Y-93909443D01*
X170269803Y-93890197D01*
X170250557Y-93874403D01*
X170228601Y-93862667D01*
X170204776Y-93855440D01*
X170180000Y-93853000D01*
X170137128Y-93853000D01*
X170187166Y-93776483D01*
X170292650Y-93514514D01*
X170345000Y-93237000D01*
X170345000Y-92837000D01*
X169037000Y-92837000D01*
X169037000Y-92857000D01*
X168783000Y-92857000D01*
X168783000Y-92837000D01*
X168763000Y-92837000D01*
X168763000Y-92583000D01*
X168783000Y-92583000D01*
X168783000Y-91040085D01*
X169037000Y-91040085D01*
X169037000Y-92583000D01*
X170345000Y-92583000D01*
X170345000Y-92183000D01*
X170292650Y-91905486D01*
X170187166Y-91643517D01*
X170032601Y-91407161D01*
X169834895Y-91205500D01*
X169601646Y-91046285D01*
X169341818Y-90935633D01*
X169259039Y-90918096D01*
X169037000Y-91040085D01*
X168783000Y-91040085D01*
X168560961Y-90918096D01*
X168478182Y-90935633D01*
X168218354Y-91046285D01*
X167985105Y-91205500D01*
X167787399Y-91407161D01*
X167637265Y-91636741D01*
X167568932Y-91508899D01*
X167389607Y-91290392D01*
X167171100Y-91111068D01*
X167108941Y-91077843D01*
X167075546Y-90967753D01*
X167058377Y-90935633D01*
X167004974Y-90835723D01*
X166933799Y-90748997D01*
X166933798Y-90748996D01*
X166910001Y-90719999D01*
X166881003Y-90696201D01*
X161480918Y-85296117D01*
X161723158Y-85247932D01*
X161993411Y-85135990D01*
X162236632Y-84973475D01*
X162443475Y-84766632D01*
X162560000Y-84592240D01*
X162676525Y-84766632D01*
X162883368Y-84973475D01*
X163126589Y-85135990D01*
X163396842Y-85247932D01*
X163683740Y-85305000D01*
X163976260Y-85305000D01*
X164263158Y-85247932D01*
X164533411Y-85135990D01*
X164776632Y-84973475D01*
X164983475Y-84766632D01*
X165100000Y-84592240D01*
X165216525Y-84766632D01*
X165423368Y-84973475D01*
X165666589Y-85135990D01*
X165936842Y-85247932D01*
X166223740Y-85305000D01*
X166516260Y-85305000D01*
X166803158Y-85247932D01*
X167073411Y-85135990D01*
X167316632Y-84973475D01*
X167523475Y-84766632D01*
X167640000Y-84592240D01*
X167756525Y-84766632D01*
X167963368Y-84973475D01*
X168206589Y-85135990D01*
X168476842Y-85247932D01*
X168763740Y-85305000D01*
X169056260Y-85305000D01*
X169343158Y-85247932D01*
X169613411Y-85135990D01*
X169856632Y-84973475D01*
X170063475Y-84766632D01*
X170225990Y-84523411D01*
X170337932Y-84253158D01*
X170395000Y-83966260D01*
X170395000Y-83673740D01*
X170337932Y-83386842D01*
X170225990Y-83116589D01*
X170063475Y-82873368D01*
X169856632Y-82666525D01*
X169682240Y-82550000D01*
X169856632Y-82433475D01*
X170063475Y-82226632D01*
X170225990Y-81983411D01*
X170337932Y-81713158D01*
X170395000Y-81426260D01*
X170395000Y-81133740D01*
X170337932Y-80846842D01*
X170225990Y-80576589D01*
X170063475Y-80333368D01*
X169856632Y-80126525D01*
X169613411Y-79964010D01*
X169343158Y-79852068D01*
X169056260Y-79795000D01*
X168763740Y-79795000D01*
X168476842Y-79852068D01*
X168206589Y-79964010D01*
X167963368Y-80126525D01*
X167756525Y-80333368D01*
X167640000Y-80507760D01*
X167523475Y-80333368D01*
X167316632Y-80126525D01*
X167073411Y-79964010D01*
X166803158Y-79852068D01*
X166516260Y-79795000D01*
X166223740Y-79795000D01*
X165936842Y-79852068D01*
X165666589Y-79964010D01*
X165423368Y-80126525D01*
X165216525Y-80333368D01*
X165100000Y-80507760D01*
X164983475Y-80333368D01*
X164776632Y-80126525D01*
X164533411Y-79964010D01*
X164263158Y-79852068D01*
X163976260Y-79795000D01*
X163683740Y-79795000D01*
X163396842Y-79852068D01*
X163126589Y-79964010D01*
X162883368Y-80126525D01*
X162676525Y-80333368D01*
X162560000Y-80507760D01*
X162443475Y-80333368D01*
X162236632Y-80126525D01*
X161993411Y-79964010D01*
X161723158Y-79852068D01*
X161436260Y-79795000D01*
X161143740Y-79795000D01*
X160856842Y-79852068D01*
X160586589Y-79964010D01*
X160343368Y-80126525D01*
X160136525Y-80333368D01*
X160020000Y-80507760D01*
X159903475Y-80333368D01*
X159696632Y-80126525D01*
X159453411Y-79964010D01*
X159183158Y-79852068D01*
X158896260Y-79795000D01*
X158603740Y-79795000D01*
X158316842Y-79852068D01*
X158046589Y-79964010D01*
X157843509Y-80099704D01*
X157337804Y-79594001D01*
X157314002Y-79564998D01*
X157198277Y-79470025D01*
X157114042Y-79425000D01*
X170765000Y-79425000D01*
X170765001Y-117425000D01*
G36*
X145010697Y-98307513D02*
G01*
X144923815Y-98378815D01*
X144844463Y-98475506D01*
X144785498Y-98585820D01*
X144749188Y-98705518D01*
X144736928Y-98830000D01*
X144736928Y-98850674D01*
X144700724Y-98870026D01*
X144584999Y-98964999D01*
X144561201Y-98993997D01*
X133110200Y-110444999D01*
X126322323Y-110444999D01*
X126285000Y-110441323D01*
X126247677Y-110444999D01*
X126247668Y-110444999D01*
X126136015Y-110455996D01*
X125998072Y-110497840D01*
X125998072Y-109590000D01*
X125985812Y-109465518D01*
X125949502Y-109345820D01*
X125890537Y-109235506D01*
X125811185Y-109138815D01*
X125714494Y-109059463D01*
X125604180Y-109000498D01*
X125484482Y-108964188D01*
X125360000Y-108951928D01*
X124740000Y-108951928D01*
X124740000Y-107652964D01*
X124753942Y-107645512D01*
X124777839Y-107625901D01*
X124850506Y-107685537D01*
X124960820Y-107744502D01*
X125080518Y-107780812D01*
X125205000Y-107793072D01*
X125444250Y-107790000D01*
X125603000Y-107631250D01*
X125603000Y-106807000D01*
X125857000Y-106807000D01*
X125857000Y-107631250D01*
X126015750Y-107790000D01*
X126255000Y-107793072D01*
X126379482Y-107780812D01*
X126499180Y-107744502D01*
X126609494Y-107685537D01*
X126706185Y-107606185D01*
X126785537Y-107509494D01*
X126844502Y-107399180D01*
X126880812Y-107279482D01*
X126893072Y-107155000D01*
X126890000Y-106965750D01*
X126731250Y-106807000D01*
X125857000Y-106807000D01*
X125603000Y-106807000D01*
X125583000Y-106807000D01*
X125583000Y-106553000D01*
X125603000Y-106553000D01*
X125603000Y-105728750D01*
X125857000Y-105728750D01*
X125857000Y-106553000D01*
X126731250Y-106553000D01*
X126890000Y-106394250D01*
X126893072Y-106205000D01*
X126880812Y-106080518D01*
X126844502Y-105960820D01*
X126785537Y-105850506D01*
X126706185Y-105753815D01*
X126609494Y-105674463D01*
X126499180Y-105615498D01*
X126379482Y-105579188D01*
X126255000Y-105566928D01*
X126015750Y-105570000D01*
X125857000Y-105728750D01*
X125603000Y-105728750D01*
X125444250Y-105570000D01*
X125205000Y-105566928D01*
X125080518Y-105579188D01*
X124960820Y-105615498D01*
X124850506Y-105674463D01*
X124777839Y-105734099D01*
X124753942Y-105714488D01*
X124602567Y-105633577D01*
X124438316Y-105583752D01*
X124267500Y-105566928D01*
X123692500Y-105566928D01*
X123521684Y-105583752D01*
X123357433Y-105633577D01*
X123206058Y-105714488D01*
X123073377Y-105823377D01*
X122964488Y-105956058D01*
X122883577Y-106107433D01*
X122833752Y-106271684D01*
X122816928Y-106442500D01*
X122816928Y-106917500D01*
X122833752Y-107088316D01*
X122883577Y-107252567D01*
X122964488Y-107403942D01*
X123073377Y-107536623D01*
X123206058Y-107645512D01*
X123220000Y-107652964D01*
X123220001Y-109051715D01*
X123205506Y-109059463D01*
X123108815Y-109138815D01*
X123029463Y-109235506D01*
X122970498Y-109345820D01*
X122934188Y-109465518D01*
X122921928Y-109590000D01*
X122921928Y-110547127D01*
X121725736Y-109350935D01*
X121746248Y-109283316D01*
X121763072Y-109112500D01*
X121763072Y-108537500D01*
X121746248Y-108366684D01*
X121696423Y-108202433D01*
X121615512Y-108051058D01*
X121532575Y-107950000D01*
X121615512Y-107848942D01*
X121696423Y-107697567D01*
X121746248Y-107533316D01*
X121763072Y-107362500D01*
X121763072Y-106787500D01*
X121746248Y-106616684D01*
X121725736Y-106549065D01*
X130009802Y-98265000D01*
X144982291Y-98265000D01*
X145010697Y-98307513D01*
G37*
X145010697Y-98307513D02*
X144923815Y-98378815D01*
X144844463Y-98475506D01*
X144785498Y-98585820D01*
X144749188Y-98705518D01*
X144736928Y-98830000D01*
X144736928Y-98850674D01*
X144700724Y-98870026D01*
X144584999Y-98964999D01*
X144561201Y-98993997D01*
X133110200Y-110444999D01*
X126322323Y-110444999D01*
X126285000Y-110441323D01*
X126247677Y-110444999D01*
X126247668Y-110444999D01*
X126136015Y-110455996D01*
X125998072Y-110497840D01*
X125998072Y-109590000D01*
X125985812Y-109465518D01*
X125949502Y-109345820D01*
X125890537Y-109235506D01*
X125811185Y-109138815D01*
X125714494Y-109059463D01*
X125604180Y-109000498D01*
X125484482Y-108964188D01*
X125360000Y-108951928D01*
X124740000Y-108951928D01*
X124740000Y-107652964D01*
X124753942Y-107645512D01*
X124777839Y-107625901D01*
X124850506Y-107685537D01*
X124960820Y-107744502D01*
X125080518Y-107780812D01*
X125205000Y-107793072D01*
X125444250Y-107790000D01*
X125603000Y-107631250D01*
X125603000Y-106807000D01*
X125857000Y-106807000D01*
X125857000Y-107631250D01*
X126015750Y-107790000D01*
X126255000Y-107793072D01*
X126379482Y-107780812D01*
X126499180Y-107744502D01*
X126609494Y-107685537D01*
X126706185Y-107606185D01*
X126785537Y-107509494D01*
X126844502Y-107399180D01*
X126880812Y-107279482D01*
X126893072Y-107155000D01*
X126890000Y-106965750D01*
X126731250Y-106807000D01*
X125857000Y-106807000D01*
X125603000Y-106807000D01*
X125583000Y-106807000D01*
X125583000Y-106553000D01*
X125603000Y-106553000D01*
X125603000Y-105728750D01*
X125857000Y-105728750D01*
X125857000Y-106553000D01*
X126731250Y-106553000D01*
X126890000Y-106394250D01*
X126893072Y-106205000D01*
X126880812Y-106080518D01*
X126844502Y-105960820D01*
X126785537Y-105850506D01*
X126706185Y-105753815D01*
X126609494Y-105674463D01*
X126499180Y-105615498D01*
X126379482Y-105579188D01*
X126255000Y-105566928D01*
X126015750Y-105570000D01*
X125857000Y-105728750D01*
X125603000Y-105728750D01*
X125444250Y-105570000D01*
X125205000Y-105566928D01*
X125080518Y-105579188D01*
X124960820Y-105615498D01*
X124850506Y-105674463D01*
X124777839Y-105734099D01*
X124753942Y-105714488D01*
X124602567Y-105633577D01*
X124438316Y-105583752D01*
X124267500Y-105566928D01*
X123692500Y-105566928D01*
X123521684Y-105583752D01*
X123357433Y-105633577D01*
X123206058Y-105714488D01*
X123073377Y-105823377D01*
X122964488Y-105956058D01*
X122883577Y-106107433D01*
X122833752Y-106271684D01*
X122816928Y-106442500D01*
X122816928Y-106917500D01*
X122833752Y-107088316D01*
X122883577Y-107252567D01*
X122964488Y-107403942D01*
X123073377Y-107536623D01*
X123206058Y-107645512D01*
X123220000Y-107652964D01*
X123220001Y-109051715D01*
X123205506Y-109059463D01*
X123108815Y-109138815D01*
X123029463Y-109235506D01*
X122970498Y-109345820D01*
X122934188Y-109465518D01*
X122921928Y-109590000D01*
X122921928Y-110547127D01*
X121725736Y-109350935D01*
X121746248Y-109283316D01*
X121763072Y-109112500D01*
X121763072Y-108537500D01*
X121746248Y-108366684D01*
X121696423Y-108202433D01*
X121615512Y-108051058D01*
X121532575Y-107950000D01*
X121615512Y-107848942D01*
X121696423Y-107697567D01*
X121746248Y-107533316D01*
X121763072Y-107362500D01*
X121763072Y-106787500D01*
X121746248Y-106616684D01*
X121725736Y-106549065D01*
X130009802Y-98265000D01*
X144982291Y-98265000D01*
X145010697Y-98307513D01*
G36*
X144268377Y-89756623D02*
G01*
X144401058Y-89865512D01*
X144552433Y-89946423D01*
X144716684Y-89996248D01*
X144721967Y-89996768D01*
X147750000Y-93024802D01*
X147750001Y-97655197D01*
X147093907Y-98311291D01*
X147089303Y-98307513D01*
X147210907Y-98125518D01*
X147309658Y-97887113D01*
X147360000Y-97634024D01*
X147360000Y-97375976D01*
X147309658Y-97122887D01*
X147210907Y-96884482D01*
X147067544Y-96669923D01*
X146902621Y-96505000D01*
X147067544Y-96340077D01*
X147210907Y-96125518D01*
X147309658Y-95887113D01*
X147360000Y-95634024D01*
X147360000Y-95375976D01*
X147309658Y-95122887D01*
X147210907Y-94884482D01*
X147067544Y-94669923D01*
X146895940Y-94498319D01*
X147028303Y-94376227D01*
X147179473Y-94168629D01*
X147287238Y-93935528D01*
X147317910Y-93834400D01*
X147194224Y-93632000D01*
X146177000Y-93632000D01*
X146177000Y-93652000D01*
X145923000Y-93652000D01*
X145923000Y-93632000D01*
X144905776Y-93632000D01*
X144782090Y-93834400D01*
X144812762Y-93935528D01*
X144920527Y-94168629D01*
X145071697Y-94376227D01*
X145204060Y-94498319D01*
X145032456Y-94669923D01*
X144889093Y-94884482D01*
X144790342Y-95122887D01*
X144740000Y-95375976D01*
X144740000Y-95634024D01*
X144790342Y-95887113D01*
X144889093Y-96125518D01*
X145032456Y-96340077D01*
X145197379Y-96505000D01*
X145032456Y-96669923D01*
X144982291Y-96745000D01*
X130455000Y-96745000D01*
X130455000Y-95187324D01*
X130458676Y-95150001D01*
X130455000Y-95112679D01*
X130455000Y-95112669D01*
X130444003Y-95001016D01*
X130400546Y-94857755D01*
X130329974Y-94725725D01*
X130258799Y-94638999D01*
X130235001Y-94610001D01*
X130206003Y-94586203D01*
X128795400Y-93175600D01*
X144782090Y-93175600D01*
X144905776Y-93378000D01*
X145923000Y-93378000D01*
X145923000Y-92359915D01*
X146177000Y-92359915D01*
X146177000Y-93378000D01*
X147194224Y-93378000D01*
X147317910Y-93175600D01*
X147287238Y-93074472D01*
X147179473Y-92841371D01*
X147028303Y-92633773D01*
X146839537Y-92459656D01*
X146620430Y-92325711D01*
X146379401Y-92237085D01*
X146177000Y-92359915D01*
X145923000Y-92359915D01*
X145720599Y-92237085D01*
X145479570Y-92325711D01*
X145260463Y-92459656D01*
X145071697Y-92633773D01*
X144920527Y-92841371D01*
X144812762Y-93074472D01*
X144782090Y-93175600D01*
X128795400Y-93175600D01*
X125279800Y-89660000D01*
X144189080Y-89660000D01*
X144268377Y-89756623D01*
G37*
X144268377Y-89756623D02*
X144401058Y-89865512D01*
X144552433Y-89946423D01*
X144716684Y-89996248D01*
X144721967Y-89996768D01*
X147750000Y-93024802D01*
X147750001Y-97655197D01*
X147093907Y-98311291D01*
X147089303Y-98307513D01*
X147210907Y-98125518D01*
X147309658Y-97887113D01*
X147360000Y-97634024D01*
X147360000Y-97375976D01*
X147309658Y-97122887D01*
X147210907Y-96884482D01*
X147067544Y-96669923D01*
X146902621Y-96505000D01*
X147067544Y-96340077D01*
X147210907Y-96125518D01*
X147309658Y-95887113D01*
X147360000Y-95634024D01*
X147360000Y-95375976D01*
X147309658Y-95122887D01*
X147210907Y-94884482D01*
X147067544Y-94669923D01*
X146895940Y-94498319D01*
X147028303Y-94376227D01*
X147179473Y-94168629D01*
X147287238Y-93935528D01*
X147317910Y-93834400D01*
X147194224Y-93632000D01*
X146177000Y-93632000D01*
X146177000Y-93652000D01*
X145923000Y-93652000D01*
X145923000Y-93632000D01*
X144905776Y-93632000D01*
X144782090Y-93834400D01*
X144812762Y-93935528D01*
X144920527Y-94168629D01*
X145071697Y-94376227D01*
X145204060Y-94498319D01*
X145032456Y-94669923D01*
X144889093Y-94884482D01*
X144790342Y-95122887D01*
X144740000Y-95375976D01*
X144740000Y-95634024D01*
X144790342Y-95887113D01*
X144889093Y-96125518D01*
X145032456Y-96340077D01*
X145197379Y-96505000D01*
X145032456Y-96669923D01*
X144982291Y-96745000D01*
X130455000Y-96745000D01*
X130455000Y-95187324D01*
X130458676Y-95150001D01*
X130455000Y-95112679D01*
X130455000Y-95112669D01*
X130444003Y-95001016D01*
X130400546Y-94857755D01*
X130329974Y-94725725D01*
X130258799Y-94638999D01*
X130235001Y-94610001D01*
X130206003Y-94586203D01*
X128795400Y-93175600D01*
X144782090Y-93175600D01*
X144905776Y-93378000D01*
X145923000Y-93378000D01*
X145923000Y-92359915D01*
X146177000Y-92359915D01*
X146177000Y-93378000D01*
X147194224Y-93378000D01*
X147317910Y-93175600D01*
X147287238Y-93074472D01*
X147179473Y-92841371D01*
X147028303Y-92633773D01*
X146839537Y-92459656D01*
X146620430Y-92325711D01*
X146379401Y-92237085D01*
X146177000Y-92359915D01*
X145923000Y-92359915D01*
X145720599Y-92237085D01*
X145479570Y-92325711D01*
X145260463Y-92459656D01*
X145071697Y-92633773D01*
X144920527Y-92841371D01*
X144812762Y-93074472D01*
X144782090Y-93175600D01*
X128795400Y-93175600D01*
X125279800Y-89660000D01*
X144189080Y-89660000D01*
X144268377Y-89756623D01*
G36*
X147436525Y-84766632D02*
G01*
X147643368Y-84973475D01*
X147886589Y-85135990D01*
X148156842Y-85247932D01*
X148443740Y-85305000D01*
X148736260Y-85305000D01*
X148956408Y-85261209D01*
X149746210Y-86051012D01*
X149770009Y-86080011D01*
X149885734Y-86174984D01*
X150017763Y-86245556D01*
X150161024Y-86289013D01*
X150272677Y-86300010D01*
X150272686Y-86300010D01*
X150310009Y-86303686D01*
X150347332Y-86300010D01*
X152715209Y-86300010D01*
X157719212Y-91304015D01*
X157551068Y-91508900D01*
X157482735Y-91636742D01*
X157332601Y-91407161D01*
X157134895Y-91205500D01*
X156901646Y-91046285D01*
X156641818Y-90935633D01*
X156559039Y-90918096D01*
X156337000Y-91040085D01*
X156337000Y-92583000D01*
X156357000Y-92583000D01*
X156357000Y-92837000D01*
X156337000Y-92837000D01*
X156337000Y-92857000D01*
X156083000Y-92857000D01*
X156083000Y-92837000D01*
X156063000Y-92837000D01*
X156063000Y-92583000D01*
X156083000Y-92583000D01*
X156083000Y-91040085D01*
X155860961Y-90918096D01*
X155778182Y-90935633D01*
X155518354Y-91046285D01*
X155285105Y-91205500D01*
X155087399Y-91407161D01*
X154937265Y-91636741D01*
X154868932Y-91508899D01*
X154689607Y-91290392D01*
X154471100Y-91111068D01*
X154221807Y-90977818D01*
X153951308Y-90895764D01*
X153670000Y-90868057D01*
X153388691Y-90895764D01*
X153118192Y-90977818D01*
X152868899Y-91111068D01*
X152650392Y-91290393D01*
X152471068Y-91508900D01*
X152400000Y-91641858D01*
X152328932Y-91508899D01*
X152149607Y-91290392D01*
X151931100Y-91111068D01*
X151681807Y-90977818D01*
X151411308Y-90895764D01*
X151130000Y-90868057D01*
X150848691Y-90895764D01*
X150578192Y-90977818D01*
X150328899Y-91111068D01*
X150110392Y-91290393D01*
X149931068Y-91508900D01*
X149797818Y-91758193D01*
X149739635Y-91950000D01*
X148824802Y-91950000D01*
X146762026Y-89887224D01*
X146798000Y-89851250D01*
X146798000Y-89027000D01*
X147052000Y-89027000D01*
X147052000Y-89851250D01*
X147210750Y-90010000D01*
X147450000Y-90013072D01*
X147574482Y-90000812D01*
X147694180Y-89964502D01*
X147804494Y-89905537D01*
X147901185Y-89826185D01*
X147980537Y-89729494D01*
X148039502Y-89619180D01*
X148075812Y-89499482D01*
X148088072Y-89375000D01*
X148085000Y-89185750D01*
X147926250Y-89027000D01*
X147052000Y-89027000D01*
X146798000Y-89027000D01*
X146778000Y-89027000D01*
X146778000Y-88773000D01*
X146798000Y-88773000D01*
X146798000Y-87948750D01*
X147052000Y-87948750D01*
X147052000Y-88773000D01*
X147926250Y-88773000D01*
X148085000Y-88614250D01*
X148088072Y-88425000D01*
X148075812Y-88300518D01*
X148039502Y-88180820D01*
X147980537Y-88070506D01*
X147901185Y-87973815D01*
X147804494Y-87894463D01*
X147694180Y-87835498D01*
X147574482Y-87799188D01*
X147450000Y-87786928D01*
X147210750Y-87790000D01*
X147052000Y-87948750D01*
X146798000Y-87948750D01*
X146639250Y-87790000D01*
X146400000Y-87786928D01*
X146275518Y-87799188D01*
X146155820Y-87835498D01*
X146045506Y-87894463D01*
X145972839Y-87954099D01*
X145948942Y-87934488D01*
X145797567Y-87853577D01*
X145633316Y-87803752D01*
X145462500Y-87786928D01*
X144887500Y-87786928D01*
X144716684Y-87803752D01*
X144552433Y-87853577D01*
X144401058Y-87934488D01*
X144268377Y-88043377D01*
X144189080Y-88140000D01*
X124944802Y-88140000D01*
X121937345Y-85132543D01*
X121951185Y-85121185D01*
X122030537Y-85024494D01*
X122089502Y-84914180D01*
X122111513Y-84841620D01*
X122243368Y-84973475D01*
X122486589Y-85135990D01*
X122756842Y-85247932D01*
X123043740Y-85305000D01*
X123336260Y-85305000D01*
X123623158Y-85247932D01*
X123893411Y-85135990D01*
X124136632Y-84973475D01*
X124343475Y-84766632D01*
X124460000Y-84592240D01*
X124576525Y-84766632D01*
X124783368Y-84973475D01*
X125026589Y-85135990D01*
X125296842Y-85247932D01*
X125583740Y-85305000D01*
X125876260Y-85305000D01*
X126163158Y-85247932D01*
X126433411Y-85135990D01*
X126676632Y-84973475D01*
X126883475Y-84766632D01*
X127000000Y-84592240D01*
X127116525Y-84766632D01*
X127323368Y-84973475D01*
X127566589Y-85135990D01*
X127836842Y-85247932D01*
X128123740Y-85305000D01*
X128416260Y-85305000D01*
X128703158Y-85247932D01*
X128973411Y-85135990D01*
X129216632Y-84973475D01*
X129423475Y-84766632D01*
X129540000Y-84592240D01*
X129656525Y-84766632D01*
X129863368Y-84973475D01*
X130106589Y-85135990D01*
X130376842Y-85247932D01*
X130663740Y-85305000D01*
X130956260Y-85305000D01*
X131243158Y-85247932D01*
X131513411Y-85135990D01*
X131756632Y-84973475D01*
X131963475Y-84766632D01*
X132080000Y-84592240D01*
X132196525Y-84766632D01*
X132403368Y-84973475D01*
X132646589Y-85135990D01*
X132916842Y-85247932D01*
X133203740Y-85305000D01*
X133496260Y-85305000D01*
X133783158Y-85247932D01*
X134053411Y-85135990D01*
X134296632Y-84973475D01*
X134503475Y-84766632D01*
X134620000Y-84592240D01*
X134736525Y-84766632D01*
X134943368Y-84973475D01*
X135186589Y-85135990D01*
X135456842Y-85247932D01*
X135743740Y-85305000D01*
X136036260Y-85305000D01*
X136323158Y-85247932D01*
X136593411Y-85135990D01*
X136836632Y-84973475D01*
X137043475Y-84766632D01*
X137160000Y-84592240D01*
X137276525Y-84766632D01*
X137483368Y-84973475D01*
X137726589Y-85135990D01*
X137996842Y-85247932D01*
X138283740Y-85305000D01*
X138576260Y-85305000D01*
X138863158Y-85247932D01*
X139133411Y-85135990D01*
X139376632Y-84973475D01*
X139583475Y-84766632D01*
X139700000Y-84592240D01*
X139816525Y-84766632D01*
X140023368Y-84973475D01*
X140266589Y-85135990D01*
X140536842Y-85247932D01*
X140823740Y-85305000D01*
X141116260Y-85305000D01*
X141403158Y-85247932D01*
X141673411Y-85135990D01*
X141916632Y-84973475D01*
X142123475Y-84766632D01*
X142240000Y-84592240D01*
X142356525Y-84766632D01*
X142563368Y-84973475D01*
X142806589Y-85135990D01*
X143076842Y-85247932D01*
X143363740Y-85305000D01*
X143656260Y-85305000D01*
X143943158Y-85247932D01*
X144213411Y-85135990D01*
X144456632Y-84973475D01*
X144663475Y-84766632D01*
X144780000Y-84592240D01*
X144896525Y-84766632D01*
X145103368Y-84973475D01*
X145346589Y-85135990D01*
X145616842Y-85247932D01*
X145903740Y-85305000D01*
X146196260Y-85305000D01*
X146483158Y-85247932D01*
X146753411Y-85135990D01*
X146996632Y-84973475D01*
X147203475Y-84766632D01*
X147320000Y-84592240D01*
X147436525Y-84766632D01*
G37*
X147436525Y-84766632D02*
X147643368Y-84973475D01*
X147886589Y-85135990D01*
X148156842Y-85247932D01*
X148443740Y-85305000D01*
X148736260Y-85305000D01*
X148956408Y-85261209D01*
X149746210Y-86051012D01*
X149770009Y-86080011D01*
X149885734Y-86174984D01*
X150017763Y-86245556D01*
X150161024Y-86289013D01*
X150272677Y-86300010D01*
X150272686Y-86300010D01*
X150310009Y-86303686D01*
X150347332Y-86300010D01*
X152715209Y-86300010D01*
X157719212Y-91304015D01*
X157551068Y-91508900D01*
X157482735Y-91636742D01*
X157332601Y-91407161D01*
X157134895Y-91205500D01*
X156901646Y-91046285D01*
X156641818Y-90935633D01*
X156559039Y-90918096D01*
X156337000Y-91040085D01*
X156337000Y-92583000D01*
X156357000Y-92583000D01*
X156357000Y-92837000D01*
X156337000Y-92837000D01*
X156337000Y-92857000D01*
X156083000Y-92857000D01*
X156083000Y-92837000D01*
X156063000Y-92837000D01*
X156063000Y-92583000D01*
X156083000Y-92583000D01*
X156083000Y-91040085D01*
X155860961Y-90918096D01*
X155778182Y-90935633D01*
X155518354Y-91046285D01*
X155285105Y-91205500D01*
X155087399Y-91407161D01*
X154937265Y-91636741D01*
X154868932Y-91508899D01*
X154689607Y-91290392D01*
X154471100Y-91111068D01*
X154221807Y-90977818D01*
X153951308Y-90895764D01*
X153670000Y-90868057D01*
X153388691Y-90895764D01*
X153118192Y-90977818D01*
X152868899Y-91111068D01*
X152650392Y-91290393D01*
X152471068Y-91508900D01*
X152400000Y-91641858D01*
X152328932Y-91508899D01*
X152149607Y-91290392D01*
X151931100Y-91111068D01*
X151681807Y-90977818D01*
X151411308Y-90895764D01*
X151130000Y-90868057D01*
X150848691Y-90895764D01*
X150578192Y-90977818D01*
X150328899Y-91111068D01*
X150110392Y-91290393D01*
X149931068Y-91508900D01*
X149797818Y-91758193D01*
X149739635Y-91950000D01*
X148824802Y-91950000D01*
X146762026Y-89887224D01*
X146798000Y-89851250D01*
X146798000Y-89027000D01*
X147052000Y-89027000D01*
X147052000Y-89851250D01*
X147210750Y-90010000D01*
X147450000Y-90013072D01*
X147574482Y-90000812D01*
X147694180Y-89964502D01*
X147804494Y-89905537D01*
X147901185Y-89826185D01*
X147980537Y-89729494D01*
X148039502Y-89619180D01*
X148075812Y-89499482D01*
X148088072Y-89375000D01*
X148085000Y-89185750D01*
X147926250Y-89027000D01*
X147052000Y-89027000D01*
X146798000Y-89027000D01*
X146778000Y-89027000D01*
X146778000Y-88773000D01*
X146798000Y-88773000D01*
X146798000Y-87948750D01*
X147052000Y-87948750D01*
X147052000Y-88773000D01*
X147926250Y-88773000D01*
X148085000Y-88614250D01*
X148088072Y-88425000D01*
X148075812Y-88300518D01*
X148039502Y-88180820D01*
X147980537Y-88070506D01*
X147901185Y-87973815D01*
X147804494Y-87894463D01*
X147694180Y-87835498D01*
X147574482Y-87799188D01*
X147450000Y-87786928D01*
X147210750Y-87790000D01*
X147052000Y-87948750D01*
X146798000Y-87948750D01*
X146639250Y-87790000D01*
X146400000Y-87786928D01*
X146275518Y-87799188D01*
X146155820Y-87835498D01*
X146045506Y-87894463D01*
X145972839Y-87954099D01*
X145948942Y-87934488D01*
X145797567Y-87853577D01*
X145633316Y-87803752D01*
X145462500Y-87786928D01*
X144887500Y-87786928D01*
X144716684Y-87803752D01*
X144552433Y-87853577D01*
X144401058Y-87934488D01*
X144268377Y-88043377D01*
X144189080Y-88140000D01*
X124944802Y-88140000D01*
X121937345Y-85132543D01*
X121951185Y-85121185D01*
X122030537Y-85024494D01*
X122089502Y-84914180D01*
X122111513Y-84841620D01*
X122243368Y-84973475D01*
X122486589Y-85135990D01*
X122756842Y-85247932D01*
X123043740Y-85305000D01*
X123336260Y-85305000D01*
X123623158Y-85247932D01*
X123893411Y-85135990D01*
X124136632Y-84973475D01*
X124343475Y-84766632D01*
X124460000Y-84592240D01*
X124576525Y-84766632D01*
X124783368Y-84973475D01*
X125026589Y-85135990D01*
X125296842Y-85247932D01*
X125583740Y-85305000D01*
X125876260Y-85305000D01*
X126163158Y-85247932D01*
X126433411Y-85135990D01*
X126676632Y-84973475D01*
X126883475Y-84766632D01*
X127000000Y-84592240D01*
X127116525Y-84766632D01*
X127323368Y-84973475D01*
X127566589Y-85135990D01*
X127836842Y-85247932D01*
X128123740Y-85305000D01*
X128416260Y-85305000D01*
X128703158Y-85247932D01*
X128973411Y-85135990D01*
X129216632Y-84973475D01*
X129423475Y-84766632D01*
X129540000Y-84592240D01*
X129656525Y-84766632D01*
X129863368Y-84973475D01*
X130106589Y-85135990D01*
X130376842Y-85247932D01*
X130663740Y-85305000D01*
X130956260Y-85305000D01*
X131243158Y-85247932D01*
X131513411Y-85135990D01*
X131756632Y-84973475D01*
X131963475Y-84766632D01*
X132080000Y-84592240D01*
X132196525Y-84766632D01*
X132403368Y-84973475D01*
X132646589Y-85135990D01*
X132916842Y-85247932D01*
X133203740Y-85305000D01*
X133496260Y-85305000D01*
X133783158Y-85247932D01*
X134053411Y-85135990D01*
X134296632Y-84973475D01*
X134503475Y-84766632D01*
X134620000Y-84592240D01*
X134736525Y-84766632D01*
X134943368Y-84973475D01*
X135186589Y-85135990D01*
X135456842Y-85247932D01*
X135743740Y-85305000D01*
X136036260Y-85305000D01*
X136323158Y-85247932D01*
X136593411Y-85135990D01*
X136836632Y-84973475D01*
X137043475Y-84766632D01*
X137160000Y-84592240D01*
X137276525Y-84766632D01*
X137483368Y-84973475D01*
X137726589Y-85135990D01*
X137996842Y-85247932D01*
X138283740Y-85305000D01*
X138576260Y-85305000D01*
X138863158Y-85247932D01*
X139133411Y-85135990D01*
X139376632Y-84973475D01*
X139583475Y-84766632D01*
X139700000Y-84592240D01*
X139816525Y-84766632D01*
X140023368Y-84973475D01*
X140266589Y-85135990D01*
X140536842Y-85247932D01*
X140823740Y-85305000D01*
X141116260Y-85305000D01*
X141403158Y-85247932D01*
X141673411Y-85135990D01*
X141916632Y-84973475D01*
X142123475Y-84766632D01*
X142240000Y-84592240D01*
X142356525Y-84766632D01*
X142563368Y-84973475D01*
X142806589Y-85135990D01*
X143076842Y-85247932D01*
X143363740Y-85305000D01*
X143656260Y-85305000D01*
X143943158Y-85247932D01*
X144213411Y-85135990D01*
X144456632Y-84973475D01*
X144663475Y-84766632D01*
X144780000Y-84592240D01*
X144896525Y-84766632D01*
X145103368Y-84973475D01*
X145346589Y-85135990D01*
X145616842Y-85247932D01*
X145903740Y-85305000D01*
X146196260Y-85305000D01*
X146483158Y-85247932D01*
X146753411Y-85135990D01*
X146996632Y-84973475D01*
X147203475Y-84766632D01*
X147320000Y-84592240D01*
X147436525Y-84766632D01*
G36*
X149340725Y-79470025D02*
G01*
X149225000Y-79564998D01*
X149201197Y-79594002D01*
X148956408Y-79838791D01*
X148736260Y-79795000D01*
X148443740Y-79795000D01*
X148156842Y-79852068D01*
X147886589Y-79964010D01*
X147643368Y-80126525D01*
X147436525Y-80333368D01*
X147320000Y-80507760D01*
X147203475Y-80333368D01*
X146996632Y-80126525D01*
X146753411Y-79964010D01*
X146483158Y-79852068D01*
X146196260Y-79795000D01*
X145903740Y-79795000D01*
X145616842Y-79852068D01*
X145346589Y-79964010D01*
X145103368Y-80126525D01*
X144896525Y-80333368D01*
X144780000Y-80507760D01*
X144663475Y-80333368D01*
X144456632Y-80126525D01*
X144213411Y-79964010D01*
X143943158Y-79852068D01*
X143656260Y-79795000D01*
X143363740Y-79795000D01*
X143076842Y-79852068D01*
X142806589Y-79964010D01*
X142563368Y-80126525D01*
X142356525Y-80333368D01*
X142240000Y-80507760D01*
X142123475Y-80333368D01*
X141916632Y-80126525D01*
X141673411Y-79964010D01*
X141403158Y-79852068D01*
X141116260Y-79795000D01*
X140823740Y-79795000D01*
X140536842Y-79852068D01*
X140266589Y-79964010D01*
X140023368Y-80126525D01*
X139816525Y-80333368D01*
X139700000Y-80507760D01*
X139583475Y-80333368D01*
X139376632Y-80126525D01*
X139133411Y-79964010D01*
X138863158Y-79852068D01*
X138576260Y-79795000D01*
X138283740Y-79795000D01*
X137996842Y-79852068D01*
X137726589Y-79964010D01*
X137483368Y-80126525D01*
X137276525Y-80333368D01*
X137154805Y-80515534D01*
X137085178Y-80398645D01*
X136890269Y-80182412D01*
X136656920Y-80008359D01*
X136394099Y-79883175D01*
X136246890Y-79838524D01*
X136017000Y-79959845D01*
X136017000Y-81153000D01*
X136037000Y-81153000D01*
X136037000Y-81407000D01*
X136017000Y-81407000D01*
X136017000Y-81427000D01*
X135763000Y-81427000D01*
X135763000Y-81407000D01*
X135743000Y-81407000D01*
X135743000Y-81153000D01*
X135763000Y-81153000D01*
X135763000Y-79959845D01*
X135533110Y-79838524D01*
X135385901Y-79883175D01*
X135123080Y-80008359D01*
X134889731Y-80182412D01*
X134694822Y-80398645D01*
X134625195Y-80515534D01*
X134503475Y-80333368D01*
X134296632Y-80126525D01*
X134053411Y-79964010D01*
X133783158Y-79852068D01*
X133496260Y-79795000D01*
X133203740Y-79795000D01*
X132916842Y-79852068D01*
X132646589Y-79964010D01*
X132403368Y-80126525D01*
X132196525Y-80333368D01*
X132080000Y-80507760D01*
X131963475Y-80333368D01*
X131756632Y-80126525D01*
X131513411Y-79964010D01*
X131243158Y-79852068D01*
X130956260Y-79795000D01*
X130663740Y-79795000D01*
X130376842Y-79852068D01*
X130106589Y-79964010D01*
X129863368Y-80126525D01*
X129656525Y-80333368D01*
X129540000Y-80507760D01*
X129423475Y-80333368D01*
X129216632Y-80126525D01*
X128973411Y-79964010D01*
X128703158Y-79852068D01*
X128416260Y-79795000D01*
X128123740Y-79795000D01*
X127836842Y-79852068D01*
X127566589Y-79964010D01*
X127323368Y-80126525D01*
X127116525Y-80333368D01*
X127000000Y-80507760D01*
X126883475Y-80333368D01*
X126676632Y-80126525D01*
X126433411Y-79964010D01*
X126163158Y-79852068D01*
X125876260Y-79795000D01*
X125583740Y-79795000D01*
X125296842Y-79852068D01*
X125026589Y-79964010D01*
X124783368Y-80126525D01*
X124576525Y-80333368D01*
X124460000Y-80507760D01*
X124343475Y-80333368D01*
X124136632Y-80126525D01*
X123893411Y-79964010D01*
X123623158Y-79852068D01*
X123336260Y-79795000D01*
X123043740Y-79795000D01*
X122756842Y-79852068D01*
X122486589Y-79964010D01*
X122243368Y-80126525D01*
X122036525Y-80333368D01*
X121920000Y-80507760D01*
X121803475Y-80333368D01*
X121596632Y-80126525D01*
X121353411Y-79964010D01*
X121083158Y-79852068D01*
X120796260Y-79795000D01*
X120503740Y-79795000D01*
X120216842Y-79852068D01*
X119946589Y-79964010D01*
X119703368Y-80126525D01*
X119496525Y-80333368D01*
X119334010Y-80576589D01*
X119222068Y-80846842D01*
X119165000Y-81133740D01*
X119165000Y-81426260D01*
X119222068Y-81713158D01*
X119308206Y-81921115D01*
X119247752Y-81939453D01*
X119115723Y-82010025D01*
X118999998Y-82104998D01*
X118976195Y-82134002D01*
X118964002Y-82146195D01*
X118934998Y-82169998D01*
X118893369Y-82220724D01*
X118840025Y-82285723D01*
X118795000Y-82369958D01*
X118795000Y-79425000D01*
X149424960Y-79425000D01*
X149340725Y-79470025D01*
G37*
X149340725Y-79470025D02*
X149225000Y-79564998D01*
X149201197Y-79594002D01*
X148956408Y-79838791D01*
X148736260Y-79795000D01*
X148443740Y-79795000D01*
X148156842Y-79852068D01*
X147886589Y-79964010D01*
X147643368Y-80126525D01*
X147436525Y-80333368D01*
X147320000Y-80507760D01*
X147203475Y-80333368D01*
X146996632Y-80126525D01*
X146753411Y-79964010D01*
X146483158Y-79852068D01*
X146196260Y-79795000D01*
X145903740Y-79795000D01*
X145616842Y-79852068D01*
X145346589Y-79964010D01*
X145103368Y-80126525D01*
X144896525Y-80333368D01*
X144780000Y-80507760D01*
X144663475Y-80333368D01*
X144456632Y-80126525D01*
X144213411Y-79964010D01*
X143943158Y-79852068D01*
X143656260Y-79795000D01*
X143363740Y-79795000D01*
X143076842Y-79852068D01*
X142806589Y-79964010D01*
X142563368Y-80126525D01*
X142356525Y-80333368D01*
X142240000Y-80507760D01*
X142123475Y-80333368D01*
X141916632Y-80126525D01*
X141673411Y-79964010D01*
X141403158Y-79852068D01*
X141116260Y-79795000D01*
X140823740Y-79795000D01*
X140536842Y-79852068D01*
X140266589Y-79964010D01*
X140023368Y-80126525D01*
X139816525Y-80333368D01*
X139700000Y-80507760D01*
X139583475Y-80333368D01*
X139376632Y-80126525D01*
X139133411Y-79964010D01*
X138863158Y-79852068D01*
X138576260Y-79795000D01*
X138283740Y-79795000D01*
X137996842Y-79852068D01*
X137726589Y-79964010D01*
X137483368Y-80126525D01*
X137276525Y-80333368D01*
X137154805Y-80515534D01*
X137085178Y-80398645D01*
X136890269Y-80182412D01*
X136656920Y-80008359D01*
X136394099Y-79883175D01*
X136246890Y-79838524D01*
X136017000Y-79959845D01*
X136017000Y-81153000D01*
X136037000Y-81153000D01*
X136037000Y-81407000D01*
X136017000Y-81407000D01*
X136017000Y-81427000D01*
X135763000Y-81427000D01*
X135763000Y-81407000D01*
X135743000Y-81407000D01*
X135743000Y-81153000D01*
X135763000Y-81153000D01*
X135763000Y-79959845D01*
X135533110Y-79838524D01*
X135385901Y-79883175D01*
X135123080Y-80008359D01*
X134889731Y-80182412D01*
X134694822Y-80398645D01*
X134625195Y-80515534D01*
X134503475Y-80333368D01*
X134296632Y-80126525D01*
X134053411Y-79964010D01*
X133783158Y-79852068D01*
X133496260Y-79795000D01*
X133203740Y-79795000D01*
X132916842Y-79852068D01*
X132646589Y-79964010D01*
X132403368Y-80126525D01*
X132196525Y-80333368D01*
X132080000Y-80507760D01*
X131963475Y-80333368D01*
X131756632Y-80126525D01*
X131513411Y-79964010D01*
X131243158Y-79852068D01*
X130956260Y-79795000D01*
X130663740Y-79795000D01*
X130376842Y-79852068D01*
X130106589Y-79964010D01*
X129863368Y-80126525D01*
X129656525Y-80333368D01*
X129540000Y-80507760D01*
X129423475Y-80333368D01*
X129216632Y-80126525D01*
X128973411Y-79964010D01*
X128703158Y-79852068D01*
X128416260Y-79795000D01*
X128123740Y-79795000D01*
X127836842Y-79852068D01*
X127566589Y-79964010D01*
X127323368Y-80126525D01*
X127116525Y-80333368D01*
X127000000Y-80507760D01*
X126883475Y-80333368D01*
X126676632Y-80126525D01*
X126433411Y-79964010D01*
X126163158Y-79852068D01*
X125876260Y-79795000D01*
X125583740Y-79795000D01*
X125296842Y-79852068D01*
X125026589Y-79964010D01*
X124783368Y-80126525D01*
X124576525Y-80333368D01*
X124460000Y-80507760D01*
X124343475Y-80333368D01*
X124136632Y-80126525D01*
X123893411Y-79964010D01*
X123623158Y-79852068D01*
X123336260Y-79795000D01*
X123043740Y-79795000D01*
X122756842Y-79852068D01*
X122486589Y-79964010D01*
X122243368Y-80126525D01*
X122036525Y-80333368D01*
X121920000Y-80507760D01*
X121803475Y-80333368D01*
X121596632Y-80126525D01*
X121353411Y-79964010D01*
X121083158Y-79852068D01*
X120796260Y-79795000D01*
X120503740Y-79795000D01*
X120216842Y-79852068D01*
X119946589Y-79964010D01*
X119703368Y-80126525D01*
X119496525Y-80333368D01*
X119334010Y-80576589D01*
X119222068Y-80846842D01*
X119165000Y-81133740D01*
X119165000Y-81426260D01*
X119222068Y-81713158D01*
X119308206Y-81921115D01*
X119247752Y-81939453D01*
X119115723Y-82010025D01*
X118999998Y-82104998D01*
X118976195Y-82134002D01*
X118964002Y-82146195D01*
X118934998Y-82169998D01*
X118893369Y-82220724D01*
X118840025Y-82285723D01*
X118795000Y-82369958D01*
X118795000Y-79425000D01*
X149424960Y-79425000D01*
X149340725Y-79470025D01*
M02*
