M48
; DRILL file {KiCad 5.1.5} date Mon 20 Apr 2020 02:34:47 PM MDT
; FORMAT={-:-/ absolute / metric / decimal}
; #@! TF.CreationDate,2020-04-20T14:34:47-06:00
; #@! TF.GenerationSoftware,Kicad,Pcbnew,5.1.5
FMAT,2
METRIC
T1C0.400
T2C0.800
T3C0.900
T4C1.000
T5C3.000
%
G90
G05
T1
X142.24Y-93.98
X142.24Y-99.06
X157.66Y-87.63
T2
X146.05Y-93.505
X146.05Y-95.505
X146.05Y-97.505
X146.05Y-99.505
X151.13Y-92.71
X151.13Y-100.33
X153.67Y-92.71
X153.67Y-100.33
X156.21Y-92.71
X156.21Y-100.33
X158.75Y-92.71
X158.75Y-100.33
X161.29Y-92.71
X161.29Y-100.33
X163.83Y-92.71
X163.83Y-100.33
X166.37Y-92.71
X166.37Y-100.33
X168.91Y-92.71
X168.91Y-100.33
T3
X124.46Y-110.49
X124.46Y-113.03
T4
X153.67Y-108.665
X153.67Y-111.205
X153.67Y-113.745
X161.29Y-108.665
X161.29Y-111.205
X161.29Y-113.745
X149.86Y-108.665
X149.86Y-111.205
X149.86Y-113.745
X142.24Y-108.665
X142.24Y-111.205
X142.24Y-113.745
X120.65Y-81.28
X120.65Y-83.82
X123.19Y-81.28
X123.19Y-83.82
X125.73Y-81.28
X125.73Y-83.82
X128.27Y-81.28
X128.27Y-83.82
X130.81Y-81.28
X130.81Y-83.82
X133.35Y-81.28
X133.35Y-83.82
X135.89Y-81.28
X135.89Y-83.82
X138.43Y-81.28
X138.43Y-83.82
X140.97Y-81.28
X140.97Y-83.82
X143.51Y-81.28
X143.51Y-83.82
X146.05Y-81.28
X146.05Y-83.82
X148.59Y-81.28
X148.59Y-83.82
X151.13Y-81.28
X151.13Y-83.82
X153.67Y-81.28
X153.67Y-83.82
X156.21Y-81.28
X156.21Y-83.82
X158.75Y-81.28
X158.75Y-83.82
X161.29Y-81.28
X161.29Y-83.82
X163.83Y-81.28
X163.83Y-83.82
X166.37Y-81.28
X166.37Y-83.82
X168.91Y-81.28
X168.91Y-83.82
X165.1Y-108.665
X165.1Y-111.205
X165.1Y-113.745
X157.48Y-108.665
X157.48Y-111.205
X157.48Y-113.745
X168.91Y-108.665
X168.91Y-111.205
X168.91Y-113.745
X146.05Y-108.665
X146.05Y-111.205
X146.05Y-113.745
T5
X122.05Y-96.52
T0
M30
