G04 #@! TF.GenerationSoftware,KiCad,Pcbnew,5.1.5*
G04 #@! TF.CreationDate,2020-04-20T14:34:13-06:00*
G04 #@! TF.ProjectId,growbot,67726f77-626f-4742-9e6b-696361645f70,rev?*
G04 #@! TF.SameCoordinates,Original*
G04 #@! TF.FileFunction,Soldermask,Bot*
G04 #@! TF.FilePolarity,Negative*
%FSLAX46Y46*%
G04 Gerber Fmt 4.6, Leading zero omitted, Abs format (unit mm)*
G04 Created by KiCad (PCBNEW 5.1.5) date 2020-04-20 14:34:13*
%MOMM*%
%LPD*%
G04 APERTURE LIST*
%ADD10C,0.100000*%
G04 APERTURE END LIST*
D10*
G36*
X143141000Y-114645999D02*
G01*
X141339000Y-114645999D01*
X141339000Y-112843999D01*
X143141000Y-112843999D01*
X143141000Y-114645999D01*
G37*
G36*
X169811000Y-114645999D02*
G01*
X168009000Y-114645999D01*
X168009000Y-112843999D01*
X169811000Y-112843999D01*
X169811000Y-114645999D01*
G37*
G36*
X166001000Y-114645999D02*
G01*
X164199000Y-114645999D01*
X164199000Y-112843999D01*
X166001000Y-112843999D01*
X166001000Y-114645999D01*
G37*
G36*
X162191000Y-114645999D02*
G01*
X160389000Y-114645999D01*
X160389000Y-112843999D01*
X162191000Y-112843999D01*
X162191000Y-114645999D01*
G37*
G36*
X158381000Y-114645999D02*
G01*
X156579000Y-114645999D01*
X156579000Y-112843999D01*
X158381000Y-112843999D01*
X158381000Y-114645999D01*
G37*
G36*
X150761000Y-114645999D02*
G01*
X148959000Y-114645999D01*
X148959000Y-112843999D01*
X150761000Y-112843999D01*
X150761000Y-114645999D01*
G37*
G36*
X146951000Y-114645999D02*
G01*
X145149000Y-114645999D01*
X145149000Y-112843999D01*
X146951000Y-112843999D01*
X146951000Y-114645999D01*
G37*
G36*
X154571000Y-114645999D02*
G01*
X152769000Y-114645999D01*
X152769000Y-112843999D01*
X154571000Y-112843999D01*
X154571000Y-114645999D01*
G37*
G36*
X124737395Y-112115546D02*
G01*
X124910466Y-112187234D01*
X124910467Y-112187235D01*
X125066227Y-112291310D01*
X125198690Y-112423773D01*
X125198691Y-112423775D01*
X125302766Y-112579534D01*
X125374454Y-112752605D01*
X125411000Y-112936333D01*
X125411000Y-113123667D01*
X125374454Y-113307395D01*
X125302766Y-113480466D01*
X125302765Y-113480467D01*
X125198690Y-113636227D01*
X125066227Y-113768690D01*
X124987818Y-113821081D01*
X124910466Y-113872766D01*
X124737395Y-113944454D01*
X124553667Y-113981000D01*
X124366333Y-113981000D01*
X124182605Y-113944454D01*
X124009534Y-113872766D01*
X123932182Y-113821081D01*
X123853773Y-113768690D01*
X123721310Y-113636227D01*
X123617235Y-113480467D01*
X123617234Y-113480466D01*
X123545546Y-113307395D01*
X123509000Y-113123667D01*
X123509000Y-112936333D01*
X123545546Y-112752605D01*
X123617234Y-112579534D01*
X123721309Y-112423775D01*
X123721310Y-112423773D01*
X123853773Y-112291310D01*
X124009533Y-112187235D01*
X124009534Y-112187234D01*
X124182605Y-112115546D01*
X124366333Y-112079000D01*
X124553667Y-112079000D01*
X124737395Y-112115546D01*
G37*
G36*
X157593512Y-110308926D02*
G01*
X157742812Y-110338623D01*
X157906784Y-110406543D01*
X158054354Y-110505146D01*
X158179853Y-110630645D01*
X158278456Y-110778215D01*
X158346376Y-110942187D01*
X158381000Y-111116258D01*
X158381000Y-111293740D01*
X158346376Y-111467811D01*
X158278456Y-111631783D01*
X158179853Y-111779353D01*
X158054354Y-111904852D01*
X157906784Y-112003455D01*
X157742812Y-112071375D01*
X157593512Y-112101072D01*
X157568742Y-112105999D01*
X157391258Y-112105999D01*
X157366488Y-112101072D01*
X157217188Y-112071375D01*
X157053216Y-112003455D01*
X156905646Y-111904852D01*
X156780147Y-111779353D01*
X156681544Y-111631783D01*
X156613624Y-111467811D01*
X156579000Y-111293740D01*
X156579000Y-111116258D01*
X156613624Y-110942187D01*
X156681544Y-110778215D01*
X156780147Y-110630645D01*
X156905646Y-110505146D01*
X157053216Y-110406543D01*
X157217188Y-110338623D01*
X157366488Y-110308926D01*
X157391258Y-110303999D01*
X157568742Y-110303999D01*
X157593512Y-110308926D01*
G37*
G36*
X146163512Y-110308926D02*
G01*
X146312812Y-110338623D01*
X146476784Y-110406543D01*
X146624354Y-110505146D01*
X146749853Y-110630645D01*
X146848456Y-110778215D01*
X146916376Y-110942187D01*
X146951000Y-111116258D01*
X146951000Y-111293740D01*
X146916376Y-111467811D01*
X146848456Y-111631783D01*
X146749853Y-111779353D01*
X146624354Y-111904852D01*
X146476784Y-112003455D01*
X146312812Y-112071375D01*
X146163512Y-112101072D01*
X146138742Y-112105999D01*
X145961258Y-112105999D01*
X145936488Y-112101072D01*
X145787188Y-112071375D01*
X145623216Y-112003455D01*
X145475646Y-111904852D01*
X145350147Y-111779353D01*
X145251544Y-111631783D01*
X145183624Y-111467811D01*
X145149000Y-111293740D01*
X145149000Y-111116258D01*
X145183624Y-110942187D01*
X145251544Y-110778215D01*
X145350147Y-110630645D01*
X145475646Y-110505146D01*
X145623216Y-110406543D01*
X145787188Y-110338623D01*
X145936488Y-110308926D01*
X145961258Y-110303999D01*
X146138742Y-110303999D01*
X146163512Y-110308926D01*
G37*
G36*
X149973512Y-110308926D02*
G01*
X150122812Y-110338623D01*
X150286784Y-110406543D01*
X150434354Y-110505146D01*
X150559853Y-110630645D01*
X150658456Y-110778215D01*
X150726376Y-110942187D01*
X150761000Y-111116258D01*
X150761000Y-111293740D01*
X150726376Y-111467811D01*
X150658456Y-111631783D01*
X150559853Y-111779353D01*
X150434354Y-111904852D01*
X150286784Y-112003455D01*
X150122812Y-112071375D01*
X149973512Y-112101072D01*
X149948742Y-112105999D01*
X149771258Y-112105999D01*
X149746488Y-112101072D01*
X149597188Y-112071375D01*
X149433216Y-112003455D01*
X149285646Y-111904852D01*
X149160147Y-111779353D01*
X149061544Y-111631783D01*
X148993624Y-111467811D01*
X148959000Y-111293740D01*
X148959000Y-111116258D01*
X148993624Y-110942187D01*
X149061544Y-110778215D01*
X149160147Y-110630645D01*
X149285646Y-110505146D01*
X149433216Y-110406543D01*
X149597188Y-110338623D01*
X149746488Y-110308926D01*
X149771258Y-110303999D01*
X149948742Y-110303999D01*
X149973512Y-110308926D01*
G37*
G36*
X153783512Y-110308926D02*
G01*
X153932812Y-110338623D01*
X154096784Y-110406543D01*
X154244354Y-110505146D01*
X154369853Y-110630645D01*
X154468456Y-110778215D01*
X154536376Y-110942187D01*
X154571000Y-111116258D01*
X154571000Y-111293740D01*
X154536376Y-111467811D01*
X154468456Y-111631783D01*
X154369853Y-111779353D01*
X154244354Y-111904852D01*
X154096784Y-112003455D01*
X153932812Y-112071375D01*
X153783512Y-112101072D01*
X153758742Y-112105999D01*
X153581258Y-112105999D01*
X153556488Y-112101072D01*
X153407188Y-112071375D01*
X153243216Y-112003455D01*
X153095646Y-111904852D01*
X152970147Y-111779353D01*
X152871544Y-111631783D01*
X152803624Y-111467811D01*
X152769000Y-111293740D01*
X152769000Y-111116258D01*
X152803624Y-110942187D01*
X152871544Y-110778215D01*
X152970147Y-110630645D01*
X153095646Y-110505146D01*
X153243216Y-110406543D01*
X153407188Y-110338623D01*
X153556488Y-110308926D01*
X153581258Y-110303999D01*
X153758742Y-110303999D01*
X153783512Y-110308926D01*
G37*
G36*
X161403512Y-110308926D02*
G01*
X161552812Y-110338623D01*
X161716784Y-110406543D01*
X161864354Y-110505146D01*
X161989853Y-110630645D01*
X162088456Y-110778215D01*
X162156376Y-110942187D01*
X162191000Y-111116258D01*
X162191000Y-111293740D01*
X162156376Y-111467811D01*
X162088456Y-111631783D01*
X161989853Y-111779353D01*
X161864354Y-111904852D01*
X161716784Y-112003455D01*
X161552812Y-112071375D01*
X161403512Y-112101072D01*
X161378742Y-112105999D01*
X161201258Y-112105999D01*
X161176488Y-112101072D01*
X161027188Y-112071375D01*
X160863216Y-112003455D01*
X160715646Y-111904852D01*
X160590147Y-111779353D01*
X160491544Y-111631783D01*
X160423624Y-111467811D01*
X160389000Y-111293740D01*
X160389000Y-111116258D01*
X160423624Y-110942187D01*
X160491544Y-110778215D01*
X160590147Y-110630645D01*
X160715646Y-110505146D01*
X160863216Y-110406543D01*
X161027188Y-110338623D01*
X161176488Y-110308926D01*
X161201258Y-110303999D01*
X161378742Y-110303999D01*
X161403512Y-110308926D01*
G37*
G36*
X165213512Y-110308926D02*
G01*
X165362812Y-110338623D01*
X165526784Y-110406543D01*
X165674354Y-110505146D01*
X165799853Y-110630645D01*
X165898456Y-110778215D01*
X165966376Y-110942187D01*
X166001000Y-111116258D01*
X166001000Y-111293740D01*
X165966376Y-111467811D01*
X165898456Y-111631783D01*
X165799853Y-111779353D01*
X165674354Y-111904852D01*
X165526784Y-112003455D01*
X165362812Y-112071375D01*
X165213512Y-112101072D01*
X165188742Y-112105999D01*
X165011258Y-112105999D01*
X164986488Y-112101072D01*
X164837188Y-112071375D01*
X164673216Y-112003455D01*
X164525646Y-111904852D01*
X164400147Y-111779353D01*
X164301544Y-111631783D01*
X164233624Y-111467811D01*
X164199000Y-111293740D01*
X164199000Y-111116258D01*
X164233624Y-110942187D01*
X164301544Y-110778215D01*
X164400147Y-110630645D01*
X164525646Y-110505146D01*
X164673216Y-110406543D01*
X164837188Y-110338623D01*
X164986488Y-110308926D01*
X165011258Y-110303999D01*
X165188742Y-110303999D01*
X165213512Y-110308926D01*
G37*
G36*
X169023512Y-110308926D02*
G01*
X169172812Y-110338623D01*
X169336784Y-110406543D01*
X169484354Y-110505146D01*
X169609853Y-110630645D01*
X169708456Y-110778215D01*
X169776376Y-110942187D01*
X169811000Y-111116258D01*
X169811000Y-111293740D01*
X169776376Y-111467811D01*
X169708456Y-111631783D01*
X169609853Y-111779353D01*
X169484354Y-111904852D01*
X169336784Y-112003455D01*
X169172812Y-112071375D01*
X169023512Y-112101072D01*
X168998742Y-112105999D01*
X168821258Y-112105999D01*
X168796488Y-112101072D01*
X168647188Y-112071375D01*
X168483216Y-112003455D01*
X168335646Y-111904852D01*
X168210147Y-111779353D01*
X168111544Y-111631783D01*
X168043624Y-111467811D01*
X168009000Y-111293740D01*
X168009000Y-111116258D01*
X168043624Y-110942187D01*
X168111544Y-110778215D01*
X168210147Y-110630645D01*
X168335646Y-110505146D01*
X168483216Y-110406543D01*
X168647188Y-110338623D01*
X168796488Y-110308926D01*
X168821258Y-110303999D01*
X168998742Y-110303999D01*
X169023512Y-110308926D01*
G37*
G36*
X142353512Y-110308926D02*
G01*
X142502812Y-110338623D01*
X142666784Y-110406543D01*
X142814354Y-110505146D01*
X142939853Y-110630645D01*
X143038456Y-110778215D01*
X143106376Y-110942187D01*
X143141000Y-111116258D01*
X143141000Y-111293740D01*
X143106376Y-111467811D01*
X143038456Y-111631783D01*
X142939853Y-111779353D01*
X142814354Y-111904852D01*
X142666784Y-112003455D01*
X142502812Y-112071375D01*
X142353512Y-112101072D01*
X142328742Y-112105999D01*
X142151258Y-112105999D01*
X142126488Y-112101072D01*
X141977188Y-112071375D01*
X141813216Y-112003455D01*
X141665646Y-111904852D01*
X141540147Y-111779353D01*
X141441544Y-111631783D01*
X141373624Y-111467811D01*
X141339000Y-111293740D01*
X141339000Y-111116258D01*
X141373624Y-110942187D01*
X141441544Y-110778215D01*
X141540147Y-110630645D01*
X141665646Y-110505146D01*
X141813216Y-110406543D01*
X141977188Y-110338623D01*
X142126488Y-110308926D01*
X142151258Y-110303999D01*
X142328742Y-110303999D01*
X142353512Y-110308926D01*
G37*
G36*
X125411000Y-111441000D02*
G01*
X123509000Y-111441000D01*
X123509000Y-109539000D01*
X125411000Y-109539000D01*
X125411000Y-111441000D01*
G37*
G36*
X153783512Y-107768926D02*
G01*
X153932812Y-107798623D01*
X154096784Y-107866543D01*
X154244354Y-107965146D01*
X154369853Y-108090645D01*
X154468456Y-108238215D01*
X154536376Y-108402187D01*
X154571000Y-108576258D01*
X154571000Y-108753740D01*
X154536376Y-108927811D01*
X154468456Y-109091783D01*
X154369853Y-109239353D01*
X154244354Y-109364852D01*
X154096784Y-109463455D01*
X153932812Y-109531375D01*
X153783512Y-109561072D01*
X153758742Y-109565999D01*
X153581258Y-109565999D01*
X153556488Y-109561072D01*
X153407188Y-109531375D01*
X153243216Y-109463455D01*
X153095646Y-109364852D01*
X152970147Y-109239353D01*
X152871544Y-109091783D01*
X152803624Y-108927811D01*
X152769000Y-108753740D01*
X152769000Y-108576258D01*
X152803624Y-108402187D01*
X152871544Y-108238215D01*
X152970147Y-108090645D01*
X153095646Y-107965146D01*
X153243216Y-107866543D01*
X153407188Y-107798623D01*
X153556488Y-107768926D01*
X153581258Y-107763999D01*
X153758742Y-107763999D01*
X153783512Y-107768926D01*
G37*
G36*
X149973512Y-107768926D02*
G01*
X150122812Y-107798623D01*
X150286784Y-107866543D01*
X150434354Y-107965146D01*
X150559853Y-108090645D01*
X150658456Y-108238215D01*
X150726376Y-108402187D01*
X150761000Y-108576258D01*
X150761000Y-108753740D01*
X150726376Y-108927811D01*
X150658456Y-109091783D01*
X150559853Y-109239353D01*
X150434354Y-109364852D01*
X150286784Y-109463455D01*
X150122812Y-109531375D01*
X149973512Y-109561072D01*
X149948742Y-109565999D01*
X149771258Y-109565999D01*
X149746488Y-109561072D01*
X149597188Y-109531375D01*
X149433216Y-109463455D01*
X149285646Y-109364852D01*
X149160147Y-109239353D01*
X149061544Y-109091783D01*
X148993624Y-108927811D01*
X148959000Y-108753740D01*
X148959000Y-108576258D01*
X148993624Y-108402187D01*
X149061544Y-108238215D01*
X149160147Y-108090645D01*
X149285646Y-107965146D01*
X149433216Y-107866543D01*
X149597188Y-107798623D01*
X149746488Y-107768926D01*
X149771258Y-107763999D01*
X149948742Y-107763999D01*
X149973512Y-107768926D01*
G37*
G36*
X157593512Y-107768926D02*
G01*
X157742812Y-107798623D01*
X157906784Y-107866543D01*
X158054354Y-107965146D01*
X158179853Y-108090645D01*
X158278456Y-108238215D01*
X158346376Y-108402187D01*
X158381000Y-108576258D01*
X158381000Y-108753740D01*
X158346376Y-108927811D01*
X158278456Y-109091783D01*
X158179853Y-109239353D01*
X158054354Y-109364852D01*
X157906784Y-109463455D01*
X157742812Y-109531375D01*
X157593512Y-109561072D01*
X157568742Y-109565999D01*
X157391258Y-109565999D01*
X157366488Y-109561072D01*
X157217188Y-109531375D01*
X157053216Y-109463455D01*
X156905646Y-109364852D01*
X156780147Y-109239353D01*
X156681544Y-109091783D01*
X156613624Y-108927811D01*
X156579000Y-108753740D01*
X156579000Y-108576258D01*
X156613624Y-108402187D01*
X156681544Y-108238215D01*
X156780147Y-108090645D01*
X156905646Y-107965146D01*
X157053216Y-107866543D01*
X157217188Y-107798623D01*
X157366488Y-107768926D01*
X157391258Y-107763999D01*
X157568742Y-107763999D01*
X157593512Y-107768926D01*
G37*
G36*
X146163512Y-107768926D02*
G01*
X146312812Y-107798623D01*
X146476784Y-107866543D01*
X146624354Y-107965146D01*
X146749853Y-108090645D01*
X146848456Y-108238215D01*
X146916376Y-108402187D01*
X146951000Y-108576258D01*
X146951000Y-108753740D01*
X146916376Y-108927811D01*
X146848456Y-109091783D01*
X146749853Y-109239353D01*
X146624354Y-109364852D01*
X146476784Y-109463455D01*
X146312812Y-109531375D01*
X146163512Y-109561072D01*
X146138742Y-109565999D01*
X145961258Y-109565999D01*
X145936488Y-109561072D01*
X145787188Y-109531375D01*
X145623216Y-109463455D01*
X145475646Y-109364852D01*
X145350147Y-109239353D01*
X145251544Y-109091783D01*
X145183624Y-108927811D01*
X145149000Y-108753740D01*
X145149000Y-108576258D01*
X145183624Y-108402187D01*
X145251544Y-108238215D01*
X145350147Y-108090645D01*
X145475646Y-107965146D01*
X145623216Y-107866543D01*
X145787188Y-107798623D01*
X145936488Y-107768926D01*
X145961258Y-107763999D01*
X146138742Y-107763999D01*
X146163512Y-107768926D01*
G37*
G36*
X169023512Y-107768926D02*
G01*
X169172812Y-107798623D01*
X169336784Y-107866543D01*
X169484354Y-107965146D01*
X169609853Y-108090645D01*
X169708456Y-108238215D01*
X169776376Y-108402187D01*
X169811000Y-108576258D01*
X169811000Y-108753740D01*
X169776376Y-108927811D01*
X169708456Y-109091783D01*
X169609853Y-109239353D01*
X169484354Y-109364852D01*
X169336784Y-109463455D01*
X169172812Y-109531375D01*
X169023512Y-109561072D01*
X168998742Y-109565999D01*
X168821258Y-109565999D01*
X168796488Y-109561072D01*
X168647188Y-109531375D01*
X168483216Y-109463455D01*
X168335646Y-109364852D01*
X168210147Y-109239353D01*
X168111544Y-109091783D01*
X168043624Y-108927811D01*
X168009000Y-108753740D01*
X168009000Y-108576258D01*
X168043624Y-108402187D01*
X168111544Y-108238215D01*
X168210147Y-108090645D01*
X168335646Y-107965146D01*
X168483216Y-107866543D01*
X168647188Y-107798623D01*
X168796488Y-107768926D01*
X168821258Y-107763999D01*
X168998742Y-107763999D01*
X169023512Y-107768926D01*
G37*
G36*
X142353512Y-107768926D02*
G01*
X142502812Y-107798623D01*
X142666784Y-107866543D01*
X142814354Y-107965146D01*
X142939853Y-108090645D01*
X143038456Y-108238215D01*
X143106376Y-108402187D01*
X143141000Y-108576258D01*
X143141000Y-108753740D01*
X143106376Y-108927811D01*
X143038456Y-109091783D01*
X142939853Y-109239353D01*
X142814354Y-109364852D01*
X142666784Y-109463455D01*
X142502812Y-109531375D01*
X142353512Y-109561072D01*
X142328742Y-109565999D01*
X142151258Y-109565999D01*
X142126488Y-109561072D01*
X141977188Y-109531375D01*
X141813216Y-109463455D01*
X141665646Y-109364852D01*
X141540147Y-109239353D01*
X141441544Y-109091783D01*
X141373624Y-108927811D01*
X141339000Y-108753740D01*
X141339000Y-108576258D01*
X141373624Y-108402187D01*
X141441544Y-108238215D01*
X141540147Y-108090645D01*
X141665646Y-107965146D01*
X141813216Y-107866543D01*
X141977188Y-107798623D01*
X142126488Y-107768926D01*
X142151258Y-107763999D01*
X142328742Y-107763999D01*
X142353512Y-107768926D01*
G37*
G36*
X161403512Y-107768926D02*
G01*
X161552812Y-107798623D01*
X161716784Y-107866543D01*
X161864354Y-107965146D01*
X161989853Y-108090645D01*
X162088456Y-108238215D01*
X162156376Y-108402187D01*
X162191000Y-108576258D01*
X162191000Y-108753740D01*
X162156376Y-108927811D01*
X162088456Y-109091783D01*
X161989853Y-109239353D01*
X161864354Y-109364852D01*
X161716784Y-109463455D01*
X161552812Y-109531375D01*
X161403512Y-109561072D01*
X161378742Y-109565999D01*
X161201258Y-109565999D01*
X161176488Y-109561072D01*
X161027188Y-109531375D01*
X160863216Y-109463455D01*
X160715646Y-109364852D01*
X160590147Y-109239353D01*
X160491544Y-109091783D01*
X160423624Y-108927811D01*
X160389000Y-108753740D01*
X160389000Y-108576258D01*
X160423624Y-108402187D01*
X160491544Y-108238215D01*
X160590147Y-108090645D01*
X160715646Y-107965146D01*
X160863216Y-107866543D01*
X161027188Y-107798623D01*
X161176488Y-107768926D01*
X161201258Y-107763999D01*
X161378742Y-107763999D01*
X161403512Y-107768926D01*
G37*
G36*
X165213512Y-107768926D02*
G01*
X165362812Y-107798623D01*
X165526784Y-107866543D01*
X165674354Y-107965146D01*
X165799853Y-108090645D01*
X165898456Y-108238215D01*
X165966376Y-108402187D01*
X166001000Y-108576258D01*
X166001000Y-108753740D01*
X165966376Y-108927811D01*
X165898456Y-109091783D01*
X165799853Y-109239353D01*
X165674354Y-109364852D01*
X165526784Y-109463455D01*
X165362812Y-109531375D01*
X165213512Y-109561072D01*
X165188742Y-109565999D01*
X165011258Y-109565999D01*
X164986488Y-109561072D01*
X164837188Y-109531375D01*
X164673216Y-109463455D01*
X164525646Y-109364852D01*
X164400147Y-109239353D01*
X164301544Y-109091783D01*
X164233624Y-108927811D01*
X164199000Y-108753740D01*
X164199000Y-108576258D01*
X164233624Y-108402187D01*
X164301544Y-108238215D01*
X164400147Y-108090645D01*
X164525646Y-107965146D01*
X164673216Y-107866543D01*
X164837188Y-107798623D01*
X164986488Y-107768926D01*
X165011258Y-107763999D01*
X165188742Y-107763999D01*
X165213512Y-107768926D01*
G37*
G36*
X153836822Y-99091313D02*
G01*
X153997241Y-99139976D01*
X154145077Y-99218995D01*
X154274659Y-99325341D01*
X154381004Y-99454922D01*
X154381005Y-99454924D01*
X154460024Y-99602758D01*
X154508687Y-99763177D01*
X154521000Y-99888196D01*
X154521000Y-100771803D01*
X154508687Y-100896822D01*
X154460024Y-101057242D01*
X154389114Y-101189906D01*
X154381004Y-101205078D01*
X154274659Y-101334659D01*
X154145078Y-101441004D01*
X154145076Y-101441005D01*
X153997242Y-101520024D01*
X153836823Y-101568687D01*
X153670000Y-101585117D01*
X153503178Y-101568687D01*
X153342759Y-101520024D01*
X153194925Y-101441005D01*
X153194923Y-101441004D01*
X153065342Y-101334659D01*
X152958997Y-101205078D01*
X152950887Y-101189906D01*
X152879977Y-101057242D01*
X152831314Y-100896823D01*
X152819000Y-100771803D01*
X152819000Y-99888197D01*
X152831313Y-99763178D01*
X152879976Y-99602759D01*
X152958995Y-99454923D01*
X153065341Y-99325341D01*
X153194922Y-99218996D01*
X153210094Y-99210886D01*
X153342758Y-99139976D01*
X153503177Y-99091313D01*
X153670000Y-99074883D01*
X153836822Y-99091313D01*
G37*
G36*
X156376822Y-99091313D02*
G01*
X156537241Y-99139976D01*
X156685077Y-99218995D01*
X156814659Y-99325341D01*
X156921004Y-99454922D01*
X156921005Y-99454924D01*
X157000024Y-99602758D01*
X157048687Y-99763177D01*
X157061000Y-99888196D01*
X157061000Y-100771803D01*
X157048687Y-100896822D01*
X157000024Y-101057242D01*
X156929114Y-101189906D01*
X156921004Y-101205078D01*
X156814659Y-101334659D01*
X156685078Y-101441004D01*
X156685076Y-101441005D01*
X156537242Y-101520024D01*
X156376823Y-101568687D01*
X156210000Y-101585117D01*
X156043178Y-101568687D01*
X155882759Y-101520024D01*
X155734925Y-101441005D01*
X155734923Y-101441004D01*
X155605342Y-101334659D01*
X155498997Y-101205078D01*
X155490887Y-101189906D01*
X155419977Y-101057242D01*
X155371314Y-100896823D01*
X155359000Y-100771803D01*
X155359000Y-99888197D01*
X155371313Y-99763178D01*
X155419976Y-99602759D01*
X155498995Y-99454923D01*
X155605341Y-99325341D01*
X155734922Y-99218996D01*
X155750094Y-99210886D01*
X155882758Y-99139976D01*
X156043177Y-99091313D01*
X156210000Y-99074883D01*
X156376822Y-99091313D01*
G37*
G36*
X158916822Y-99091313D02*
G01*
X159077241Y-99139976D01*
X159225077Y-99218995D01*
X159354659Y-99325341D01*
X159461004Y-99454922D01*
X159461005Y-99454924D01*
X159540024Y-99602758D01*
X159588687Y-99763177D01*
X159601000Y-99888196D01*
X159601000Y-100771803D01*
X159588687Y-100896822D01*
X159540024Y-101057242D01*
X159469114Y-101189906D01*
X159461004Y-101205078D01*
X159354659Y-101334659D01*
X159225078Y-101441004D01*
X159225076Y-101441005D01*
X159077242Y-101520024D01*
X158916823Y-101568687D01*
X158750000Y-101585117D01*
X158583178Y-101568687D01*
X158422759Y-101520024D01*
X158274925Y-101441005D01*
X158274923Y-101441004D01*
X158145342Y-101334659D01*
X158038997Y-101205078D01*
X158030887Y-101189906D01*
X157959977Y-101057242D01*
X157911314Y-100896823D01*
X157899000Y-100771803D01*
X157899000Y-99888197D01*
X157911313Y-99763178D01*
X157959976Y-99602759D01*
X158038995Y-99454923D01*
X158145341Y-99325341D01*
X158274922Y-99218996D01*
X158290094Y-99210886D01*
X158422758Y-99139976D01*
X158583177Y-99091313D01*
X158750000Y-99074883D01*
X158916822Y-99091313D01*
G37*
G36*
X161456822Y-99091313D02*
G01*
X161617241Y-99139976D01*
X161765077Y-99218995D01*
X161894659Y-99325341D01*
X162001004Y-99454922D01*
X162001005Y-99454924D01*
X162080024Y-99602758D01*
X162128687Y-99763177D01*
X162141000Y-99888196D01*
X162141000Y-100771803D01*
X162128687Y-100896822D01*
X162080024Y-101057242D01*
X162009114Y-101189906D01*
X162001004Y-101205078D01*
X161894659Y-101334659D01*
X161765078Y-101441004D01*
X161765076Y-101441005D01*
X161617242Y-101520024D01*
X161456823Y-101568687D01*
X161290000Y-101585117D01*
X161123178Y-101568687D01*
X160962759Y-101520024D01*
X160814925Y-101441005D01*
X160814923Y-101441004D01*
X160685342Y-101334659D01*
X160578997Y-101205078D01*
X160570887Y-101189906D01*
X160499977Y-101057242D01*
X160451314Y-100896823D01*
X160439000Y-100771803D01*
X160439000Y-99888197D01*
X160451313Y-99763178D01*
X160499976Y-99602759D01*
X160578995Y-99454923D01*
X160685341Y-99325341D01*
X160814922Y-99218996D01*
X160830094Y-99210886D01*
X160962758Y-99139976D01*
X161123177Y-99091313D01*
X161290000Y-99074883D01*
X161456822Y-99091313D01*
G37*
G36*
X163996822Y-99091313D02*
G01*
X164157241Y-99139976D01*
X164305077Y-99218995D01*
X164434659Y-99325341D01*
X164541004Y-99454922D01*
X164541005Y-99454924D01*
X164620024Y-99602758D01*
X164668687Y-99763177D01*
X164681000Y-99888196D01*
X164681000Y-100771803D01*
X164668687Y-100896822D01*
X164620024Y-101057242D01*
X164549114Y-101189906D01*
X164541004Y-101205078D01*
X164434659Y-101334659D01*
X164305078Y-101441004D01*
X164305076Y-101441005D01*
X164157242Y-101520024D01*
X163996823Y-101568687D01*
X163830000Y-101585117D01*
X163663178Y-101568687D01*
X163502759Y-101520024D01*
X163354925Y-101441005D01*
X163354923Y-101441004D01*
X163225342Y-101334659D01*
X163118997Y-101205078D01*
X163110887Y-101189906D01*
X163039977Y-101057242D01*
X162991314Y-100896823D01*
X162979000Y-100771803D01*
X162979000Y-99888197D01*
X162991313Y-99763178D01*
X163039976Y-99602759D01*
X163118995Y-99454923D01*
X163225341Y-99325341D01*
X163354922Y-99218996D01*
X163370094Y-99210886D01*
X163502758Y-99139976D01*
X163663177Y-99091313D01*
X163830000Y-99074883D01*
X163996822Y-99091313D01*
G37*
G36*
X166536822Y-99091313D02*
G01*
X166697241Y-99139976D01*
X166845077Y-99218995D01*
X166974659Y-99325341D01*
X167081004Y-99454922D01*
X167081005Y-99454924D01*
X167160024Y-99602758D01*
X167208687Y-99763177D01*
X167221000Y-99888196D01*
X167221000Y-100771803D01*
X167208687Y-100896822D01*
X167160024Y-101057242D01*
X167089114Y-101189906D01*
X167081004Y-101205078D01*
X166974659Y-101334659D01*
X166845078Y-101441004D01*
X166845076Y-101441005D01*
X166697242Y-101520024D01*
X166536823Y-101568687D01*
X166370000Y-101585117D01*
X166203178Y-101568687D01*
X166042759Y-101520024D01*
X165894925Y-101441005D01*
X165894923Y-101441004D01*
X165765342Y-101334659D01*
X165658997Y-101205078D01*
X165650887Y-101189906D01*
X165579977Y-101057242D01*
X165531314Y-100896823D01*
X165519000Y-100771803D01*
X165519000Y-99888197D01*
X165531313Y-99763178D01*
X165579976Y-99602759D01*
X165658995Y-99454923D01*
X165765341Y-99325341D01*
X165894922Y-99218996D01*
X165910094Y-99210886D01*
X166042758Y-99139976D01*
X166203177Y-99091313D01*
X166370000Y-99074883D01*
X166536822Y-99091313D01*
G37*
G36*
X169076822Y-99091313D02*
G01*
X169237241Y-99139976D01*
X169385077Y-99218995D01*
X169514659Y-99325341D01*
X169621004Y-99454922D01*
X169621005Y-99454924D01*
X169700024Y-99602758D01*
X169748687Y-99763177D01*
X169761000Y-99888196D01*
X169761000Y-100771803D01*
X169748687Y-100896822D01*
X169700024Y-101057242D01*
X169629114Y-101189906D01*
X169621004Y-101205078D01*
X169514659Y-101334659D01*
X169385078Y-101441004D01*
X169385076Y-101441005D01*
X169237242Y-101520024D01*
X169076823Y-101568687D01*
X168910000Y-101585117D01*
X168743178Y-101568687D01*
X168582759Y-101520024D01*
X168434925Y-101441005D01*
X168434923Y-101441004D01*
X168305342Y-101334659D01*
X168198997Y-101205078D01*
X168190887Y-101189906D01*
X168119977Y-101057242D01*
X168071314Y-100896823D01*
X168059000Y-100771803D01*
X168059000Y-99888197D01*
X168071313Y-99763178D01*
X168119976Y-99602759D01*
X168198995Y-99454923D01*
X168305341Y-99325341D01*
X168434922Y-99218996D01*
X168450094Y-99210886D01*
X168582758Y-99139976D01*
X168743177Y-99091313D01*
X168910000Y-99074883D01*
X169076822Y-99091313D01*
G37*
G36*
X151981000Y-101581000D02*
G01*
X150279000Y-101581000D01*
X150279000Y-99079000D01*
X151981000Y-99079000D01*
X151981000Y-101581000D01*
G37*
G36*
X146776000Y-100231000D02*
G01*
X145324000Y-100231000D01*
X145324000Y-98779000D01*
X146776000Y-98779000D01*
X146776000Y-100231000D01*
G37*
G36*
X146261766Y-96806899D02*
G01*
X146393888Y-96861626D01*
X146393890Y-96861627D01*
X146512798Y-96941079D01*
X146613921Y-97042202D01*
X146613922Y-97042204D01*
X146693374Y-97161112D01*
X146748101Y-97293234D01*
X146776000Y-97433494D01*
X146776000Y-97576506D01*
X146748101Y-97716766D01*
X146693374Y-97848888D01*
X146693373Y-97848890D01*
X146613921Y-97967798D01*
X146512798Y-98068921D01*
X146393890Y-98148373D01*
X146393889Y-98148374D01*
X146393888Y-98148374D01*
X146261766Y-98203101D01*
X146121506Y-98231000D01*
X145978494Y-98231000D01*
X145838234Y-98203101D01*
X145706112Y-98148374D01*
X145706111Y-98148374D01*
X145706110Y-98148373D01*
X145587202Y-98068921D01*
X145486079Y-97967798D01*
X145406627Y-97848890D01*
X145406626Y-97848888D01*
X145351899Y-97716766D01*
X145324000Y-97576506D01*
X145324000Y-97433494D01*
X145351899Y-97293234D01*
X145406626Y-97161112D01*
X145486078Y-97042204D01*
X145486079Y-97042202D01*
X145587202Y-96941079D01*
X145706110Y-96861627D01*
X145706112Y-96861626D01*
X145838234Y-96806899D01*
X145978494Y-96779000D01*
X146121506Y-96779000D01*
X146261766Y-96806899D01*
G37*
G36*
X122352585Y-94998802D02*
G01*
X122502410Y-95028604D01*
X122784674Y-95145521D01*
X123038705Y-95315259D01*
X123254741Y-95531295D01*
X123424479Y-95785326D01*
X123541396Y-96067590D01*
X123601000Y-96367240D01*
X123601000Y-96672760D01*
X123541396Y-96972410D01*
X123424479Y-97254674D01*
X123254741Y-97508705D01*
X123038705Y-97724741D01*
X122784674Y-97894479D01*
X122502410Y-98011396D01*
X122352585Y-98041198D01*
X122202761Y-98071000D01*
X121897239Y-98071000D01*
X121747415Y-98041198D01*
X121597590Y-98011396D01*
X121315326Y-97894479D01*
X121061295Y-97724741D01*
X120845259Y-97508705D01*
X120675521Y-97254674D01*
X120558604Y-96972410D01*
X120499000Y-96672760D01*
X120499000Y-96367240D01*
X120558604Y-96067590D01*
X120675521Y-95785326D01*
X120845259Y-95531295D01*
X121061295Y-95315259D01*
X121315326Y-95145521D01*
X121597590Y-95028604D01*
X121747415Y-94998802D01*
X121897239Y-94969000D01*
X122202761Y-94969000D01*
X122352585Y-94998802D01*
G37*
G36*
X146261766Y-94806899D02*
G01*
X146393888Y-94861626D01*
X146393890Y-94861627D01*
X146512798Y-94941079D01*
X146613921Y-95042202D01*
X146693373Y-95161110D01*
X146693374Y-95161112D01*
X146748101Y-95293234D01*
X146776000Y-95433494D01*
X146776000Y-95576506D01*
X146748101Y-95716766D01*
X146693374Y-95848888D01*
X146693373Y-95848890D01*
X146613921Y-95967798D01*
X146512798Y-96068921D01*
X146393890Y-96148373D01*
X146393889Y-96148374D01*
X146393888Y-96148374D01*
X146261766Y-96203101D01*
X146121506Y-96231000D01*
X145978494Y-96231000D01*
X145838234Y-96203101D01*
X145706112Y-96148374D01*
X145706111Y-96148374D01*
X145706110Y-96148373D01*
X145587202Y-96068921D01*
X145486079Y-95967798D01*
X145406627Y-95848890D01*
X145406626Y-95848888D01*
X145351899Y-95716766D01*
X145324000Y-95576506D01*
X145324000Y-95433494D01*
X145351899Y-95293234D01*
X145406626Y-95161112D01*
X145406627Y-95161110D01*
X145486079Y-95042202D01*
X145587202Y-94941079D01*
X145706110Y-94861627D01*
X145706112Y-94861626D01*
X145838234Y-94806899D01*
X145978494Y-94779000D01*
X146121506Y-94779000D01*
X146261766Y-94806899D01*
G37*
G36*
X146261766Y-92806899D02*
G01*
X146393888Y-92861626D01*
X146393890Y-92861627D01*
X146512798Y-92941079D01*
X146613921Y-93042202D01*
X146613922Y-93042204D01*
X146693374Y-93161112D01*
X146748101Y-93293234D01*
X146776000Y-93433494D01*
X146776000Y-93576506D01*
X146748101Y-93716766D01*
X146693374Y-93848888D01*
X146693373Y-93848890D01*
X146613921Y-93967798D01*
X146512798Y-94068921D01*
X146393890Y-94148373D01*
X146393889Y-94148374D01*
X146393888Y-94148374D01*
X146261766Y-94203101D01*
X146121506Y-94231000D01*
X145978494Y-94231000D01*
X145838234Y-94203101D01*
X145706112Y-94148374D01*
X145706111Y-94148374D01*
X145706110Y-94148373D01*
X145587202Y-94068921D01*
X145486079Y-93967798D01*
X145406627Y-93848890D01*
X145406626Y-93848888D01*
X145351899Y-93716766D01*
X145324000Y-93576506D01*
X145324000Y-93433494D01*
X145351899Y-93293234D01*
X145406626Y-93161112D01*
X145486078Y-93042204D01*
X145486079Y-93042202D01*
X145587202Y-92941079D01*
X145706110Y-92861627D01*
X145706112Y-92861626D01*
X145838234Y-92806899D01*
X145978494Y-92779000D01*
X146121506Y-92779000D01*
X146261766Y-92806899D01*
G37*
G36*
X151296822Y-91471313D02*
G01*
X151457241Y-91519976D01*
X151605077Y-91598995D01*
X151734659Y-91705341D01*
X151841004Y-91834922D01*
X151841005Y-91834924D01*
X151920024Y-91982758D01*
X151968687Y-92143177D01*
X151981000Y-92268196D01*
X151981000Y-93151803D01*
X151968687Y-93276822D01*
X151920024Y-93437242D01*
X151849114Y-93569906D01*
X151841004Y-93585078D01*
X151734659Y-93714659D01*
X151605078Y-93821004D01*
X151605076Y-93821005D01*
X151457242Y-93900024D01*
X151296823Y-93948687D01*
X151130000Y-93965117D01*
X150963178Y-93948687D01*
X150802759Y-93900024D01*
X150654925Y-93821005D01*
X150654923Y-93821004D01*
X150525342Y-93714659D01*
X150418997Y-93585078D01*
X150410887Y-93569906D01*
X150339977Y-93437242D01*
X150291314Y-93276823D01*
X150279000Y-93151803D01*
X150279000Y-92268197D01*
X150291313Y-92143178D01*
X150339976Y-91982759D01*
X150418995Y-91834923D01*
X150525341Y-91705341D01*
X150654922Y-91598996D01*
X150670094Y-91590886D01*
X150802758Y-91519976D01*
X150963177Y-91471313D01*
X151130000Y-91454883D01*
X151296822Y-91471313D01*
G37*
G36*
X153836822Y-91471313D02*
G01*
X153997241Y-91519976D01*
X154145077Y-91598995D01*
X154274659Y-91705341D01*
X154381004Y-91834922D01*
X154381005Y-91834924D01*
X154460024Y-91982758D01*
X154508687Y-92143177D01*
X154521000Y-92268196D01*
X154521000Y-93151803D01*
X154508687Y-93276822D01*
X154460024Y-93437242D01*
X154389114Y-93569906D01*
X154381004Y-93585078D01*
X154274659Y-93714659D01*
X154145078Y-93821004D01*
X154145076Y-93821005D01*
X153997242Y-93900024D01*
X153836823Y-93948687D01*
X153670000Y-93965117D01*
X153503178Y-93948687D01*
X153342759Y-93900024D01*
X153194925Y-93821005D01*
X153194923Y-93821004D01*
X153065342Y-93714659D01*
X152958997Y-93585078D01*
X152950887Y-93569906D01*
X152879977Y-93437242D01*
X152831314Y-93276823D01*
X152819000Y-93151803D01*
X152819000Y-92268197D01*
X152831313Y-92143178D01*
X152879976Y-91982759D01*
X152958995Y-91834923D01*
X153065341Y-91705341D01*
X153194922Y-91598996D01*
X153210094Y-91590886D01*
X153342758Y-91519976D01*
X153503177Y-91471313D01*
X153670000Y-91454883D01*
X153836822Y-91471313D01*
G37*
G36*
X156376822Y-91471313D02*
G01*
X156537241Y-91519976D01*
X156685077Y-91598995D01*
X156814659Y-91705341D01*
X156921004Y-91834922D01*
X156921005Y-91834924D01*
X157000024Y-91982758D01*
X157048687Y-92143177D01*
X157061000Y-92268196D01*
X157061000Y-93151803D01*
X157048687Y-93276822D01*
X157000024Y-93437242D01*
X156929114Y-93569906D01*
X156921004Y-93585078D01*
X156814659Y-93714659D01*
X156685078Y-93821004D01*
X156685076Y-93821005D01*
X156537242Y-93900024D01*
X156376823Y-93948687D01*
X156210000Y-93965117D01*
X156043178Y-93948687D01*
X155882759Y-93900024D01*
X155734925Y-93821005D01*
X155734923Y-93821004D01*
X155605342Y-93714659D01*
X155498997Y-93585078D01*
X155490887Y-93569906D01*
X155419977Y-93437242D01*
X155371314Y-93276823D01*
X155359000Y-93151803D01*
X155359000Y-92268197D01*
X155371313Y-92143178D01*
X155419976Y-91982759D01*
X155498995Y-91834923D01*
X155605341Y-91705341D01*
X155734922Y-91598996D01*
X155750094Y-91590886D01*
X155882758Y-91519976D01*
X156043177Y-91471313D01*
X156210000Y-91454883D01*
X156376822Y-91471313D01*
G37*
G36*
X158916822Y-91471313D02*
G01*
X159077241Y-91519976D01*
X159225077Y-91598995D01*
X159354659Y-91705341D01*
X159461004Y-91834922D01*
X159461005Y-91834924D01*
X159540024Y-91982758D01*
X159588687Y-92143177D01*
X159601000Y-92268196D01*
X159601000Y-93151803D01*
X159588687Y-93276822D01*
X159540024Y-93437242D01*
X159469114Y-93569906D01*
X159461004Y-93585078D01*
X159354659Y-93714659D01*
X159225078Y-93821004D01*
X159225076Y-93821005D01*
X159077242Y-93900024D01*
X158916823Y-93948687D01*
X158750000Y-93965117D01*
X158583178Y-93948687D01*
X158422759Y-93900024D01*
X158274925Y-93821005D01*
X158274923Y-93821004D01*
X158145342Y-93714659D01*
X158038997Y-93585078D01*
X158030887Y-93569906D01*
X157959977Y-93437242D01*
X157911314Y-93276823D01*
X157899000Y-93151803D01*
X157899000Y-92268197D01*
X157911313Y-92143178D01*
X157959976Y-91982759D01*
X158038995Y-91834923D01*
X158145341Y-91705341D01*
X158274922Y-91598996D01*
X158290094Y-91590886D01*
X158422758Y-91519976D01*
X158583177Y-91471313D01*
X158750000Y-91454883D01*
X158916822Y-91471313D01*
G37*
G36*
X161456822Y-91471313D02*
G01*
X161617241Y-91519976D01*
X161765077Y-91598995D01*
X161894659Y-91705341D01*
X162001004Y-91834922D01*
X162001005Y-91834924D01*
X162080024Y-91982758D01*
X162128687Y-92143177D01*
X162141000Y-92268196D01*
X162141000Y-93151803D01*
X162128687Y-93276822D01*
X162080024Y-93437242D01*
X162009114Y-93569906D01*
X162001004Y-93585078D01*
X161894659Y-93714659D01*
X161765078Y-93821004D01*
X161765076Y-93821005D01*
X161617242Y-93900024D01*
X161456823Y-93948687D01*
X161290000Y-93965117D01*
X161123178Y-93948687D01*
X160962759Y-93900024D01*
X160814925Y-93821005D01*
X160814923Y-93821004D01*
X160685342Y-93714659D01*
X160578997Y-93585078D01*
X160570887Y-93569906D01*
X160499977Y-93437242D01*
X160451314Y-93276823D01*
X160439000Y-93151803D01*
X160439000Y-92268197D01*
X160451313Y-92143178D01*
X160499976Y-91982759D01*
X160578995Y-91834923D01*
X160685341Y-91705341D01*
X160814922Y-91598996D01*
X160830094Y-91590886D01*
X160962758Y-91519976D01*
X161123177Y-91471313D01*
X161290000Y-91454883D01*
X161456822Y-91471313D01*
G37*
G36*
X166536822Y-91471313D02*
G01*
X166697241Y-91519976D01*
X166845077Y-91598995D01*
X166974659Y-91705341D01*
X167081004Y-91834922D01*
X167081005Y-91834924D01*
X167160024Y-91982758D01*
X167208687Y-92143177D01*
X167221000Y-92268196D01*
X167221000Y-93151803D01*
X167208687Y-93276822D01*
X167160024Y-93437242D01*
X167089114Y-93569906D01*
X167081004Y-93585078D01*
X166974659Y-93714659D01*
X166845078Y-93821004D01*
X166845076Y-93821005D01*
X166697242Y-93900024D01*
X166536823Y-93948687D01*
X166370000Y-93965117D01*
X166203178Y-93948687D01*
X166042759Y-93900024D01*
X165894925Y-93821005D01*
X165894923Y-93821004D01*
X165765342Y-93714659D01*
X165658997Y-93585078D01*
X165650887Y-93569906D01*
X165579977Y-93437242D01*
X165531314Y-93276823D01*
X165519000Y-93151803D01*
X165519000Y-92268197D01*
X165531313Y-92143178D01*
X165579976Y-91982759D01*
X165658995Y-91834923D01*
X165765341Y-91705341D01*
X165894922Y-91598996D01*
X165910094Y-91590886D01*
X166042758Y-91519976D01*
X166203177Y-91471313D01*
X166370000Y-91454883D01*
X166536822Y-91471313D01*
G37*
G36*
X169076822Y-91471313D02*
G01*
X169237241Y-91519976D01*
X169385077Y-91598995D01*
X169514659Y-91705341D01*
X169621004Y-91834922D01*
X169621005Y-91834924D01*
X169700024Y-91982758D01*
X169748687Y-92143177D01*
X169761000Y-92268196D01*
X169761000Y-93151803D01*
X169748687Y-93276822D01*
X169700024Y-93437242D01*
X169629114Y-93569906D01*
X169621004Y-93585078D01*
X169514659Y-93714659D01*
X169385078Y-93821004D01*
X169385076Y-93821005D01*
X169237242Y-93900024D01*
X169076823Y-93948687D01*
X168910000Y-93965117D01*
X168743178Y-93948687D01*
X168582759Y-93900024D01*
X168434925Y-93821005D01*
X168434923Y-93821004D01*
X168305342Y-93714659D01*
X168198997Y-93585078D01*
X168190887Y-93569906D01*
X168119977Y-93437242D01*
X168071314Y-93276823D01*
X168059000Y-93151803D01*
X168059000Y-92268197D01*
X168071313Y-92143178D01*
X168119976Y-91982759D01*
X168198995Y-91834923D01*
X168305341Y-91705341D01*
X168434922Y-91598996D01*
X168450094Y-91590886D01*
X168582758Y-91519976D01*
X168743177Y-91471313D01*
X168910000Y-91454883D01*
X169076822Y-91471313D01*
G37*
G36*
X163996822Y-91471313D02*
G01*
X164157241Y-91519976D01*
X164305077Y-91598995D01*
X164434659Y-91705341D01*
X164541004Y-91834922D01*
X164541005Y-91834924D01*
X164620024Y-91982758D01*
X164668687Y-92143177D01*
X164681000Y-92268196D01*
X164681000Y-93151803D01*
X164668687Y-93276822D01*
X164620024Y-93437242D01*
X164549114Y-93569906D01*
X164541004Y-93585078D01*
X164434659Y-93714659D01*
X164305078Y-93821004D01*
X164305076Y-93821005D01*
X164157242Y-93900024D01*
X163996823Y-93948687D01*
X163830000Y-93965117D01*
X163663178Y-93948687D01*
X163502759Y-93900024D01*
X163354925Y-93821005D01*
X163354923Y-93821004D01*
X163225342Y-93714659D01*
X163118997Y-93585078D01*
X163110887Y-93569906D01*
X163039977Y-93437242D01*
X162991314Y-93276823D01*
X162979000Y-93151803D01*
X162979000Y-92268197D01*
X162991313Y-92143178D01*
X163039976Y-91982759D01*
X163118995Y-91834923D01*
X163225341Y-91705341D01*
X163354922Y-91598996D01*
X163370094Y-91590886D01*
X163502758Y-91519976D01*
X163663177Y-91471313D01*
X163830000Y-91454883D01*
X163996822Y-91471313D01*
G37*
G36*
X166483512Y-82923927D02*
G01*
X166632812Y-82953624D01*
X166796784Y-83021544D01*
X166944354Y-83120147D01*
X167069853Y-83245646D01*
X167168456Y-83393216D01*
X167236376Y-83557188D01*
X167271000Y-83731259D01*
X167271000Y-83908741D01*
X167236376Y-84082812D01*
X167168456Y-84246784D01*
X167069853Y-84394354D01*
X166944354Y-84519853D01*
X166796784Y-84618456D01*
X166632812Y-84686376D01*
X166483512Y-84716073D01*
X166458742Y-84721000D01*
X166281258Y-84721000D01*
X166256488Y-84716073D01*
X166107188Y-84686376D01*
X165943216Y-84618456D01*
X165795646Y-84519853D01*
X165670147Y-84394354D01*
X165571544Y-84246784D01*
X165503624Y-84082812D01*
X165469000Y-83908741D01*
X165469000Y-83731259D01*
X165503624Y-83557188D01*
X165571544Y-83393216D01*
X165670147Y-83245646D01*
X165795646Y-83120147D01*
X165943216Y-83021544D01*
X166107188Y-82953624D01*
X166256488Y-82923927D01*
X166281258Y-82919000D01*
X166458742Y-82919000D01*
X166483512Y-82923927D01*
G37*
G36*
X169023512Y-82923927D02*
G01*
X169172812Y-82953624D01*
X169336784Y-83021544D01*
X169484354Y-83120147D01*
X169609853Y-83245646D01*
X169708456Y-83393216D01*
X169776376Y-83557188D01*
X169811000Y-83731259D01*
X169811000Y-83908741D01*
X169776376Y-84082812D01*
X169708456Y-84246784D01*
X169609853Y-84394354D01*
X169484354Y-84519853D01*
X169336784Y-84618456D01*
X169172812Y-84686376D01*
X169023512Y-84716073D01*
X168998742Y-84721000D01*
X168821258Y-84721000D01*
X168796488Y-84716073D01*
X168647188Y-84686376D01*
X168483216Y-84618456D01*
X168335646Y-84519853D01*
X168210147Y-84394354D01*
X168111544Y-84246784D01*
X168043624Y-84082812D01*
X168009000Y-83908741D01*
X168009000Y-83731259D01*
X168043624Y-83557188D01*
X168111544Y-83393216D01*
X168210147Y-83245646D01*
X168335646Y-83120147D01*
X168483216Y-83021544D01*
X168647188Y-82953624D01*
X168796488Y-82923927D01*
X168821258Y-82919000D01*
X168998742Y-82919000D01*
X169023512Y-82923927D01*
G37*
G36*
X163943512Y-82923927D02*
G01*
X164092812Y-82953624D01*
X164256784Y-83021544D01*
X164404354Y-83120147D01*
X164529853Y-83245646D01*
X164628456Y-83393216D01*
X164696376Y-83557188D01*
X164731000Y-83731259D01*
X164731000Y-83908741D01*
X164696376Y-84082812D01*
X164628456Y-84246784D01*
X164529853Y-84394354D01*
X164404354Y-84519853D01*
X164256784Y-84618456D01*
X164092812Y-84686376D01*
X163943512Y-84716073D01*
X163918742Y-84721000D01*
X163741258Y-84721000D01*
X163716488Y-84716073D01*
X163567188Y-84686376D01*
X163403216Y-84618456D01*
X163255646Y-84519853D01*
X163130147Y-84394354D01*
X163031544Y-84246784D01*
X162963624Y-84082812D01*
X162929000Y-83908741D01*
X162929000Y-83731259D01*
X162963624Y-83557188D01*
X163031544Y-83393216D01*
X163130147Y-83245646D01*
X163255646Y-83120147D01*
X163403216Y-83021544D01*
X163567188Y-82953624D01*
X163716488Y-82923927D01*
X163741258Y-82919000D01*
X163918742Y-82919000D01*
X163943512Y-82923927D01*
G37*
G36*
X161403512Y-82923927D02*
G01*
X161552812Y-82953624D01*
X161716784Y-83021544D01*
X161864354Y-83120147D01*
X161989853Y-83245646D01*
X162088456Y-83393216D01*
X162156376Y-83557188D01*
X162191000Y-83731259D01*
X162191000Y-83908741D01*
X162156376Y-84082812D01*
X162088456Y-84246784D01*
X161989853Y-84394354D01*
X161864354Y-84519853D01*
X161716784Y-84618456D01*
X161552812Y-84686376D01*
X161403512Y-84716073D01*
X161378742Y-84721000D01*
X161201258Y-84721000D01*
X161176488Y-84716073D01*
X161027188Y-84686376D01*
X160863216Y-84618456D01*
X160715646Y-84519853D01*
X160590147Y-84394354D01*
X160491544Y-84246784D01*
X160423624Y-84082812D01*
X160389000Y-83908741D01*
X160389000Y-83731259D01*
X160423624Y-83557188D01*
X160491544Y-83393216D01*
X160590147Y-83245646D01*
X160715646Y-83120147D01*
X160863216Y-83021544D01*
X161027188Y-82953624D01*
X161176488Y-82923927D01*
X161201258Y-82919000D01*
X161378742Y-82919000D01*
X161403512Y-82923927D01*
G37*
G36*
X158863512Y-82923927D02*
G01*
X159012812Y-82953624D01*
X159176784Y-83021544D01*
X159324354Y-83120147D01*
X159449853Y-83245646D01*
X159548456Y-83393216D01*
X159616376Y-83557188D01*
X159651000Y-83731259D01*
X159651000Y-83908741D01*
X159616376Y-84082812D01*
X159548456Y-84246784D01*
X159449853Y-84394354D01*
X159324354Y-84519853D01*
X159176784Y-84618456D01*
X159012812Y-84686376D01*
X158863512Y-84716073D01*
X158838742Y-84721000D01*
X158661258Y-84721000D01*
X158636488Y-84716073D01*
X158487188Y-84686376D01*
X158323216Y-84618456D01*
X158175646Y-84519853D01*
X158050147Y-84394354D01*
X157951544Y-84246784D01*
X157883624Y-84082812D01*
X157849000Y-83908741D01*
X157849000Y-83731259D01*
X157883624Y-83557188D01*
X157951544Y-83393216D01*
X158050147Y-83245646D01*
X158175646Y-83120147D01*
X158323216Y-83021544D01*
X158487188Y-82953624D01*
X158636488Y-82923927D01*
X158661258Y-82919000D01*
X158838742Y-82919000D01*
X158863512Y-82923927D01*
G37*
G36*
X156323512Y-82923927D02*
G01*
X156472812Y-82953624D01*
X156636784Y-83021544D01*
X156784354Y-83120147D01*
X156909853Y-83245646D01*
X157008456Y-83393216D01*
X157076376Y-83557188D01*
X157111000Y-83731259D01*
X157111000Y-83908741D01*
X157076376Y-84082812D01*
X157008456Y-84246784D01*
X156909853Y-84394354D01*
X156784354Y-84519853D01*
X156636784Y-84618456D01*
X156472812Y-84686376D01*
X156323512Y-84716073D01*
X156298742Y-84721000D01*
X156121258Y-84721000D01*
X156096488Y-84716073D01*
X155947188Y-84686376D01*
X155783216Y-84618456D01*
X155635646Y-84519853D01*
X155510147Y-84394354D01*
X155411544Y-84246784D01*
X155343624Y-84082812D01*
X155309000Y-83908741D01*
X155309000Y-83731259D01*
X155343624Y-83557188D01*
X155411544Y-83393216D01*
X155510147Y-83245646D01*
X155635646Y-83120147D01*
X155783216Y-83021544D01*
X155947188Y-82953624D01*
X156096488Y-82923927D01*
X156121258Y-82919000D01*
X156298742Y-82919000D01*
X156323512Y-82923927D01*
G37*
G36*
X153783512Y-82923927D02*
G01*
X153932812Y-82953624D01*
X154096784Y-83021544D01*
X154244354Y-83120147D01*
X154369853Y-83245646D01*
X154468456Y-83393216D01*
X154536376Y-83557188D01*
X154571000Y-83731259D01*
X154571000Y-83908741D01*
X154536376Y-84082812D01*
X154468456Y-84246784D01*
X154369853Y-84394354D01*
X154244354Y-84519853D01*
X154096784Y-84618456D01*
X153932812Y-84686376D01*
X153783512Y-84716073D01*
X153758742Y-84721000D01*
X153581258Y-84721000D01*
X153556488Y-84716073D01*
X153407188Y-84686376D01*
X153243216Y-84618456D01*
X153095646Y-84519853D01*
X152970147Y-84394354D01*
X152871544Y-84246784D01*
X152803624Y-84082812D01*
X152769000Y-83908741D01*
X152769000Y-83731259D01*
X152803624Y-83557188D01*
X152871544Y-83393216D01*
X152970147Y-83245646D01*
X153095646Y-83120147D01*
X153243216Y-83021544D01*
X153407188Y-82953624D01*
X153556488Y-82923927D01*
X153581258Y-82919000D01*
X153758742Y-82919000D01*
X153783512Y-82923927D01*
G37*
G36*
X151243512Y-82923927D02*
G01*
X151392812Y-82953624D01*
X151556784Y-83021544D01*
X151704354Y-83120147D01*
X151829853Y-83245646D01*
X151928456Y-83393216D01*
X151996376Y-83557188D01*
X152031000Y-83731259D01*
X152031000Y-83908741D01*
X151996376Y-84082812D01*
X151928456Y-84246784D01*
X151829853Y-84394354D01*
X151704354Y-84519853D01*
X151556784Y-84618456D01*
X151392812Y-84686376D01*
X151243512Y-84716073D01*
X151218742Y-84721000D01*
X151041258Y-84721000D01*
X151016488Y-84716073D01*
X150867188Y-84686376D01*
X150703216Y-84618456D01*
X150555646Y-84519853D01*
X150430147Y-84394354D01*
X150331544Y-84246784D01*
X150263624Y-84082812D01*
X150229000Y-83908741D01*
X150229000Y-83731259D01*
X150263624Y-83557188D01*
X150331544Y-83393216D01*
X150430147Y-83245646D01*
X150555646Y-83120147D01*
X150703216Y-83021544D01*
X150867188Y-82953624D01*
X151016488Y-82923927D01*
X151041258Y-82919000D01*
X151218742Y-82919000D01*
X151243512Y-82923927D01*
G37*
G36*
X148703512Y-82923927D02*
G01*
X148852812Y-82953624D01*
X149016784Y-83021544D01*
X149164354Y-83120147D01*
X149289853Y-83245646D01*
X149388456Y-83393216D01*
X149456376Y-83557188D01*
X149491000Y-83731259D01*
X149491000Y-83908741D01*
X149456376Y-84082812D01*
X149388456Y-84246784D01*
X149289853Y-84394354D01*
X149164354Y-84519853D01*
X149016784Y-84618456D01*
X148852812Y-84686376D01*
X148703512Y-84716073D01*
X148678742Y-84721000D01*
X148501258Y-84721000D01*
X148476488Y-84716073D01*
X148327188Y-84686376D01*
X148163216Y-84618456D01*
X148015646Y-84519853D01*
X147890147Y-84394354D01*
X147791544Y-84246784D01*
X147723624Y-84082812D01*
X147689000Y-83908741D01*
X147689000Y-83731259D01*
X147723624Y-83557188D01*
X147791544Y-83393216D01*
X147890147Y-83245646D01*
X148015646Y-83120147D01*
X148163216Y-83021544D01*
X148327188Y-82953624D01*
X148476488Y-82923927D01*
X148501258Y-82919000D01*
X148678742Y-82919000D01*
X148703512Y-82923927D01*
G37*
G36*
X138543512Y-82923927D02*
G01*
X138692812Y-82953624D01*
X138856784Y-83021544D01*
X139004354Y-83120147D01*
X139129853Y-83245646D01*
X139228456Y-83393216D01*
X139296376Y-83557188D01*
X139331000Y-83731259D01*
X139331000Y-83908741D01*
X139296376Y-84082812D01*
X139228456Y-84246784D01*
X139129853Y-84394354D01*
X139004354Y-84519853D01*
X138856784Y-84618456D01*
X138692812Y-84686376D01*
X138543512Y-84716073D01*
X138518742Y-84721000D01*
X138341258Y-84721000D01*
X138316488Y-84716073D01*
X138167188Y-84686376D01*
X138003216Y-84618456D01*
X137855646Y-84519853D01*
X137730147Y-84394354D01*
X137631544Y-84246784D01*
X137563624Y-84082812D01*
X137529000Y-83908741D01*
X137529000Y-83731259D01*
X137563624Y-83557188D01*
X137631544Y-83393216D01*
X137730147Y-83245646D01*
X137855646Y-83120147D01*
X138003216Y-83021544D01*
X138167188Y-82953624D01*
X138316488Y-82923927D01*
X138341258Y-82919000D01*
X138518742Y-82919000D01*
X138543512Y-82923927D01*
G37*
G36*
X141083512Y-82923927D02*
G01*
X141232812Y-82953624D01*
X141396784Y-83021544D01*
X141544354Y-83120147D01*
X141669853Y-83245646D01*
X141768456Y-83393216D01*
X141836376Y-83557188D01*
X141871000Y-83731259D01*
X141871000Y-83908741D01*
X141836376Y-84082812D01*
X141768456Y-84246784D01*
X141669853Y-84394354D01*
X141544354Y-84519853D01*
X141396784Y-84618456D01*
X141232812Y-84686376D01*
X141083512Y-84716073D01*
X141058742Y-84721000D01*
X140881258Y-84721000D01*
X140856488Y-84716073D01*
X140707188Y-84686376D01*
X140543216Y-84618456D01*
X140395646Y-84519853D01*
X140270147Y-84394354D01*
X140171544Y-84246784D01*
X140103624Y-84082812D01*
X140069000Y-83908741D01*
X140069000Y-83731259D01*
X140103624Y-83557188D01*
X140171544Y-83393216D01*
X140270147Y-83245646D01*
X140395646Y-83120147D01*
X140543216Y-83021544D01*
X140707188Y-82953624D01*
X140856488Y-82923927D01*
X140881258Y-82919000D01*
X141058742Y-82919000D01*
X141083512Y-82923927D01*
G37*
G36*
X143623512Y-82923927D02*
G01*
X143772812Y-82953624D01*
X143936784Y-83021544D01*
X144084354Y-83120147D01*
X144209853Y-83245646D01*
X144308456Y-83393216D01*
X144376376Y-83557188D01*
X144411000Y-83731259D01*
X144411000Y-83908741D01*
X144376376Y-84082812D01*
X144308456Y-84246784D01*
X144209853Y-84394354D01*
X144084354Y-84519853D01*
X143936784Y-84618456D01*
X143772812Y-84686376D01*
X143623512Y-84716073D01*
X143598742Y-84721000D01*
X143421258Y-84721000D01*
X143396488Y-84716073D01*
X143247188Y-84686376D01*
X143083216Y-84618456D01*
X142935646Y-84519853D01*
X142810147Y-84394354D01*
X142711544Y-84246784D01*
X142643624Y-84082812D01*
X142609000Y-83908741D01*
X142609000Y-83731259D01*
X142643624Y-83557188D01*
X142711544Y-83393216D01*
X142810147Y-83245646D01*
X142935646Y-83120147D01*
X143083216Y-83021544D01*
X143247188Y-82953624D01*
X143396488Y-82923927D01*
X143421258Y-82919000D01*
X143598742Y-82919000D01*
X143623512Y-82923927D01*
G37*
G36*
X130923512Y-82923927D02*
G01*
X131072812Y-82953624D01*
X131236784Y-83021544D01*
X131384354Y-83120147D01*
X131509853Y-83245646D01*
X131608456Y-83393216D01*
X131676376Y-83557188D01*
X131711000Y-83731259D01*
X131711000Y-83908741D01*
X131676376Y-84082812D01*
X131608456Y-84246784D01*
X131509853Y-84394354D01*
X131384354Y-84519853D01*
X131236784Y-84618456D01*
X131072812Y-84686376D01*
X130923512Y-84716073D01*
X130898742Y-84721000D01*
X130721258Y-84721000D01*
X130696488Y-84716073D01*
X130547188Y-84686376D01*
X130383216Y-84618456D01*
X130235646Y-84519853D01*
X130110147Y-84394354D01*
X130011544Y-84246784D01*
X129943624Y-84082812D01*
X129909000Y-83908741D01*
X129909000Y-83731259D01*
X129943624Y-83557188D01*
X130011544Y-83393216D01*
X130110147Y-83245646D01*
X130235646Y-83120147D01*
X130383216Y-83021544D01*
X130547188Y-82953624D01*
X130696488Y-82923927D01*
X130721258Y-82919000D01*
X130898742Y-82919000D01*
X130923512Y-82923927D01*
G37*
G36*
X146163512Y-82923927D02*
G01*
X146312812Y-82953624D01*
X146476784Y-83021544D01*
X146624354Y-83120147D01*
X146749853Y-83245646D01*
X146848456Y-83393216D01*
X146916376Y-83557188D01*
X146951000Y-83731259D01*
X146951000Y-83908741D01*
X146916376Y-84082812D01*
X146848456Y-84246784D01*
X146749853Y-84394354D01*
X146624354Y-84519853D01*
X146476784Y-84618456D01*
X146312812Y-84686376D01*
X146163512Y-84716073D01*
X146138742Y-84721000D01*
X145961258Y-84721000D01*
X145936488Y-84716073D01*
X145787188Y-84686376D01*
X145623216Y-84618456D01*
X145475646Y-84519853D01*
X145350147Y-84394354D01*
X145251544Y-84246784D01*
X145183624Y-84082812D01*
X145149000Y-83908741D01*
X145149000Y-83731259D01*
X145183624Y-83557188D01*
X145251544Y-83393216D01*
X145350147Y-83245646D01*
X145475646Y-83120147D01*
X145623216Y-83021544D01*
X145787188Y-82953624D01*
X145936488Y-82923927D01*
X145961258Y-82919000D01*
X146138742Y-82919000D01*
X146163512Y-82923927D01*
G37*
G36*
X128383512Y-82923927D02*
G01*
X128532812Y-82953624D01*
X128696784Y-83021544D01*
X128844354Y-83120147D01*
X128969853Y-83245646D01*
X129068456Y-83393216D01*
X129136376Y-83557188D01*
X129171000Y-83731259D01*
X129171000Y-83908741D01*
X129136376Y-84082812D01*
X129068456Y-84246784D01*
X128969853Y-84394354D01*
X128844354Y-84519853D01*
X128696784Y-84618456D01*
X128532812Y-84686376D01*
X128383512Y-84716073D01*
X128358742Y-84721000D01*
X128181258Y-84721000D01*
X128156488Y-84716073D01*
X128007188Y-84686376D01*
X127843216Y-84618456D01*
X127695646Y-84519853D01*
X127570147Y-84394354D01*
X127471544Y-84246784D01*
X127403624Y-84082812D01*
X127369000Y-83908741D01*
X127369000Y-83731259D01*
X127403624Y-83557188D01*
X127471544Y-83393216D01*
X127570147Y-83245646D01*
X127695646Y-83120147D01*
X127843216Y-83021544D01*
X128007188Y-82953624D01*
X128156488Y-82923927D01*
X128181258Y-82919000D01*
X128358742Y-82919000D01*
X128383512Y-82923927D01*
G37*
G36*
X125843512Y-82923927D02*
G01*
X125992812Y-82953624D01*
X126156784Y-83021544D01*
X126304354Y-83120147D01*
X126429853Y-83245646D01*
X126528456Y-83393216D01*
X126596376Y-83557188D01*
X126631000Y-83731259D01*
X126631000Y-83908741D01*
X126596376Y-84082812D01*
X126528456Y-84246784D01*
X126429853Y-84394354D01*
X126304354Y-84519853D01*
X126156784Y-84618456D01*
X125992812Y-84686376D01*
X125843512Y-84716073D01*
X125818742Y-84721000D01*
X125641258Y-84721000D01*
X125616488Y-84716073D01*
X125467188Y-84686376D01*
X125303216Y-84618456D01*
X125155646Y-84519853D01*
X125030147Y-84394354D01*
X124931544Y-84246784D01*
X124863624Y-84082812D01*
X124829000Y-83908741D01*
X124829000Y-83731259D01*
X124863624Y-83557188D01*
X124931544Y-83393216D01*
X125030147Y-83245646D01*
X125155646Y-83120147D01*
X125303216Y-83021544D01*
X125467188Y-82953624D01*
X125616488Y-82923927D01*
X125641258Y-82919000D01*
X125818742Y-82919000D01*
X125843512Y-82923927D01*
G37*
G36*
X123303512Y-82923927D02*
G01*
X123452812Y-82953624D01*
X123616784Y-83021544D01*
X123764354Y-83120147D01*
X123889853Y-83245646D01*
X123988456Y-83393216D01*
X124056376Y-83557188D01*
X124091000Y-83731259D01*
X124091000Y-83908741D01*
X124056376Y-84082812D01*
X123988456Y-84246784D01*
X123889853Y-84394354D01*
X123764354Y-84519853D01*
X123616784Y-84618456D01*
X123452812Y-84686376D01*
X123303512Y-84716073D01*
X123278742Y-84721000D01*
X123101258Y-84721000D01*
X123076488Y-84716073D01*
X122927188Y-84686376D01*
X122763216Y-84618456D01*
X122615646Y-84519853D01*
X122490147Y-84394354D01*
X122391544Y-84246784D01*
X122323624Y-84082812D01*
X122289000Y-83908741D01*
X122289000Y-83731259D01*
X122323624Y-83557188D01*
X122391544Y-83393216D01*
X122490147Y-83245646D01*
X122615646Y-83120147D01*
X122763216Y-83021544D01*
X122927188Y-82953624D01*
X123076488Y-82923927D01*
X123101258Y-82919000D01*
X123278742Y-82919000D01*
X123303512Y-82923927D01*
G37*
G36*
X121551000Y-84721000D02*
G01*
X119749000Y-84721000D01*
X119749000Y-82919000D01*
X121551000Y-82919000D01*
X121551000Y-84721000D01*
G37*
G36*
X133463512Y-82923927D02*
G01*
X133612812Y-82953624D01*
X133776784Y-83021544D01*
X133924354Y-83120147D01*
X134049853Y-83245646D01*
X134148456Y-83393216D01*
X134216376Y-83557188D01*
X134251000Y-83731259D01*
X134251000Y-83908741D01*
X134216376Y-84082812D01*
X134148456Y-84246784D01*
X134049853Y-84394354D01*
X133924354Y-84519853D01*
X133776784Y-84618456D01*
X133612812Y-84686376D01*
X133463512Y-84716073D01*
X133438742Y-84721000D01*
X133261258Y-84721000D01*
X133236488Y-84716073D01*
X133087188Y-84686376D01*
X132923216Y-84618456D01*
X132775646Y-84519853D01*
X132650147Y-84394354D01*
X132551544Y-84246784D01*
X132483624Y-84082812D01*
X132449000Y-83908741D01*
X132449000Y-83731259D01*
X132483624Y-83557188D01*
X132551544Y-83393216D01*
X132650147Y-83245646D01*
X132775646Y-83120147D01*
X132923216Y-83021544D01*
X133087188Y-82953624D01*
X133236488Y-82923927D01*
X133261258Y-82919000D01*
X133438742Y-82919000D01*
X133463512Y-82923927D01*
G37*
G36*
X136003512Y-82923927D02*
G01*
X136152812Y-82953624D01*
X136316784Y-83021544D01*
X136464354Y-83120147D01*
X136589853Y-83245646D01*
X136688456Y-83393216D01*
X136756376Y-83557188D01*
X136791000Y-83731259D01*
X136791000Y-83908741D01*
X136756376Y-84082812D01*
X136688456Y-84246784D01*
X136589853Y-84394354D01*
X136464354Y-84519853D01*
X136316784Y-84618456D01*
X136152812Y-84686376D01*
X136003512Y-84716073D01*
X135978742Y-84721000D01*
X135801258Y-84721000D01*
X135776488Y-84716073D01*
X135627188Y-84686376D01*
X135463216Y-84618456D01*
X135315646Y-84519853D01*
X135190147Y-84394354D01*
X135091544Y-84246784D01*
X135023624Y-84082812D01*
X134989000Y-83908741D01*
X134989000Y-83731259D01*
X135023624Y-83557188D01*
X135091544Y-83393216D01*
X135190147Y-83245646D01*
X135315646Y-83120147D01*
X135463216Y-83021544D01*
X135627188Y-82953624D01*
X135776488Y-82923927D01*
X135801258Y-82919000D01*
X135978742Y-82919000D01*
X136003512Y-82923927D01*
G37*
G36*
X161403512Y-80383927D02*
G01*
X161552812Y-80413624D01*
X161716784Y-80481544D01*
X161864354Y-80580147D01*
X161989853Y-80705646D01*
X162088456Y-80853216D01*
X162156376Y-81017188D01*
X162191000Y-81191259D01*
X162191000Y-81368741D01*
X162156376Y-81542812D01*
X162088456Y-81706784D01*
X161989853Y-81854354D01*
X161864354Y-81979853D01*
X161716784Y-82078456D01*
X161552812Y-82146376D01*
X161403512Y-82176073D01*
X161378742Y-82181000D01*
X161201258Y-82181000D01*
X161176488Y-82176073D01*
X161027188Y-82146376D01*
X160863216Y-82078456D01*
X160715646Y-81979853D01*
X160590147Y-81854354D01*
X160491544Y-81706784D01*
X160423624Y-81542812D01*
X160389000Y-81368741D01*
X160389000Y-81191259D01*
X160423624Y-81017188D01*
X160491544Y-80853216D01*
X160590147Y-80705646D01*
X160715646Y-80580147D01*
X160863216Y-80481544D01*
X161027188Y-80413624D01*
X161176488Y-80383927D01*
X161201258Y-80379000D01*
X161378742Y-80379000D01*
X161403512Y-80383927D01*
G37*
G36*
X123303512Y-80383927D02*
G01*
X123452812Y-80413624D01*
X123616784Y-80481544D01*
X123764354Y-80580147D01*
X123889853Y-80705646D01*
X123988456Y-80853216D01*
X124056376Y-81017188D01*
X124091000Y-81191259D01*
X124091000Y-81368741D01*
X124056376Y-81542812D01*
X123988456Y-81706784D01*
X123889853Y-81854354D01*
X123764354Y-81979853D01*
X123616784Y-82078456D01*
X123452812Y-82146376D01*
X123303512Y-82176073D01*
X123278742Y-82181000D01*
X123101258Y-82181000D01*
X123076488Y-82176073D01*
X122927188Y-82146376D01*
X122763216Y-82078456D01*
X122615646Y-81979853D01*
X122490147Y-81854354D01*
X122391544Y-81706784D01*
X122323624Y-81542812D01*
X122289000Y-81368741D01*
X122289000Y-81191259D01*
X122323624Y-81017188D01*
X122391544Y-80853216D01*
X122490147Y-80705646D01*
X122615646Y-80580147D01*
X122763216Y-80481544D01*
X122927188Y-80413624D01*
X123076488Y-80383927D01*
X123101258Y-80379000D01*
X123278742Y-80379000D01*
X123303512Y-80383927D01*
G37*
G36*
X141083512Y-80383927D02*
G01*
X141232812Y-80413624D01*
X141396784Y-80481544D01*
X141544354Y-80580147D01*
X141669853Y-80705646D01*
X141768456Y-80853216D01*
X141836376Y-81017188D01*
X141871000Y-81191259D01*
X141871000Y-81368741D01*
X141836376Y-81542812D01*
X141768456Y-81706784D01*
X141669853Y-81854354D01*
X141544354Y-81979853D01*
X141396784Y-82078456D01*
X141232812Y-82146376D01*
X141083512Y-82176073D01*
X141058742Y-82181000D01*
X140881258Y-82181000D01*
X140856488Y-82176073D01*
X140707188Y-82146376D01*
X140543216Y-82078456D01*
X140395646Y-81979853D01*
X140270147Y-81854354D01*
X140171544Y-81706784D01*
X140103624Y-81542812D01*
X140069000Y-81368741D01*
X140069000Y-81191259D01*
X140103624Y-81017188D01*
X140171544Y-80853216D01*
X140270147Y-80705646D01*
X140395646Y-80580147D01*
X140543216Y-80481544D01*
X140707188Y-80413624D01*
X140856488Y-80383927D01*
X140881258Y-80379000D01*
X141058742Y-80379000D01*
X141083512Y-80383927D01*
G37*
G36*
X136003512Y-80383927D02*
G01*
X136152812Y-80413624D01*
X136316784Y-80481544D01*
X136464354Y-80580147D01*
X136589853Y-80705646D01*
X136688456Y-80853216D01*
X136756376Y-81017188D01*
X136791000Y-81191259D01*
X136791000Y-81368741D01*
X136756376Y-81542812D01*
X136688456Y-81706784D01*
X136589853Y-81854354D01*
X136464354Y-81979853D01*
X136316784Y-82078456D01*
X136152812Y-82146376D01*
X136003512Y-82176073D01*
X135978742Y-82181000D01*
X135801258Y-82181000D01*
X135776488Y-82176073D01*
X135627188Y-82146376D01*
X135463216Y-82078456D01*
X135315646Y-81979853D01*
X135190147Y-81854354D01*
X135091544Y-81706784D01*
X135023624Y-81542812D01*
X134989000Y-81368741D01*
X134989000Y-81191259D01*
X135023624Y-81017188D01*
X135091544Y-80853216D01*
X135190147Y-80705646D01*
X135315646Y-80580147D01*
X135463216Y-80481544D01*
X135627188Y-80413624D01*
X135776488Y-80383927D01*
X135801258Y-80379000D01*
X135978742Y-80379000D01*
X136003512Y-80383927D01*
G37*
G36*
X143623512Y-80383927D02*
G01*
X143772812Y-80413624D01*
X143936784Y-80481544D01*
X144084354Y-80580147D01*
X144209853Y-80705646D01*
X144308456Y-80853216D01*
X144376376Y-81017188D01*
X144411000Y-81191259D01*
X144411000Y-81368741D01*
X144376376Y-81542812D01*
X144308456Y-81706784D01*
X144209853Y-81854354D01*
X144084354Y-81979853D01*
X143936784Y-82078456D01*
X143772812Y-82146376D01*
X143623512Y-82176073D01*
X143598742Y-82181000D01*
X143421258Y-82181000D01*
X143396488Y-82176073D01*
X143247188Y-82146376D01*
X143083216Y-82078456D01*
X142935646Y-81979853D01*
X142810147Y-81854354D01*
X142711544Y-81706784D01*
X142643624Y-81542812D01*
X142609000Y-81368741D01*
X142609000Y-81191259D01*
X142643624Y-81017188D01*
X142711544Y-80853216D01*
X142810147Y-80705646D01*
X142935646Y-80580147D01*
X143083216Y-80481544D01*
X143247188Y-80413624D01*
X143396488Y-80383927D01*
X143421258Y-80379000D01*
X143598742Y-80379000D01*
X143623512Y-80383927D01*
G37*
G36*
X146163512Y-80383927D02*
G01*
X146312812Y-80413624D01*
X146476784Y-80481544D01*
X146624354Y-80580147D01*
X146749853Y-80705646D01*
X146848456Y-80853216D01*
X146916376Y-81017188D01*
X146951000Y-81191259D01*
X146951000Y-81368741D01*
X146916376Y-81542812D01*
X146848456Y-81706784D01*
X146749853Y-81854354D01*
X146624354Y-81979853D01*
X146476784Y-82078456D01*
X146312812Y-82146376D01*
X146163512Y-82176073D01*
X146138742Y-82181000D01*
X145961258Y-82181000D01*
X145936488Y-82176073D01*
X145787188Y-82146376D01*
X145623216Y-82078456D01*
X145475646Y-81979853D01*
X145350147Y-81854354D01*
X145251544Y-81706784D01*
X145183624Y-81542812D01*
X145149000Y-81368741D01*
X145149000Y-81191259D01*
X145183624Y-81017188D01*
X145251544Y-80853216D01*
X145350147Y-80705646D01*
X145475646Y-80580147D01*
X145623216Y-80481544D01*
X145787188Y-80413624D01*
X145936488Y-80383927D01*
X145961258Y-80379000D01*
X146138742Y-80379000D01*
X146163512Y-80383927D01*
G37*
G36*
X148703512Y-80383927D02*
G01*
X148852812Y-80413624D01*
X149016784Y-80481544D01*
X149164354Y-80580147D01*
X149289853Y-80705646D01*
X149388456Y-80853216D01*
X149456376Y-81017188D01*
X149491000Y-81191259D01*
X149491000Y-81368741D01*
X149456376Y-81542812D01*
X149388456Y-81706784D01*
X149289853Y-81854354D01*
X149164354Y-81979853D01*
X149016784Y-82078456D01*
X148852812Y-82146376D01*
X148703512Y-82176073D01*
X148678742Y-82181000D01*
X148501258Y-82181000D01*
X148476488Y-82176073D01*
X148327188Y-82146376D01*
X148163216Y-82078456D01*
X148015646Y-81979853D01*
X147890147Y-81854354D01*
X147791544Y-81706784D01*
X147723624Y-81542812D01*
X147689000Y-81368741D01*
X147689000Y-81191259D01*
X147723624Y-81017188D01*
X147791544Y-80853216D01*
X147890147Y-80705646D01*
X148015646Y-80580147D01*
X148163216Y-80481544D01*
X148327188Y-80413624D01*
X148476488Y-80383927D01*
X148501258Y-80379000D01*
X148678742Y-80379000D01*
X148703512Y-80383927D01*
G37*
G36*
X151243512Y-80383927D02*
G01*
X151392812Y-80413624D01*
X151556784Y-80481544D01*
X151704354Y-80580147D01*
X151829853Y-80705646D01*
X151928456Y-80853216D01*
X151996376Y-81017188D01*
X152031000Y-81191259D01*
X152031000Y-81368741D01*
X151996376Y-81542812D01*
X151928456Y-81706784D01*
X151829853Y-81854354D01*
X151704354Y-81979853D01*
X151556784Y-82078456D01*
X151392812Y-82146376D01*
X151243512Y-82176073D01*
X151218742Y-82181000D01*
X151041258Y-82181000D01*
X151016488Y-82176073D01*
X150867188Y-82146376D01*
X150703216Y-82078456D01*
X150555646Y-81979853D01*
X150430147Y-81854354D01*
X150331544Y-81706784D01*
X150263624Y-81542812D01*
X150229000Y-81368741D01*
X150229000Y-81191259D01*
X150263624Y-81017188D01*
X150331544Y-80853216D01*
X150430147Y-80705646D01*
X150555646Y-80580147D01*
X150703216Y-80481544D01*
X150867188Y-80413624D01*
X151016488Y-80383927D01*
X151041258Y-80379000D01*
X151218742Y-80379000D01*
X151243512Y-80383927D01*
G37*
G36*
X153783512Y-80383927D02*
G01*
X153932812Y-80413624D01*
X154096784Y-80481544D01*
X154244354Y-80580147D01*
X154369853Y-80705646D01*
X154468456Y-80853216D01*
X154536376Y-81017188D01*
X154571000Y-81191259D01*
X154571000Y-81368741D01*
X154536376Y-81542812D01*
X154468456Y-81706784D01*
X154369853Y-81854354D01*
X154244354Y-81979853D01*
X154096784Y-82078456D01*
X153932812Y-82146376D01*
X153783512Y-82176073D01*
X153758742Y-82181000D01*
X153581258Y-82181000D01*
X153556488Y-82176073D01*
X153407188Y-82146376D01*
X153243216Y-82078456D01*
X153095646Y-81979853D01*
X152970147Y-81854354D01*
X152871544Y-81706784D01*
X152803624Y-81542812D01*
X152769000Y-81368741D01*
X152769000Y-81191259D01*
X152803624Y-81017188D01*
X152871544Y-80853216D01*
X152970147Y-80705646D01*
X153095646Y-80580147D01*
X153243216Y-80481544D01*
X153407188Y-80413624D01*
X153556488Y-80383927D01*
X153581258Y-80379000D01*
X153758742Y-80379000D01*
X153783512Y-80383927D01*
G37*
G36*
X156323512Y-80383927D02*
G01*
X156472812Y-80413624D01*
X156636784Y-80481544D01*
X156784354Y-80580147D01*
X156909853Y-80705646D01*
X157008456Y-80853216D01*
X157076376Y-81017188D01*
X157111000Y-81191259D01*
X157111000Y-81368741D01*
X157076376Y-81542812D01*
X157008456Y-81706784D01*
X156909853Y-81854354D01*
X156784354Y-81979853D01*
X156636784Y-82078456D01*
X156472812Y-82146376D01*
X156323512Y-82176073D01*
X156298742Y-82181000D01*
X156121258Y-82181000D01*
X156096488Y-82176073D01*
X155947188Y-82146376D01*
X155783216Y-82078456D01*
X155635646Y-81979853D01*
X155510147Y-81854354D01*
X155411544Y-81706784D01*
X155343624Y-81542812D01*
X155309000Y-81368741D01*
X155309000Y-81191259D01*
X155343624Y-81017188D01*
X155411544Y-80853216D01*
X155510147Y-80705646D01*
X155635646Y-80580147D01*
X155783216Y-80481544D01*
X155947188Y-80413624D01*
X156096488Y-80383927D01*
X156121258Y-80379000D01*
X156298742Y-80379000D01*
X156323512Y-80383927D01*
G37*
G36*
X138543512Y-80383927D02*
G01*
X138692812Y-80413624D01*
X138856784Y-80481544D01*
X139004354Y-80580147D01*
X139129853Y-80705646D01*
X139228456Y-80853216D01*
X139296376Y-81017188D01*
X139331000Y-81191259D01*
X139331000Y-81368741D01*
X139296376Y-81542812D01*
X139228456Y-81706784D01*
X139129853Y-81854354D01*
X139004354Y-81979853D01*
X138856784Y-82078456D01*
X138692812Y-82146376D01*
X138543512Y-82176073D01*
X138518742Y-82181000D01*
X138341258Y-82181000D01*
X138316488Y-82176073D01*
X138167188Y-82146376D01*
X138003216Y-82078456D01*
X137855646Y-81979853D01*
X137730147Y-81854354D01*
X137631544Y-81706784D01*
X137563624Y-81542812D01*
X137529000Y-81368741D01*
X137529000Y-81191259D01*
X137563624Y-81017188D01*
X137631544Y-80853216D01*
X137730147Y-80705646D01*
X137855646Y-80580147D01*
X138003216Y-80481544D01*
X138167188Y-80413624D01*
X138316488Y-80383927D01*
X138341258Y-80379000D01*
X138518742Y-80379000D01*
X138543512Y-80383927D01*
G37*
G36*
X158863512Y-80383927D02*
G01*
X159012812Y-80413624D01*
X159176784Y-80481544D01*
X159324354Y-80580147D01*
X159449853Y-80705646D01*
X159548456Y-80853216D01*
X159616376Y-81017188D01*
X159651000Y-81191259D01*
X159651000Y-81368741D01*
X159616376Y-81542812D01*
X159548456Y-81706784D01*
X159449853Y-81854354D01*
X159324354Y-81979853D01*
X159176784Y-82078456D01*
X159012812Y-82146376D01*
X158863512Y-82176073D01*
X158838742Y-82181000D01*
X158661258Y-82181000D01*
X158636488Y-82176073D01*
X158487188Y-82146376D01*
X158323216Y-82078456D01*
X158175646Y-81979853D01*
X158050147Y-81854354D01*
X157951544Y-81706784D01*
X157883624Y-81542812D01*
X157849000Y-81368741D01*
X157849000Y-81191259D01*
X157883624Y-81017188D01*
X157951544Y-80853216D01*
X158050147Y-80705646D01*
X158175646Y-80580147D01*
X158323216Y-80481544D01*
X158487188Y-80413624D01*
X158636488Y-80383927D01*
X158661258Y-80379000D01*
X158838742Y-80379000D01*
X158863512Y-80383927D01*
G37*
G36*
X169023512Y-80383927D02*
G01*
X169172812Y-80413624D01*
X169336784Y-80481544D01*
X169484354Y-80580147D01*
X169609853Y-80705646D01*
X169708456Y-80853216D01*
X169776376Y-81017188D01*
X169811000Y-81191259D01*
X169811000Y-81368741D01*
X169776376Y-81542812D01*
X169708456Y-81706784D01*
X169609853Y-81854354D01*
X169484354Y-81979853D01*
X169336784Y-82078456D01*
X169172812Y-82146376D01*
X169023512Y-82176073D01*
X168998742Y-82181000D01*
X168821258Y-82181000D01*
X168796488Y-82176073D01*
X168647188Y-82146376D01*
X168483216Y-82078456D01*
X168335646Y-81979853D01*
X168210147Y-81854354D01*
X168111544Y-81706784D01*
X168043624Y-81542812D01*
X168009000Y-81368741D01*
X168009000Y-81191259D01*
X168043624Y-81017188D01*
X168111544Y-80853216D01*
X168210147Y-80705646D01*
X168335646Y-80580147D01*
X168483216Y-80481544D01*
X168647188Y-80413624D01*
X168796488Y-80383927D01*
X168821258Y-80379000D01*
X168998742Y-80379000D01*
X169023512Y-80383927D01*
G37*
G36*
X130923512Y-80383927D02*
G01*
X131072812Y-80413624D01*
X131236784Y-80481544D01*
X131384354Y-80580147D01*
X131509853Y-80705646D01*
X131608456Y-80853216D01*
X131676376Y-81017188D01*
X131711000Y-81191259D01*
X131711000Y-81368741D01*
X131676376Y-81542812D01*
X131608456Y-81706784D01*
X131509853Y-81854354D01*
X131384354Y-81979853D01*
X131236784Y-82078456D01*
X131072812Y-82146376D01*
X130923512Y-82176073D01*
X130898742Y-82181000D01*
X130721258Y-82181000D01*
X130696488Y-82176073D01*
X130547188Y-82146376D01*
X130383216Y-82078456D01*
X130235646Y-81979853D01*
X130110147Y-81854354D01*
X130011544Y-81706784D01*
X129943624Y-81542812D01*
X129909000Y-81368741D01*
X129909000Y-81191259D01*
X129943624Y-81017188D01*
X130011544Y-80853216D01*
X130110147Y-80705646D01*
X130235646Y-80580147D01*
X130383216Y-80481544D01*
X130547188Y-80413624D01*
X130696488Y-80383927D01*
X130721258Y-80379000D01*
X130898742Y-80379000D01*
X130923512Y-80383927D01*
G37*
G36*
X166483512Y-80383927D02*
G01*
X166632812Y-80413624D01*
X166796784Y-80481544D01*
X166944354Y-80580147D01*
X167069853Y-80705646D01*
X167168456Y-80853216D01*
X167236376Y-81017188D01*
X167271000Y-81191259D01*
X167271000Y-81368741D01*
X167236376Y-81542812D01*
X167168456Y-81706784D01*
X167069853Y-81854354D01*
X166944354Y-81979853D01*
X166796784Y-82078456D01*
X166632812Y-82146376D01*
X166483512Y-82176073D01*
X166458742Y-82181000D01*
X166281258Y-82181000D01*
X166256488Y-82176073D01*
X166107188Y-82146376D01*
X165943216Y-82078456D01*
X165795646Y-81979853D01*
X165670147Y-81854354D01*
X165571544Y-81706784D01*
X165503624Y-81542812D01*
X165469000Y-81368741D01*
X165469000Y-81191259D01*
X165503624Y-81017188D01*
X165571544Y-80853216D01*
X165670147Y-80705646D01*
X165795646Y-80580147D01*
X165943216Y-80481544D01*
X166107188Y-80413624D01*
X166256488Y-80383927D01*
X166281258Y-80379000D01*
X166458742Y-80379000D01*
X166483512Y-80383927D01*
G37*
G36*
X128383512Y-80383927D02*
G01*
X128532812Y-80413624D01*
X128696784Y-80481544D01*
X128844354Y-80580147D01*
X128969853Y-80705646D01*
X129068456Y-80853216D01*
X129136376Y-81017188D01*
X129171000Y-81191259D01*
X129171000Y-81368741D01*
X129136376Y-81542812D01*
X129068456Y-81706784D01*
X128969853Y-81854354D01*
X128844354Y-81979853D01*
X128696784Y-82078456D01*
X128532812Y-82146376D01*
X128383512Y-82176073D01*
X128358742Y-82181000D01*
X128181258Y-82181000D01*
X128156488Y-82176073D01*
X128007188Y-82146376D01*
X127843216Y-82078456D01*
X127695646Y-81979853D01*
X127570147Y-81854354D01*
X127471544Y-81706784D01*
X127403624Y-81542812D01*
X127369000Y-81368741D01*
X127369000Y-81191259D01*
X127403624Y-81017188D01*
X127471544Y-80853216D01*
X127570147Y-80705646D01*
X127695646Y-80580147D01*
X127843216Y-80481544D01*
X128007188Y-80413624D01*
X128156488Y-80383927D01*
X128181258Y-80379000D01*
X128358742Y-80379000D01*
X128383512Y-80383927D01*
G37*
G36*
X120763512Y-80383927D02*
G01*
X120912812Y-80413624D01*
X121076784Y-80481544D01*
X121224354Y-80580147D01*
X121349853Y-80705646D01*
X121448456Y-80853216D01*
X121516376Y-81017188D01*
X121551000Y-81191259D01*
X121551000Y-81368741D01*
X121516376Y-81542812D01*
X121448456Y-81706784D01*
X121349853Y-81854354D01*
X121224354Y-81979853D01*
X121076784Y-82078456D01*
X120912812Y-82146376D01*
X120763512Y-82176073D01*
X120738742Y-82181000D01*
X120561258Y-82181000D01*
X120536488Y-82176073D01*
X120387188Y-82146376D01*
X120223216Y-82078456D01*
X120075646Y-81979853D01*
X119950147Y-81854354D01*
X119851544Y-81706784D01*
X119783624Y-81542812D01*
X119749000Y-81368741D01*
X119749000Y-81191259D01*
X119783624Y-81017188D01*
X119851544Y-80853216D01*
X119950147Y-80705646D01*
X120075646Y-80580147D01*
X120223216Y-80481544D01*
X120387188Y-80413624D01*
X120536488Y-80383927D01*
X120561258Y-80379000D01*
X120738742Y-80379000D01*
X120763512Y-80383927D01*
G37*
G36*
X163943512Y-80383927D02*
G01*
X164092812Y-80413624D01*
X164256784Y-80481544D01*
X164404354Y-80580147D01*
X164529853Y-80705646D01*
X164628456Y-80853216D01*
X164696376Y-81017188D01*
X164731000Y-81191259D01*
X164731000Y-81368741D01*
X164696376Y-81542812D01*
X164628456Y-81706784D01*
X164529853Y-81854354D01*
X164404354Y-81979853D01*
X164256784Y-82078456D01*
X164092812Y-82146376D01*
X163943512Y-82176073D01*
X163918742Y-82181000D01*
X163741258Y-82181000D01*
X163716488Y-82176073D01*
X163567188Y-82146376D01*
X163403216Y-82078456D01*
X163255646Y-81979853D01*
X163130147Y-81854354D01*
X163031544Y-81706784D01*
X162963624Y-81542812D01*
X162929000Y-81368741D01*
X162929000Y-81191259D01*
X162963624Y-81017188D01*
X163031544Y-80853216D01*
X163130147Y-80705646D01*
X163255646Y-80580147D01*
X163403216Y-80481544D01*
X163567188Y-80413624D01*
X163716488Y-80383927D01*
X163741258Y-80379000D01*
X163918742Y-80379000D01*
X163943512Y-80383927D01*
G37*
G36*
X125843512Y-80383927D02*
G01*
X125992812Y-80413624D01*
X126156784Y-80481544D01*
X126304354Y-80580147D01*
X126429853Y-80705646D01*
X126528456Y-80853216D01*
X126596376Y-81017188D01*
X126631000Y-81191259D01*
X126631000Y-81368741D01*
X126596376Y-81542812D01*
X126528456Y-81706784D01*
X126429853Y-81854354D01*
X126304354Y-81979853D01*
X126156784Y-82078456D01*
X125992812Y-82146376D01*
X125843512Y-82176073D01*
X125818742Y-82181000D01*
X125641258Y-82181000D01*
X125616488Y-82176073D01*
X125467188Y-82146376D01*
X125303216Y-82078456D01*
X125155646Y-81979853D01*
X125030147Y-81854354D01*
X124931544Y-81706784D01*
X124863624Y-81542812D01*
X124829000Y-81368741D01*
X124829000Y-81191259D01*
X124863624Y-81017188D01*
X124931544Y-80853216D01*
X125030147Y-80705646D01*
X125155646Y-80580147D01*
X125303216Y-80481544D01*
X125467188Y-80413624D01*
X125616488Y-80383927D01*
X125641258Y-80379000D01*
X125818742Y-80379000D01*
X125843512Y-80383927D01*
G37*
G36*
X133463512Y-80383927D02*
G01*
X133612812Y-80413624D01*
X133776784Y-80481544D01*
X133924354Y-80580147D01*
X134049853Y-80705646D01*
X134148456Y-80853216D01*
X134216376Y-81017188D01*
X134251000Y-81191259D01*
X134251000Y-81368741D01*
X134216376Y-81542812D01*
X134148456Y-81706784D01*
X134049853Y-81854354D01*
X133924354Y-81979853D01*
X133776784Y-82078456D01*
X133612812Y-82146376D01*
X133463512Y-82176073D01*
X133438742Y-82181000D01*
X133261258Y-82181000D01*
X133236488Y-82176073D01*
X133087188Y-82146376D01*
X132923216Y-82078456D01*
X132775646Y-81979853D01*
X132650147Y-81854354D01*
X132551544Y-81706784D01*
X132483624Y-81542812D01*
X132449000Y-81368741D01*
X132449000Y-81191259D01*
X132483624Y-81017188D01*
X132551544Y-80853216D01*
X132650147Y-80705646D01*
X132775646Y-80580147D01*
X132923216Y-80481544D01*
X133087188Y-80413624D01*
X133236488Y-80383927D01*
X133261258Y-80379000D01*
X133438742Y-80379000D01*
X133463512Y-80383927D01*
G37*
M02*
